<svg width="258" height="21" viewBox="0 0 258 21" fill="none" xmlns="http://www.w3.org/2000/svg">
<path d="M165.945 12.708C165.945 13.092 165.849 13.46 165.657 13.812C165.465 14.156 165.181 14.444 164.805 14.676C164.437 14.908 163.993 15.04 163.473 15.072V16.044H162.825V15.072C162.097 15.008 161.505 14.776 161.049 14.376C160.593 13.968 160.361 13.452 160.353 12.828H161.517C161.549 13.164 161.673 13.456 161.889 13.704C162.113 13.952 162.425 14.108 162.825 14.172V11.172C162.289 11.036 161.857 10.896 161.529 10.752C161.201 10.608 160.921 10.384 160.689 10.08C160.457 9.776 160.341 9.368 160.341 8.856C160.341 8.208 160.565 7.672 161.013 7.248C161.469 6.824 162.073 6.588 162.825 6.54V5.544H163.473V6.54C164.153 6.596 164.701 6.816 165.117 7.2C165.533 7.576 165.773 8.068 165.837 8.676H164.673C164.633 8.396 164.509 8.144 164.301 7.92C164.093 7.688 163.817 7.536 163.473 7.464V10.392C164.001 10.528 164.429 10.668 164.757 10.812C165.093 10.948 165.373 11.168 165.597 11.472C165.829 11.776 165.945 12.188 165.945 12.708ZM161.457 8.796C161.457 9.188 161.573 9.488 161.805 9.696C162.037 9.904 162.377 10.076 162.825 10.212V7.44C162.409 7.48 162.077 7.616 161.829 7.848C161.581 8.072 161.457 8.388 161.457 8.796ZM163.473 14.184C163.905 14.136 164.241 13.98 164.481 13.716C164.729 13.452 164.853 13.136 164.853 12.768C164.853 12.376 164.733 12.076 164.493 11.868C164.253 11.652 163.913 11.48 163.473 11.352V14.184ZM167.542 7.32V6.324H169.798V15H168.694V7.32H167.542ZM171.674 10.572C171.674 9.196 171.898 8.124 172.346 7.356C172.794 6.58 173.578 6.192 174.698 6.192C175.81 6.192 176.59 6.58 177.038 7.356C177.486 8.124 177.71 9.196 177.71 10.572C177.71 11.972 177.486 13.06 177.038 13.836C176.59 14.612 175.81 15 174.698 15C173.578 15 172.794 14.612 172.346 13.836C171.898 13.06 171.674 11.972 171.674 10.572ZM176.63 10.572C176.63 9.876 176.582 9.288 176.486 8.808C176.398 8.32 176.21 7.928 175.922 7.632C175.642 7.336 175.234 7.188 174.698 7.188C174.154 7.188 173.738 7.336 173.45 7.632C173.17 7.928 172.982 8.32 172.886 8.808C172.798 9.288 172.754 9.876 172.754 10.572C172.754 11.292 172.798 11.896 172.886 12.384C172.982 12.872 173.17 13.264 173.45 13.56C173.738 13.856 174.154 14.004 174.698 14.004C175.234 14.004 175.642 13.856 175.922 13.56C176.21 13.264 176.398 12.872 176.486 12.384C176.582 11.896 176.63 11.292 176.63 10.572ZM179.209 10.572C179.209 9.196 179.433 8.124 179.881 7.356C180.329 6.58 181.113 6.192 182.233 6.192C183.345 6.192 184.125 6.58 184.573 7.356C185.021 8.124 185.245 9.196 185.245 10.572C185.245 11.972 185.021 13.06 184.573 13.836C184.125 14.612 183.345 15 182.233 15C181.113 15 180.329 14.612 179.881 13.836C179.433 13.06 179.209 11.972 179.209 10.572ZM184.165 10.572C184.165 9.876 184.117 9.288 184.021 8.808C183.933 8.32 183.745 7.928 183.457 7.632C183.177 7.336 182.769 7.188 182.233 7.188C181.689 7.188 181.273 7.336 180.985 7.632C180.705 7.928 180.517 8.32 180.421 8.808C180.333 9.288 180.289 9.876 180.289 10.572C180.289 11.292 180.333 11.896 180.421 12.384C180.517 12.872 180.705 13.264 180.985 13.56C181.273 13.856 181.689 14.004 182.233 14.004C182.769 14.004 183.177 13.856 183.457 13.56C183.745 13.264 183.933 12.872 184.021 12.384C184.117 11.896 184.165 11.292 184.165 10.572Z" fill="#E5062E"/>
<path d="M194.116 5.242C195.18 5.242 196.099 5.44267 196.874 5.844C197.658 6.236 198.255 6.80067 198.666 7.538C199.086 8.27533 199.296 9.14333 199.296 10.142C199.296 11.1407 199.086 12.0087 198.666 12.746C198.255 13.474 197.658 14.034 196.874 14.426C196.099 14.8087 195.18 15 194.116 15H191.078V5.242H194.116ZM194.116 13.95C195.376 13.95 196.337 13.6187 197 12.956C197.663 12.284 197.994 11.346 197.994 10.142C197.994 8.92867 197.658 7.98133 196.986 7.3C196.323 6.61867 195.367 6.278 194.116 6.278H192.352V13.95H194.116ZM201.634 6.082C201.392 6.082 201.186 5.998 201.018 5.83C200.85 5.662 200.766 5.45667 200.766 5.214C200.766 4.97133 200.85 4.766 201.018 4.598C201.186 4.43 201.392 4.346 201.634 4.346C201.868 4.346 202.064 4.43 202.222 4.598C202.39 4.766 202.474 4.97133 202.474 5.214C202.474 5.45667 202.39 5.662 202.222 5.83C202.064 5.998 201.868 6.082 201.634 6.082ZM202.25 7.328V15H200.976V7.328H202.25ZM207.138 15.126C206.55 15.126 206.022 15.028 205.556 14.832C205.089 14.6267 204.72 14.3467 204.45 13.992C204.179 13.628 204.03 13.2127 204.002 12.746H205.318C205.355 13.1287 205.532 13.4413 205.85 13.684C206.176 13.9267 206.601 14.048 207.124 14.048C207.609 14.048 207.992 13.9407 208.272 13.726C208.552 13.5113 208.692 13.2407 208.692 12.914C208.692 12.578 208.542 12.3307 208.244 12.172C207.945 12.004 207.483 11.8407 206.858 11.682C206.288 11.5327 205.822 11.3833 205.458 11.234C205.103 11.0753 204.795 10.8467 204.534 10.548C204.282 10.24 204.156 9.83867 204.156 9.344C204.156 8.952 204.272 8.59267 204.506 8.266C204.739 7.93933 205.07 7.68267 205.5 7.496C205.929 7.3 206.419 7.202 206.97 7.202C207.819 7.202 208.505 7.41667 209.028 7.846C209.55 8.27533 209.83 8.86333 209.868 9.61H208.594C208.566 9.20867 208.402 8.88667 208.104 8.644C207.814 8.40133 207.422 8.28 206.928 8.28C206.47 8.28 206.106 8.378 205.836 8.574C205.565 8.77 205.43 9.02667 205.43 9.344C205.43 9.596 205.509 9.806 205.668 9.974C205.836 10.1327 206.041 10.2633 206.284 10.366C206.536 10.4593 206.881 10.5667 207.32 10.688C207.87 10.8373 208.318 10.9867 208.664 11.136C209.009 11.276 209.303 11.4907 209.546 11.78C209.798 12.0693 209.928 12.4473 209.938 12.914C209.938 13.334 209.821 13.712 209.588 14.048C209.354 14.384 209.023 14.65 208.594 14.846C208.174 15.0327 207.688 15.126 207.138 15.126ZM211.26 11.15C211.26 10.3567 211.419 9.666 211.736 9.078C212.054 8.48067 212.492 8.01867 213.052 7.692C213.622 7.36533 214.27 7.202 214.998 7.202C215.941 7.202 216.716 7.43067 217.322 7.888C217.938 8.34533 218.344 8.98 218.54 9.792H217.168C217.038 9.32533 216.781 8.95667 216.398 8.686C216.025 8.41533 215.558 8.28 214.998 8.28C214.27 8.28 213.682 8.532 213.234 9.036C212.786 9.53067 212.562 10.2353 212.562 11.15C212.562 12.074 212.786 12.788 213.234 13.292C213.682 13.796 214.27 14.048 214.998 14.048C215.558 14.048 216.025 13.9173 216.398 13.656C216.772 13.3947 217.028 13.0213 217.168 12.536H218.54C218.335 13.32 217.924 13.95 217.308 14.426C216.692 14.8927 215.922 15.126 214.998 15.126C214.27 15.126 213.622 14.9627 213.052 14.636C212.492 14.3093 212.054 13.8473 211.736 13.25C211.419 12.6527 211.26 11.9527 211.26 11.15ZM223.586 15.126C222.867 15.126 222.214 14.9627 221.626 14.636C221.047 14.3093 220.59 13.8473 220.254 13.25C219.927 12.6433 219.764 11.9433 219.764 11.15C219.764 10.366 219.932 9.67533 220.268 9.078C220.613 8.47133 221.08 8.00933 221.668 7.692C222.256 7.36533 222.914 7.202 223.642 7.202C224.37 7.202 225.028 7.36533 225.616 7.692C226.204 8.00933 226.666 8.46667 227.002 9.064C227.347 9.66133 227.52 10.3567 227.52 11.15C227.52 11.9433 227.343 12.6433 226.988 13.25C226.643 13.8473 226.171 14.3093 225.574 14.636C224.977 14.9627 224.314 15.126 223.586 15.126ZM223.586 14.006C224.043 14.006 224.473 13.8987 224.874 13.684C225.275 13.4693 225.597 13.1473 225.84 12.718C226.092 12.2887 226.218 11.766 226.218 11.15C226.218 10.534 226.097 10.0113 225.854 9.582C225.611 9.15267 225.294 8.83533 224.902 8.63C224.51 8.41533 224.085 8.308 223.628 8.308C223.161 8.308 222.732 8.41533 222.34 8.63C221.957 8.83533 221.649 9.15267 221.416 9.582C221.183 10.0113 221.066 10.534 221.066 11.15C221.066 11.7753 221.178 12.3027 221.402 12.732C221.635 13.1613 221.943 13.4833 222.326 13.698C222.709 13.9033 223.129 14.006 223.586 14.006ZM235.999 7.328V15H234.725V13.866C234.483 14.258 234.142 14.566 233.703 14.79C233.274 15.0047 232.798 15.112 232.275 15.112C231.678 15.112 231.141 14.9907 230.665 14.748C230.189 14.496 229.811 14.1227 229.531 13.628C229.261 13.1333 229.125 12.5313 229.125 11.822V7.328H230.385V11.654C230.385 12.41 230.577 12.9933 230.959 13.404C231.342 13.8053 231.865 14.006 232.527 14.006C233.209 14.006 233.745 13.796 234.137 13.376C234.529 12.956 234.725 12.3447 234.725 11.542V7.328H235.999ZM241.888 7.188C242.822 7.188 243.578 7.47267 244.156 8.042C244.735 8.602 245.024 9.414 245.024 10.478V15H243.764V10.66C243.764 9.89467 243.573 9.31133 243.19 8.91C242.808 8.49933 242.285 8.294 241.622 8.294C240.95 8.294 240.414 8.504 240.012 8.924C239.62 9.344 239.424 9.95533 239.424 10.758V15H238.15V7.328H239.424V8.42C239.676 8.028 240.017 7.72467 240.446 7.51C240.885 7.29533 241.366 7.188 241.888 7.188ZM248.659 8.378V12.9C248.659 13.2733 248.739 13.5393 248.897 13.698C249.056 13.8473 249.331 13.922 249.723 13.922H250.661V15H249.513C248.804 15 248.272 14.8367 247.917 14.51C247.563 14.1833 247.385 13.6467 247.385 12.9V8.378H246.391V7.328H247.385V5.396H248.659V7.328H250.661V8.378H248.659Z" fill="#565656"/>
</svg>
