<svg width="61" height="22" viewBox="0 0 61 22" fill="none" xmlns="http://www.w3.org/2000/svg">
<path d="M13.9351 14.104C13.9351 14.984 13.7031 15.8 13.2391 16.552C12.7911 17.288 12.1191 17.896 11.2231 18.376C10.3431 18.84 9.29513 19.096 8.07913 19.144V21.088H6.54313V19.12C4.84713 18.976 3.47913 18.472 2.43913 17.608C1.39913 16.728 0.847125 15.536 0.783125 14.032H5.15113C5.24713 14.992 5.71113 15.608 6.54313 15.88V12.088C5.29513 11.768 4.29513 11.456 3.54313 11.152C2.80713 10.848 2.15913 10.36 1.59913 9.688C1.03913 9.016 0.759125 8.096 0.759125 6.928C0.759125 5.472 1.29513 4.304 2.36713 3.424C3.45513 2.544 4.84713 2.048 6.54313 1.936V-0.00800133H8.07913V1.936C9.75913 2.064 11.0871 2.552 12.0631 3.4C13.0391 4.248 13.5831 5.424 13.6951 6.928H9.30313C9.20713 6.064 8.79913 5.504 8.07913 5.248V8.968C9.40713 9.336 10.4311 9.664 11.1511 9.952C11.8711 10.24 12.5111 10.72 13.0711 11.392C13.6471 12.048 13.9351 12.952 13.9351 14.104ZM5.10313 6.736C5.10313 7.136 5.22313 7.472 5.46313 7.744C5.71913 8.016 6.07913 8.256 6.54313 8.464V5.128C6.09513 5.208 5.74313 5.384 5.48713 5.656C5.23113 5.912 5.10313 6.272 5.10313 6.736ZM8.07913 15.952C8.55913 15.872 8.93513 15.68 9.20713 15.376C9.49513 15.072 9.63913 14.696 9.63913 14.248C9.63913 13.832 9.50313 13.496 9.23113 13.24C8.97513 12.968 8.59113 12.736 8.07913 12.544V15.952ZM19.46 9.592C17.956 8.792 17.204 7.536 17.204 5.824C17.204 4.96 17.428 4.176 17.876 3.472C18.324 2.752 19.004 2.184 19.916 1.768C20.828 1.336 21.948 1.12 23.276 1.12C24.604 1.12 25.716 1.336 26.612 1.768C27.524 2.184 28.204 2.752 28.652 3.472C29.1 4.176 29.324 4.96 29.324 5.824C29.324 6.688 29.116 7.44 28.7 8.08C28.3 8.72 27.756 9.224 27.068 9.592C27.932 10.008 28.596 10.584 29.06 11.32C29.524 12.04 29.756 12.888 29.756 13.864C29.756 15 29.468 15.984 28.892 16.816C28.316 17.632 27.532 18.256 26.54 18.688C25.564 19.12 24.476 19.336 23.276 19.336C22.076 19.336 20.98 19.12 19.988 18.688C19.012 18.256 18.236 17.632 17.66 16.816C17.084 15.984 16.796 15 16.796 13.864C16.796 12.872 17.028 12.016 17.492 11.296C17.956 10.56 18.612 9.992 19.46 9.592ZM25.34 6.448C25.34 5.792 25.148 5.288 24.764 4.936C24.396 4.568 23.9 4.384 23.276 4.384C22.652 4.384 22.148 4.568 21.764 4.936C21.396 5.304 21.212 5.816 21.212 6.472C21.212 7.096 21.404 7.592 21.788 7.96C22.172 8.312 22.668 8.488 23.276 8.488C23.884 8.488 24.38 8.304 24.764 7.936C25.148 7.568 25.34 7.072 25.34 6.448ZM23.276 11.368C22.524 11.368 21.916 11.576 21.452 11.992C20.988 12.392 20.756 12.952 20.756 13.672C20.756 14.344 20.98 14.896 21.428 15.328C21.892 15.76 22.508 15.976 23.276 15.976C24.044 15.976 24.644 15.76 25.076 15.328C25.524 14.896 25.748 14.344 25.748 13.672C25.748 12.968 25.516 12.408 25.052 11.992C24.604 11.576 24.012 11.368 23.276 11.368ZM40.8065 6.208C40.6785 5.616 40.4545 5.176 40.1345 4.888C39.8145 4.584 39.3585 4.432 38.7665 4.432C37.8545 4.432 37.1985 4.832 36.7985 5.632C36.3985 6.416 36.1905 7.664 36.1745 9.376C36.5265 8.816 37.0305 8.376 37.6865 8.056C38.3585 7.736 39.0945 7.576 39.8945 7.576C41.4625 7.576 42.7185 8.072 43.6625 9.064C44.6225 10.056 45.1025 11.44 45.1025 13.216C45.1025 14.384 44.8625 15.408 44.3825 16.288C43.9185 17.168 43.2305 17.856 42.3185 18.352C41.4225 18.848 40.3585 19.096 39.1265 19.096C36.6625 19.096 34.9505 18.328 33.9905 16.792C33.0305 15.24 32.5505 13.016 32.5505 10.12C32.5505 7.08 33.0545 4.824 34.0625 3.352C35.0865 1.864 36.7185 1.12 38.9585 1.12C40.1585 1.12 41.1665 1.36 41.9825 1.84C42.8145 2.304 43.4385 2.92 43.8545 3.688C44.2865 4.456 44.5425 5.296 44.6225 6.208H40.8065ZM38.9105 10.816C38.2225 10.816 37.6465 11.024 37.1825 11.44C36.7345 11.84 36.5105 12.416 36.5105 13.168C36.5105 13.936 36.7185 14.536 37.1345 14.968C37.5665 15.4 38.1745 15.616 38.9585 15.616C39.6625 15.616 40.2145 15.408 40.6145 14.992C41.0305 14.56 41.2385 13.976 41.2385 13.24C41.2385 12.488 41.0385 11.896 40.6385 11.464C40.2385 11.032 39.6625 10.816 38.9105 10.816ZM47.4238 10C47.4238 7.248 47.9518 5.08 49.0078 3.496C50.0798 1.912 51.7998 1.12 54.1678 1.12C56.5358 1.12 58.2478 1.912 59.3038 3.496C60.3758 5.08 60.9118 7.248 60.9118 10C60.9118 12.784 60.3758 14.968 59.3038 16.552C58.2478 18.136 56.5358 18.928 54.1678 18.928C51.7998 18.928 50.0798 18.136 49.0078 16.552C47.9518 14.968 47.4238 12.784 47.4238 10ZM56.8798 10C56.8798 8.384 56.7038 7.144 56.3518 6.28C55.9998 5.4 55.2718 4.96 54.1678 4.96C53.0638 4.96 52.3358 5.4 51.9838 6.28C51.6318 7.144 51.4558 8.384 51.4558 10C51.4558 11.088 51.5198 11.992 51.6478 12.712C51.7758 13.416 52.0318 13.992 52.4158 14.44C52.8158 14.872 53.3998 15.088 54.1678 15.088C54.9358 15.088 55.5118 14.872 55.8958 14.44C56.2958 13.992 56.5598 13.416 56.6878 12.712C56.8158 11.992 56.8798 11.088 56.8798 10Z" fill="#4C9839"/>
</svg>
