<svg width="487" height="33" viewBox="0 0 487 33" fill="none" xmlns="http://www.w3.org/2000/svg">
<path d="M32.602 16.114C32.602 15.162 32.8167 14.308 33.246 13.552C33.6753 12.7867 34.2587 12.1893 34.996 11.76C35.7427 11.3307 36.5687 11.116 37.474 11.116C38.538 11.116 39.4667 11.3727 40.26 11.886C41.0533 12.3993 41.632 13.1273 41.996 14.07H40.47C40.1993 13.482 39.8073 13.0293 39.294 12.712C38.79 12.3947 38.1833 12.236 37.474 12.236C36.7927 12.236 36.1813 12.3947 35.64 12.712C35.0987 13.0293 34.674 13.482 34.366 14.07C34.058 14.6487 33.904 15.33 33.904 16.114C33.904 16.8887 34.058 17.57 34.366 18.158C34.674 18.7367 35.0987 19.1847 35.64 19.502C36.1813 19.8193 36.7927 19.978 37.474 19.978C38.1833 19.978 38.79 19.824 39.294 19.516C39.8073 19.1987 40.1993 18.746 40.47 18.158H41.996C41.632 19.0913 41.0533 19.8147 40.26 20.328C39.4667 20.832 38.538 21.084 37.474 21.084C36.5687 21.084 35.7427 20.874 34.996 20.454C34.2587 20.0247 33.6753 19.432 33.246 18.676C32.8167 17.92 32.602 17.066 32.602 16.114ZM45.1665 10.64V21H43.8925V10.64H45.1665ZM54.3378 16.87C54.3378 17.1127 54.3238 17.3693 54.2958 17.64H48.1638C48.2104 18.396 48.4671 18.9887 48.9338 19.418C49.4098 19.838 49.9838 20.048 50.6558 20.048C51.2064 20.048 51.6638 19.922 52.0278 19.67C52.4011 19.4087 52.6624 19.0633 52.8118 18.634H54.1838C53.9784 19.3713 53.5678 19.9733 52.9518 20.44C52.3358 20.8973 51.5704 21.126 50.6558 21.126C49.9278 21.126 49.2744 20.9627 48.6958 20.636C48.1264 20.3093 47.6784 19.8473 47.3518 19.25C47.0251 18.6433 46.8618 17.9433 46.8618 17.15C46.8618 16.3567 47.0204 15.6613 47.3378 15.064C47.6551 14.4667 48.0984 14.0093 48.6678 13.692C49.2464 13.3653 49.9091 13.202 50.6558 13.202C51.3838 13.202 52.0278 13.3607 52.5878 13.678C53.1478 13.9953 53.5771 14.434 53.8758 14.994C54.1838 15.5447 54.3378 16.17 54.3378 16.87ZM53.0218 16.604C53.0218 16.1187 52.9144 15.7033 52.6998 15.358C52.4851 15.0033 52.1911 14.7373 51.8178 14.56C51.4538 14.3733 51.0478 14.28 50.5998 14.28C49.9558 14.28 49.4051 14.4853 48.9478 14.896C48.4998 15.3067 48.2431 15.876 48.1778 16.604H53.0218ZM55.5434 17.136C55.5434 16.352 55.7021 15.666 56.0194 15.078C56.3367 14.4807 56.7707 14.0187 57.3214 13.692C57.8814 13.3653 58.5021 13.202 59.1834 13.202C59.8554 13.202 60.4387 13.3467 60.9334 13.636C61.4281 13.9253 61.7967 14.2893 62.0394 14.728V13.328H63.3274V21H62.0394V19.572C61.7874 20.02 61.4094 20.3933 60.9054 20.692C60.4107 20.9813 59.8321 21.126 59.1694 21.126C58.4881 21.126 57.8721 20.958 57.3214 20.622C56.7707 20.286 56.3367 19.8147 56.0194 19.208C55.7021 18.6013 55.5434 17.9107 55.5434 17.136ZM62.0394 17.15C62.0394 16.5713 61.9227 16.0673 61.6894 15.638C61.4561 15.2087 61.1387 14.882 60.7374 14.658C60.3454 14.4247 59.9114 14.308 59.4354 14.308C58.9594 14.308 58.5254 14.42 58.1334 14.644C57.7414 14.868 57.4287 15.1947 57.1954 15.624C56.9621 16.0533 56.8454 16.5573 56.8454 17.136C56.8454 17.724 56.9621 18.2373 57.1954 18.676C57.4287 19.1053 57.7414 19.4367 58.1334 19.67C58.5254 19.894 58.9594 20.006 59.4354 20.006C59.9114 20.006 60.3454 19.894 60.7374 19.67C61.1387 19.4367 61.4561 19.1053 61.6894 18.676C61.9227 18.2373 62.0394 17.7287 62.0394 17.15ZM69.2183 13.188C70.1517 13.188 70.9077 13.4727 71.4863 14.042C72.065 14.602 72.3543 15.414 72.3543 16.478V21H71.0943V16.66C71.0943 15.8947 70.903 15.3113 70.5203 14.91C70.1377 14.4993 69.615 14.294 68.9523 14.294C68.2803 14.294 67.7437 14.504 67.3423 14.924C66.9503 15.344 66.7543 15.9553 66.7543 16.758V21H65.4803V13.328H66.7543V14.42C67.0063 14.028 67.347 13.7247 67.7763 13.51C68.215 13.2953 68.6957 13.188 69.2183 13.188ZM75.7094 10.64V21H74.4354V10.64H75.7094ZM78.5387 12.082C78.2961 12.082 78.0907 11.998 77.9227 11.83C77.7547 11.662 77.6707 11.4567 77.6707 11.214C77.6707 10.9713 77.7547 10.766 77.9227 10.598C78.0907 10.43 78.2961 10.346 78.5387 10.346C78.7721 10.346 78.9681 10.43 79.1267 10.598C79.2947 10.766 79.3787 10.9713 79.3787 11.214C79.3787 11.4567 79.2947 11.662 79.1267 11.83C78.9681 11.998 78.7721 12.082 78.5387 12.082ZM79.1547 13.328V21H77.8807V13.328H79.1547ZM85.064 13.188C85.9974 13.188 86.7534 13.4727 87.332 14.042C87.9107 14.602 88.2 15.414 88.2 16.478V21H86.94V16.66C86.94 15.8947 86.7487 15.3113 86.366 14.91C85.9834 14.4993 85.4607 14.294 84.798 14.294C84.126 14.294 83.5894 14.504 83.188 14.924C82.796 15.344 82.6 15.9553 82.6 16.758V21H81.326V13.328H82.6V14.42C82.852 14.028 83.1927 13.7247 83.622 13.51C84.0607 13.2953 84.5414 13.188 85.064 13.188ZM97.2811 16.87C97.2811 17.1127 97.2671 17.3693 97.2391 17.64H91.1071C91.1538 18.396 91.4105 18.9887 91.8771 19.418C92.3531 19.838 92.9271 20.048 93.5991 20.048C94.1498 20.048 94.6071 19.922 94.9711 19.67C95.3445 19.4087 95.6058 19.0633 95.7551 18.634H97.1271C96.9218 19.3713 96.5111 19.9733 95.8951 20.44C95.2791 20.8973 94.5138 21.126 93.5991 21.126C92.8711 21.126 92.2178 20.9627 91.6391 20.636C91.0698 20.3093 90.6218 19.8473 90.2951 19.25C89.9685 18.6433 89.8051 17.9433 89.8051 17.15C89.8051 16.3567 89.9638 15.6613 90.2811 15.064C90.5985 14.4667 91.0418 14.0093 91.6111 13.692C92.1898 13.3653 92.8525 13.202 93.5991 13.202C94.3271 13.202 94.9711 13.3607 95.5311 13.678C96.0911 13.9953 96.5205 14.434 96.8191 14.994C97.1271 15.5447 97.2811 16.17 97.2811 16.87ZM95.9651 16.604C95.9651 16.1187 95.8578 15.7033 95.6431 15.358C95.4285 15.0033 95.1345 14.7373 94.7611 14.56C94.3971 14.3733 93.9911 14.28 93.5431 14.28C92.8991 14.28 92.3485 14.4853 91.8911 14.896C91.4431 15.3067 91.1865 15.876 91.1211 16.604H95.9651ZM101.679 21.126C101.091 21.126 100.563 21.028 100.097 20.832C99.6301 20.6267 99.2614 20.3467 98.9908 19.992C98.7201 19.628 98.5708 19.2127 98.5428 18.746H99.8588C99.8961 19.1287 100.073 19.4413 100.391 19.684C100.717 19.9267 101.142 20.048 101.665 20.048C102.15 20.048 102.533 19.9407 102.813 19.726C103.093 19.5113 103.233 19.2407 103.233 18.914C103.233 18.578 103.083 18.3307 102.785 18.172C102.486 18.004 102.024 17.8407 101.399 17.682C100.829 17.5327 100.363 17.3833 99.9988 17.234C99.6441 17.0753 99.3361 16.8467 99.0748 16.548C98.8228 16.24 98.6968 15.8387 98.6968 15.344C98.6968 14.952 98.8134 14.5927 99.0468 14.266C99.2801 13.9393 99.6114 13.6827 100.041 13.496C100.47 13.3 100.96 13.202 101.511 13.202C102.36 13.202 103.046 13.4167 103.569 13.846C104.091 14.2753 104.371 14.8633 104.409 15.61H103.135C103.107 15.2087 102.943 14.8867 102.645 14.644C102.355 14.4013 101.963 14.28 101.469 14.28C101.011 14.28 100.647 14.378 100.377 14.574C100.106 14.77 99.9708 15.0267 99.9708 15.344C99.9708 15.596 100.05 15.806 100.209 15.974C100.377 16.1327 100.582 16.2633 100.825 16.366C101.077 16.4593 101.422 16.5667 101.861 16.688C102.411 16.8373 102.859 16.9867 103.205 17.136C103.55 17.276 103.844 17.4907 104.087 17.78C104.339 18.0693 104.469 18.4473 104.479 18.914C104.479 19.334 104.362 19.712 104.129 20.048C103.895 20.384 103.564 20.65 103.135 20.846C102.715 21.0327 102.229 21.126 101.679 21.126ZM108.993 21.126C108.405 21.126 107.878 21.028 107.411 20.832C106.945 20.6267 106.576 20.3467 106.305 19.992C106.035 19.628 105.885 19.2127 105.857 18.746H107.173C107.211 19.1287 107.388 19.4413 107.705 19.684C108.032 19.9267 108.457 20.048 108.979 20.048C109.465 20.048 109.847 19.9407 110.127 19.726C110.407 19.5113 110.547 19.2407 110.547 18.914C110.547 18.578 110.398 18.3307 110.099 18.172C109.801 18.004 109.339 17.8407 108.713 17.682C108.144 17.5327 107.677 17.3833 107.313 17.234C106.959 17.0753 106.651 16.8467 106.389 16.548C106.137 16.24 106.011 15.8387 106.011 15.344C106.011 14.952 106.128 14.5927 106.361 14.266C106.595 13.9393 106.926 13.6827 107.355 13.496C107.785 13.3 108.275 13.202 108.825 13.202C109.675 13.202 110.361 13.4167 110.883 13.846C111.406 14.2753 111.686 14.8633 111.723 15.61H110.449C110.421 15.2087 110.258 14.8867 109.959 14.644C109.67 14.4013 109.278 14.28 108.783 14.28C108.326 14.28 107.962 14.378 107.691 14.574C107.421 14.77 107.285 15.0267 107.285 15.344C107.285 15.596 107.365 15.806 107.523 15.974C107.691 16.1327 107.897 16.2633 108.139 16.366C108.391 16.4593 108.737 16.5667 109.175 16.688C109.726 16.8373 110.174 16.9867 110.519 17.136C110.865 17.276 111.159 17.4907 111.401 17.78C111.653 18.0693 111.784 18.4473 111.793 18.914C111.793 19.334 111.677 19.712 111.443 20.048C111.21 20.384 110.879 20.65 110.449 20.846C110.029 21.0327 109.544 21.126 108.993 21.126ZM122.462 21L120.138 17.01H118.598V21H117.324V11.242H120.474C121.211 11.242 121.832 11.368 122.336 11.62C122.849 11.872 123.232 12.2127 123.484 12.642C123.736 13.0713 123.862 13.5613 123.862 14.112C123.862 14.784 123.666 15.3767 123.274 15.89C122.891 16.4033 122.313 16.744 121.538 16.912L123.988 21H122.462ZM118.598 15.988H120.474C121.165 15.988 121.683 15.82 122.028 15.484C122.373 15.1387 122.546 14.6813 122.546 14.112C122.546 13.5333 122.373 13.0853 122.028 12.768C121.692 12.4507 121.174 12.292 120.474 12.292H118.598V15.988ZM129.188 21.126C128.469 21.126 127.816 20.9627 127.228 20.636C126.649 20.3093 126.192 19.8473 125.856 19.25C125.529 18.6433 125.366 17.9433 125.366 17.15C125.366 16.366 125.534 15.6753 125.87 15.078C126.215 14.4713 126.682 14.0093 127.27 13.692C127.858 13.3653 128.516 13.202 129.244 13.202C129.972 13.202 130.63 13.3653 131.218 13.692C131.806 14.0093 132.268 14.4667 132.604 15.064C132.949 15.6613 133.122 16.3567 133.122 17.15C133.122 17.9433 132.944 18.6433 132.59 19.25C132.244 19.8473 131.773 20.3093 131.176 20.636C130.578 20.9627 129.916 21.126 129.188 21.126ZM129.188 20.006C129.645 20.006 130.074 19.8987 130.476 19.684C130.877 19.4693 131.199 19.1473 131.442 18.718C131.694 18.2887 131.82 17.766 131.82 17.15C131.82 16.534 131.698 16.0113 131.456 15.582C131.213 15.1527 130.896 14.8353 130.504 14.63C130.112 14.4153 129.687 14.308 129.23 14.308C128.763 14.308 128.334 14.4153 127.942 14.63C127.559 14.8353 127.251 15.1527 127.018 15.582C126.784 16.0113 126.668 16.534 126.668 17.15C126.668 17.7753 126.78 18.3027 127.004 18.732C127.237 19.1613 127.545 19.4833 127.928 19.698C128.31 19.9033 128.73 20.006 129.188 20.006ZM138.143 21.126C137.424 21.126 136.771 20.9627 136.183 20.636C135.604 20.3093 135.147 19.8473 134.811 19.25C134.484 18.6433 134.321 17.9433 134.321 17.15C134.321 16.366 134.489 15.6753 134.825 15.078C135.17 14.4713 135.637 14.0093 136.225 13.692C136.813 13.3653 137.471 13.202 138.199 13.202C138.927 13.202 139.585 13.3653 140.173 13.692C140.761 14.0093 141.223 14.4667 141.559 15.064C141.904 15.6613 142.077 16.3567 142.077 17.15C142.077 17.9433 141.899 18.6433 141.545 19.25C141.199 19.8473 140.728 20.3093 140.131 20.636C139.533 20.9627 138.871 21.126 138.143 21.126ZM138.143 20.006C138.6 20.006 139.029 19.8987 139.431 19.684C139.832 19.4693 140.154 19.1473 140.397 18.718C140.649 18.2887 140.775 17.766 140.775 17.15C140.775 16.534 140.653 16.0113 140.411 15.582C140.168 15.1527 139.851 14.8353 139.459 14.63C139.067 14.4153 138.642 14.308 138.185 14.308C137.718 14.308 137.289 14.4153 136.897 14.63C136.514 14.8353 136.206 15.1527 135.973 15.582C135.739 16.0113 135.623 16.534 135.623 17.15C135.623 17.7753 135.735 18.3027 135.959 18.732C136.192 19.1613 136.5 19.4833 136.883 19.698C137.265 19.9033 137.685 20.006 138.143 20.006ZM152.978 13.188C153.575 13.188 154.107 13.314 154.574 13.566C155.04 13.8087 155.409 14.1773 155.68 14.672C155.95 15.1667 156.086 15.7687 156.086 16.478V21H154.826V16.66C154.826 15.8947 154.634 15.3113 154.252 14.91C153.878 14.4993 153.37 14.294 152.726 14.294C152.063 14.294 151.536 14.5087 151.144 14.938C150.752 15.358 150.556 15.9693 150.556 16.772V21H149.296V16.66C149.296 15.8947 149.104 15.3113 148.722 14.91C148.348 14.4993 147.84 14.294 147.196 14.294C146.533 14.294 146.006 14.5087 145.614 14.938C145.222 15.358 145.026 15.9693 145.026 16.772V21H143.752V13.328H145.026V14.434C145.278 14.0327 145.614 13.7247 146.034 13.51C146.463 13.2953 146.934 13.188 147.448 13.188C148.092 13.188 148.661 13.3327 149.156 13.622C149.65 13.9113 150.019 14.336 150.262 14.896C150.476 14.3547 150.831 13.9347 151.326 13.636C151.82 13.3373 152.371 13.188 152.978 13.188ZM160.892 21.126C160.304 21.126 159.776 21.028 159.31 20.832C158.843 20.6267 158.474 20.3467 158.204 19.992C157.933 19.628 157.784 19.2127 157.756 18.746H159.072C159.109 19.1287 159.286 19.4413 159.604 19.684C159.93 19.9267 160.355 20.048 160.878 20.048C161.363 20.048 161.746 19.9407 162.026 19.726C162.306 19.5113 162.446 19.2407 162.446 18.914C162.446 18.578 162.296 18.3307 161.998 18.172C161.699 18.004 161.237 17.8407 160.612 17.682C160.042 17.5327 159.576 17.3833 159.212 17.234C158.857 17.0753 158.549 16.8467 158.288 16.548C158.036 16.24 157.91 15.8387 157.91 15.344C157.91 14.952 158.026 14.5927 158.26 14.266C158.493 13.9393 158.824 13.6827 159.254 13.496C159.683 13.3 160.173 13.202 160.724 13.202C161.573 13.202 162.259 13.4167 162.782 13.846C163.304 14.2753 163.584 14.8633 163.622 15.61H162.348C162.32 15.2087 162.156 14.8867 161.858 14.644C161.568 14.4013 161.176 14.28 160.682 14.28C160.224 14.28 159.86 14.378 159.59 14.574C159.319 14.77 159.184 15.0267 159.184 15.344C159.184 15.596 159.263 15.806 159.422 15.974C159.59 16.1327 159.795 16.2633 160.038 16.366C160.29 16.4593 160.635 16.5667 161.074 16.688C161.624 16.8373 162.072 16.9867 162.418 17.136C162.763 17.276 163.057 17.4907 163.3 17.78C163.552 18.0693 163.682 18.4473 163.692 18.914C163.692 19.334 163.575 19.712 163.342 20.048C163.108 20.384 162.777 20.65 162.348 20.846C161.928 21.0327 161.442 21.126 160.892 21.126ZM174.361 21L172.037 17.01H170.497V21H169.223V11.242H172.373C173.11 11.242 173.731 11.368 174.235 11.62C174.748 11.872 175.131 12.2127 175.383 12.642C175.635 13.0713 175.761 13.5613 175.761 14.112C175.761 14.784 175.565 15.3767 175.173 15.89C174.79 16.4033 174.211 16.744 173.437 16.912L175.887 21H174.361ZM170.497 15.988H172.373C173.063 15.988 173.581 15.82 173.927 15.484C174.272 15.1387 174.445 14.6813 174.445 14.112C174.445 13.5333 174.272 13.0853 173.927 12.768C173.591 12.4507 173.073 12.292 172.373 12.292H170.497V15.988ZM177.264 17.136C177.264 16.352 177.423 15.666 177.74 15.078C178.057 14.4807 178.491 14.0187 179.042 13.692C179.602 13.3653 180.223 13.202 180.904 13.202C181.576 13.202 182.159 13.3467 182.654 13.636C183.149 13.9253 183.517 14.2893 183.76 14.728V13.328H185.048V21H183.76V19.572C183.508 20.02 183.13 20.3933 182.626 20.692C182.131 20.9813 181.553 21.126 180.89 21.126C180.209 21.126 179.593 20.958 179.042 20.622C178.491 20.286 178.057 19.8147 177.74 19.208C177.423 18.6013 177.264 17.9107 177.264 17.136ZM183.76 17.15C183.76 16.5713 183.643 16.0673 183.41 15.638C183.177 15.2087 182.859 14.882 182.458 14.658C182.066 14.4247 181.632 14.308 181.156 14.308C180.68 14.308 180.246 14.42 179.854 14.644C179.462 14.868 179.149 15.1947 178.916 15.624C178.683 16.0533 178.566 16.5573 178.566 17.136C178.566 17.724 178.683 18.2373 178.916 18.676C179.149 19.1053 179.462 19.4367 179.854 19.67C180.246 19.894 180.68 20.006 181.156 20.006C181.632 20.006 182.066 19.894 182.458 19.67C182.859 19.4367 183.177 19.1053 183.41 18.676C183.643 18.2373 183.76 17.7287 183.76 17.15ZM188.755 14.378V18.9C188.755 19.2733 188.834 19.5393 188.993 19.698C189.152 19.8473 189.427 19.922 189.819 19.922H190.757V21H189.609C188.9 21 188.368 20.8367 188.013 20.51C187.658 20.1833 187.481 19.6467 187.481 18.9V14.378H186.487V13.328H187.481V11.396H188.755V13.328H190.757V14.378H188.755ZM199.301 16.87C199.301 17.1127 199.287 17.3693 199.259 17.64H193.127C193.173 18.396 193.43 18.9887 193.897 19.418C194.373 19.838 194.947 20.048 195.619 20.048C196.169 20.048 196.627 19.922 196.991 19.67C197.364 19.4087 197.625 19.0633 197.775 18.634H199.147C198.941 19.3713 198.531 19.9733 197.915 20.44C197.299 20.8973 196.533 21.126 195.619 21.126C194.891 21.126 194.237 20.9627 193.659 20.636C193.089 20.3093 192.641 19.8473 192.315 19.25C191.988 18.6433 191.825 17.9433 191.825 17.15C191.825 16.3567 191.983 15.6613 192.301 15.064C192.618 14.4667 193.061 14.0093 193.631 13.692C194.209 13.3653 194.872 13.202 195.619 13.202C196.347 13.202 196.991 13.3607 197.551 13.678C198.111 13.9953 198.54 14.434 198.839 14.994C199.147 15.5447 199.301 16.17 199.301 16.87ZM197.985 16.604C197.985 16.1187 197.877 15.7033 197.663 15.358C197.448 15.0033 197.154 14.7373 196.781 14.56C196.417 14.3733 196.011 14.28 195.563 14.28C194.919 14.28 194.368 14.4853 193.911 14.896C193.463 15.3067 193.206 15.876 193.141 16.604H197.985Z" fill="black"/>
<path d="M16.5 11.5V11C16.5 8.23857 14.2614 6 11.5 6C8.7386 6 6.5 8.23857 6.5 11M16.5 11.5C16.5 17.5 6.5 17.5 6.5 17.5V26H16.5V11.5Z" stroke="black" stroke-linecap="round" stroke-linejoin="round"/>
<path d="M9.5 21L11 22.5L13.5 20" stroke="black" stroke-linecap="round" stroke-linejoin="round"/>
<g filter="url(#filter0_b_3163_54808)">
<rect x="216.5" y="5" width="23" height="23" rx="3.5" stroke="#07689F"/>
<path d="M221.65 16.58C221.023 16.2467 220.71 15.7233 220.71 15.01C220.71 14.65 220.803 14.3233 220.99 14.03C221.177 13.73 221.46 13.4933 221.84 13.32C222.22 13.14 222.687 13.05 223.24 13.05C223.793 13.05 224.257 13.14 224.63 13.32C225.01 13.4933 225.293 13.73 225.48 14.03C225.667 14.3233 225.76 14.65 225.76 15.01C225.76 15.37 225.673 15.6833 225.5 15.95C225.333 16.2167 225.107 16.4267 224.82 16.58C225.18 16.7533 225.457 16.9933 225.65 17.3C225.843 17.6 225.94 17.9533 225.94 18.36C225.94 18.8333 225.82 19.2433 225.58 19.59C225.34 19.93 225.013 20.19 224.6 20.37C224.193 20.55 223.74 20.64 223.24 20.64C222.74 20.64 222.283 20.55 221.87 20.37C221.463 20.19 221.14 19.93 220.9 19.59C220.66 19.2433 220.54 18.8333 220.54 18.36C220.54 17.9467 220.637 17.59 220.83 17.29C221.023 16.9833 221.297 16.7467 221.65 16.58ZM224.1 15.27C224.1 14.9967 224.02 14.7867 223.86 14.64C223.707 14.4867 223.5 14.41 223.24 14.41C222.98 14.41 222.77 14.4867 222.61 14.64C222.457 14.7933 222.38 15.0067 222.38 15.28C222.38 15.54 222.46 15.7467 222.62 15.9C222.78 16.0467 222.987 16.12 223.24 16.12C223.493 16.12 223.7 16.0433 223.86 15.89C224.02 15.7367 224.1 15.53 224.1 15.27ZM223.24 17.32C222.927 17.32 222.673 17.4067 222.48 17.58C222.287 17.7467 222.19 17.98 222.19 18.28C222.19 18.56 222.283 18.79 222.47 18.97C222.663 19.15 222.92 19.24 223.24 19.24C223.56 19.24 223.81 19.15 223.99 18.97C224.177 18.79 224.27 18.56 224.27 18.28C224.27 17.9867 224.173 17.7533 223.98 17.58C223.793 17.4067 223.547 17.32 223.24 17.32ZM228.944 18.92L227.834 21.79H226.744L227.324 18.92H228.944ZM231.645 18.36C231.745 18.8867 232.052 19.15 232.565 19.15C232.919 19.15 233.169 18.9933 233.315 18.68C233.462 18.3667 233.535 17.8567 233.535 17.15C233.389 17.3567 233.189 17.5167 232.935 17.63C232.682 17.7433 232.399 17.8 232.085 17.8C231.659 17.8 231.279 17.7133 230.945 17.54C230.612 17.36 230.349 17.0967 230.155 16.75C229.969 16.3967 229.875 15.97 229.875 15.47C229.875 14.9767 229.975 14.5467 230.175 14.18C230.382 13.8133 230.672 13.53 231.045 13.33C231.425 13.13 231.872 13.03 232.385 13.03C233.372 13.03 234.062 13.3367 234.455 13.95C234.849 14.5633 235.045 15.4667 235.045 16.66C235.045 17.5267 234.965 18.2433 234.805 18.81C234.652 19.37 234.389 19.7967 234.015 20.09C233.649 20.3833 233.145 20.53 232.505 20.53C231.999 20.53 231.565 20.43 231.205 20.23C230.852 20.03 230.579 19.7667 230.385 19.44C230.199 19.1133 230.092 18.7533 230.065 18.36H231.645ZM232.475 16.45C232.755 16.45 232.979 16.3667 233.145 16.2C233.312 16.0267 233.395 15.7933 233.395 15.5C233.395 15.18 233.309 14.9333 233.135 14.76C232.962 14.5867 232.729 14.5 232.435 14.5C232.142 14.5 231.909 14.59 231.735 14.77C231.569 14.9433 231.485 15.1833 231.485 15.49C231.485 15.7767 231.569 16.01 231.735 16.19C231.909 16.3633 232.155 16.45 232.475 16.45Z" fill="#07689F"/>
</g>
<defs>
<filter id="filter0_b_3163_54808" x="212" y="0.5" width="32" height="32" filterUnits="userSpaceOnUse" color-interpolation-filters="sRGB">
<feFlood flood-opacity="0" result="BackgroundImageFix"/>
<feGaussianBlur in="BackgroundImageFix" stdDeviation="2"/>
<feComposite in2="SourceAlpha" operator="in" result="effect1_backgroundBlur_3163_54808"/>
<feBlend mode="normal" in="SourceGraphic" in2="effect1_backgroundBlur_3163_54808" result="shape"/>
</filter>
</defs>
</svg>
