<svg width="515" height="33" viewBox="0 0 515 33" fill="none" xmlns="http://www.w3.org/2000/svg">
<mask id="path-1-inside-1_3306_51190" fill="white">
<path d="M0 0H515V33H0V0Z"/>
</mask>
<path d="M515 32H0V34H515V32Z" fill="#D9D9D9" mask="url(#path-1-inside-1_3306_51190)"/>
<path d="M11.536 11.768L7.552 23H4.128L0.144 11.768H3.056L5.84 20.248L8.64 11.768H11.536ZM21.0955 18.392C21.0955 18.648 21.0795 18.9147 21.0475 19.192H14.8555C14.8982 19.7467 15.0742 20.1733 15.3835 20.472C15.7035 20.76 16.0928 20.904 16.5515 20.904C17.2342 20.904 17.7088 20.616 17.9755 20.04H20.8875C20.7382 20.6267 20.4662 21.1547 20.0715 21.624C19.6875 22.0933 19.2022 22.4613 18.6155 22.728C18.0288 22.9947 17.3728 23.128 16.6475 23.128C15.7728 23.128 14.9942 22.9413 14.3115 22.568C13.6288 22.1947 13.0955 21.6613 12.7115 20.968C12.3275 20.2747 12.1355 19.464 12.1355 18.536C12.1355 17.608 12.3222 16.7973 12.6955 16.104C13.0795 15.4107 13.6128 14.8773 14.2955 14.504C14.9782 14.1307 15.7622 13.944 16.6475 13.944C17.5115 13.944 18.2795 14.1253 18.9515 14.488C19.6235 14.8507 20.1462 15.368 20.5195 16.04C20.9035 16.712 21.0955 17.496 21.0955 18.392ZM18.2955 17.672C18.2955 17.2027 18.1355 16.8293 17.8155 16.552C17.4955 16.2747 17.0955 16.136 16.6155 16.136C16.1568 16.136 15.7675 16.2693 15.4475 16.536C15.1382 16.8027 14.9462 17.1813 14.8715 17.672H18.2955ZM25.2749 15.56C25.5949 15.0693 25.9949 14.6853 26.4749 14.408C26.9549 14.12 27.4882 13.976 28.0749 13.976V16.872H27.3229C26.6402 16.872 26.1282 17.0213 25.7869 17.32C25.4455 17.608 25.2749 18.12 25.2749 18.856V23H22.5389V14.072H25.2749V15.56ZM38.5026 14.072L32.9026 27.24H29.9586L32.0066 22.696L28.3746 14.072H31.4306L33.4946 19.656L35.5426 14.072H38.5026ZM50.3386 15.32C50.136 14.9467 49.8426 14.664 49.4586 14.472C49.0853 14.2693 48.6426 14.168 48.1306 14.168C47.2453 14.168 46.536 14.4613 46.0026 15.048C45.4693 15.624 45.2026 16.3973 45.2026 17.368C45.2026 18.4027 45.48 19.2133 46.0346 19.8C46.6 20.376 47.3733 20.664 48.3546 20.664C49.0266 20.664 49.592 20.4933 50.0506 20.152C50.52 19.8107 50.8613 19.32 51.0746 18.68H47.6026V16.664H53.5546V19.208C53.352 19.8907 53.0053 20.5253 52.5146 21.112C52.0346 21.6987 51.4213 22.1733 50.6746 22.536C49.928 22.8987 49.0853 23.08 48.1466 23.08C47.0373 23.08 46.0453 22.84 45.1706 22.36C44.3066 21.8693 43.6293 21.192 43.1386 20.328C42.6586 19.464 42.4186 18.4773 42.4186 17.368C42.4186 16.2587 42.6586 15.272 43.1386 14.408C43.6293 13.5333 44.3066 12.856 45.1706 12.376C46.0346 11.8853 47.0213 11.64 48.1306 11.64C49.4746 11.64 50.6053 11.9653 51.5226 12.616C52.4506 13.2667 53.064 14.168 53.3626 15.32H50.3386ZM59.1341 23.128C58.2595 23.128 57.4701 22.9413 56.7661 22.568C56.0728 22.1947 55.5235 21.6613 55.1181 20.968C54.7235 20.2747 54.5261 19.464 54.5261 18.536C54.5261 17.6187 54.7288 16.8133 55.1341 16.12C55.5395 15.416 56.0941 14.8773 56.7981 14.504C57.5021 14.1307 58.2915 13.944 59.1661 13.944C60.0408 13.944 60.8301 14.1307 61.5341 14.504C62.2381 14.8773 62.7928 15.416 63.1981 16.12C63.6035 16.8133 63.8061 17.6187 63.8061 18.536C63.8061 19.4533 63.5981 20.264 63.1821 20.968C62.7768 21.6613 62.2168 22.1947 61.5021 22.568C60.7981 22.9413 60.0088 23.128 59.1341 23.128ZM59.1341 20.76C59.6568 20.76 60.0995 20.568 60.4621 20.184C60.8355 19.8 61.0221 19.2507 61.0221 18.536C61.0221 17.8213 60.8408 17.272 60.4781 16.888C60.1261 16.504 59.6888 16.312 59.1661 16.312C58.6328 16.312 58.1901 16.504 57.8381 16.888C57.4861 17.2613 57.3101 17.8107 57.3101 18.536C57.3101 19.2507 57.4808 19.8 57.8221 20.184C58.1741 20.568 58.6115 20.76 59.1341 20.76ZM69.3216 23.128C68.447 23.128 67.6576 22.9413 66.9536 22.568C66.2603 22.1947 65.711 21.6613 65.3056 20.968C64.911 20.2747 64.7136 19.464 64.7136 18.536C64.7136 17.6187 64.9163 16.8133 65.3216 16.12C65.727 15.416 66.2816 14.8773 66.9856 14.504C67.6896 14.1307 68.479 13.944 69.3536 13.944C70.2283 13.944 71.0176 14.1307 71.7216 14.504C72.4256 14.8773 72.9803 15.416 73.3856 16.12C73.791 16.8133 73.9936 17.6187 73.9936 18.536C73.9936 19.4533 73.7856 20.264 73.3696 20.968C72.9643 21.6613 72.4043 22.1947 71.6896 22.568C70.9856 22.9413 70.1963 23.128 69.3216 23.128ZM69.3216 20.76C69.8443 20.76 70.287 20.568 70.6496 20.184C71.023 19.8 71.2096 19.2507 71.2096 18.536C71.2096 17.8213 71.0283 17.272 70.6656 16.888C70.3136 16.504 69.8763 16.312 69.3536 16.312C68.8203 16.312 68.3776 16.504 68.0256 16.888C67.6736 17.2613 67.4976 17.8107 67.4976 18.536C67.4976 19.2507 67.6683 19.8 68.0096 20.184C68.3616 20.568 68.799 20.76 69.3216 20.76ZM74.9011 18.52C74.9011 17.6027 75.0718 16.7973 75.4131 16.104C75.7651 15.4107 76.2398 14.8773 76.8371 14.504C77.4345 14.1307 78.1011 13.944 78.8371 13.944C79.4238 13.944 79.9571 14.0667 80.4371 14.312C80.9278 14.5573 81.3118 14.888 81.5891 15.304V11.16H84.3251V23H81.5891V21.72C81.3331 22.1467 80.9651 22.488 80.4851 22.744C80.0158 23 79.4665 23.128 78.8371 23.128C78.1011 23.128 77.4345 22.9413 76.8371 22.568C76.2398 22.184 75.7651 21.6453 75.4131 20.952C75.0718 20.248 74.9011 19.4373 74.9011 18.52ZM81.5891 18.536C81.5891 17.8533 81.3971 17.3147 81.0131 16.92C80.6398 16.5253 80.1811 16.328 79.6371 16.328C79.0931 16.328 78.6291 16.5253 78.2451 16.92C77.8718 17.304 77.6851 17.8373 77.6851 18.52C77.6851 19.2027 77.8718 19.7467 78.2451 20.152C78.6291 20.5467 79.0931 20.744 79.6371 20.744C80.1811 20.744 80.6398 20.5467 81.0131 20.152C81.3971 19.7573 81.5891 19.2187 81.5891 18.536Z" fill="black"/>
<path d="M93.1893 20.732L91.1733 25.574H90.0753L91.3893 20.732H93.1893ZM99.3965 21.686C100.921 20.462 102.115 19.46 102.979 18.68C103.843 17.888 104.569 17.066 105.157 16.214C105.757 15.35 106.057 14.504 106.057 13.676C106.057 12.896 105.865 12.284 105.481 11.84C105.109 11.384 104.503 11.156 103.663 11.156C102.847 11.156 102.211 11.414 101.755 11.93C101.311 12.434 101.071 13.112 101.035 13.964H99.4505C99.4985 12.62 99.9065 11.582 100.675 10.85C101.443 10.118 102.433 9.752 103.645 9.752C104.881 9.752 105.859 10.094 106.579 10.778C107.311 11.462 107.677 12.404 107.677 13.604C107.677 14.6 107.377 15.572 106.777 16.52C106.189 17.456 105.517 18.284 104.761 19.004C104.005 19.712 103.039 20.54 101.863 21.488H108.055V22.856H99.3965V21.686ZM110.74 23.108C110.428 23.108 110.164 23 109.948 22.784C109.732 22.568 109.624 22.304 109.624 21.992C109.624 21.68 109.732 21.416 109.948 21.2C110.164 20.984 110.428 20.876 110.74 20.876C111.04 20.876 111.292 20.984 111.496 21.2C111.712 21.416 111.82 21.68 111.82 21.992C111.82 22.304 111.712 22.568 111.496 22.784C111.292 23 111.04 23.108 110.74 23.108ZM113.529 21.686C115.053 20.462 116.247 19.46 117.111 18.68C117.975 17.888 118.701 17.066 119.289 16.214C119.889 15.35 120.189 14.504 120.189 13.676C120.189 12.896 119.997 12.284 119.613 11.84C119.241 11.384 118.635 11.156 117.795 11.156C116.979 11.156 116.343 11.414 115.887 11.93C115.443 12.434 115.203 13.112 115.167 13.964H113.583C113.631 12.62 114.039 11.582 114.807 10.85C115.575 10.118 116.565 9.752 117.777 9.752C119.013 9.752 119.991 10.094 120.711 10.778C121.443 11.462 121.809 12.404 121.809 13.604C121.809 14.6 121.509 15.572 120.909 16.52C120.321 17.456 119.649 18.284 118.893 19.004C118.137 19.712 117.171 20.54 115.995 21.488H122.187V22.856H113.529V21.686ZM132.379 11.408H126.061V15.512C126.337 15.128 126.745 14.816 127.285 14.576C127.825 14.324 128.407 14.198 129.031 14.198C130.027 14.198 130.837 14.408 131.461 14.828C132.085 15.236 132.529 15.77 132.793 16.43C133.069 17.078 133.207 17.768 133.207 18.5C133.207 19.364 133.045 20.138 132.721 20.822C132.397 21.506 131.899 22.046 131.227 22.442C130.567 22.838 129.745 23.036 128.761 23.036C127.501 23.036 126.481 22.712 125.701 22.064C124.921 21.416 124.447 20.552 124.279 19.472H125.881C126.037 20.156 126.367 20.69 126.871 21.074C127.375 21.458 128.011 21.65 128.779 21.65C129.727 21.65 130.441 21.368 130.921 20.804C131.401 20.228 131.641 19.472 131.641 18.536C131.641 17.6 131.401 16.88 130.921 16.376C130.441 15.86 129.733 15.602 128.797 15.602C128.161 15.602 127.603 15.758 127.123 16.07C126.655 16.37 126.313 16.784 126.097 17.312H124.549V9.968H132.379V11.408ZM137.49 19.508C137.61 20.192 137.886 20.72 138.318 21.092C138.762 21.464 139.356 21.65 140.1 21.65C141.096 21.65 141.828 21.26 142.296 20.48C142.776 19.7 143.004 18.386 142.98 16.538C142.728 17.078 142.308 17.504 141.72 17.816C141.132 18.116 140.478 18.266 139.758 18.266C138.954 18.266 138.234 18.104 137.598 17.78C136.974 17.444 136.482 16.958 136.122 16.322C135.762 15.686 135.582 14.918 135.582 14.018C135.582 12.734 135.954 11.702 136.698 10.922C137.442 10.13 138.498 9.734 139.866 9.734C141.546 9.734 142.722 10.28 143.394 11.372C144.078 12.464 144.42 14.09 144.42 16.25C144.42 17.762 144.282 19.01 144.006 19.994C143.742 20.978 143.286 21.728 142.638 22.244C142.002 22.76 141.126 23.018 140.01 23.018C138.786 23.018 137.832 22.688 137.148 22.028C136.464 21.368 136.074 20.528 135.978 19.508H137.49ZM140.028 16.88C140.832 16.88 141.492 16.634 142.008 16.142C142.524 15.638 142.782 14.96 142.782 14.108C142.782 13.208 142.53 12.482 142.026 11.93C141.522 11.378 140.814 11.102 139.902 11.102C139.062 11.102 138.39 11.366 137.886 11.894C137.394 12.422 137.148 13.118 137.148 13.982C137.148 14.858 137.394 15.56 137.886 16.088C138.378 16.616 139.092 16.88 140.028 16.88ZM158.396 23L155.408 17.87H153.428V23H151.79V10.454H155.84C156.788 10.454 157.586 10.616 158.234 10.94C158.894 11.264 159.386 11.702 159.71 12.254C160.034 12.806 160.196 13.436 160.196 14.144C160.196 15.008 159.944 15.77 159.44 16.43C158.948 17.09 158.204 17.528 157.208 17.744L160.358 23H158.396ZM153.428 16.556H155.84C156.728 16.556 157.394 16.34 157.838 15.908C158.282 15.464 158.504 14.876 158.504 14.144C158.504 13.4 158.282 12.824 157.838 12.416C157.406 12.008 156.74 11.804 155.84 11.804H153.428V16.556ZM171.741 17.69C171.741 18.002 171.723 18.332 171.687 18.68H163.803C163.863 19.652 164.193 20.414 164.793 20.966C165.405 21.506 166.143 21.776 167.007 21.776C167.715 21.776 168.303 21.614 168.771 21.29C169.251 20.954 169.587 20.51 169.779 19.958H171.543C171.279 20.906 170.751 21.68 169.959 22.28C169.167 22.868 168.183 23.162 167.007 23.162C166.071 23.162 165.231 22.952 164.487 22.532C163.755 22.112 163.179 21.518 162.759 20.75C162.339 19.97 162.129 19.07 162.129 18.05C162.129 17.03 162.333 16.136 162.741 15.368C163.149 14.6 163.719 14.012 164.451 13.604C165.195 13.184 166.047 12.974 167.007 12.974C167.943 12.974 168.771 13.178 169.491 13.586C170.211 13.994 170.763 14.558 171.147 15.278C171.543 15.986 171.741 16.79 171.741 17.69ZM170.049 17.348C170.049 16.724 169.911 16.19 169.635 15.746C169.359 15.29 168.981 14.948 168.501 14.72C168.033 14.48 167.511 14.36 166.935 14.36C166.107 14.36 165.399 14.624 164.811 15.152C164.235 15.68 163.905 16.412 163.821 17.348H170.049ZM177.576 21.488L180.636 13.136H182.382L178.512 23H176.604L172.734 13.136H174.498L177.576 21.488ZM184.839 11.534C184.527 11.534 184.263 11.426 184.047 11.21C183.831 10.994 183.723 10.73 183.723 10.418C183.723 10.106 183.831 9.842 184.047 9.626C184.263 9.41 184.527 9.302 184.839 9.302C185.139 9.302 185.391 9.41 185.595 9.626C185.811 9.842 185.919 10.106 185.919 10.418C185.919 10.73 185.811 10.994 185.595 11.21C185.391 11.426 185.139 11.534 184.839 11.534ZM185.631 13.136V23H183.993V13.136H185.631ZM197.423 17.69C197.423 18.002 197.405 18.332 197.369 18.68H189.485C189.545 19.652 189.875 20.414 190.475 20.966C191.087 21.506 191.825 21.776 192.689 21.776C193.397 21.776 193.985 21.614 194.453 21.29C194.933 20.954 195.269 20.51 195.461 19.958H197.225C196.961 20.906 196.433 21.68 195.641 22.28C194.849 22.868 193.865 23.162 192.689 23.162C191.753 23.162 190.913 22.952 190.169 22.532C189.437 22.112 188.861 21.518 188.441 20.75C188.021 19.97 187.811 19.07 187.811 18.05C187.811 17.03 188.015 16.136 188.423 15.368C188.831 14.6 189.401 14.012 190.133 13.604C190.877 13.184 191.729 12.974 192.689 12.974C193.625 12.974 194.453 13.178 195.173 13.586C195.893 13.994 196.445 14.558 196.829 15.278C197.225 15.986 197.423 16.79 197.423 17.69ZM195.731 17.348C195.731 16.724 195.593 16.19 195.317 15.746C195.041 15.29 194.663 14.948 194.183 14.72C193.715 14.48 193.193 14.36 192.617 14.36C191.789 14.36 191.081 14.624 190.493 15.152C189.917 15.68 189.587 16.412 189.503 17.348H195.731ZM212.725 13.136L209.647 23H207.955L205.579 15.17L203.203 23H201.511L198.415 13.136H200.089L202.357 21.416L204.805 13.136H206.479L208.873 21.434L211.105 13.136H212.725ZM217.843 23.162C217.087 23.162 216.409 23.036 215.809 22.784C215.209 22.52 214.735 22.16 214.387 21.704C214.039 21.236 213.847 20.702 213.811 20.102H215.503C215.551 20.594 215.779 20.996 216.187 21.308C216.607 21.62 217.153 21.776 217.825 21.776C218.449 21.776 218.941 21.638 219.301 21.362C219.661 21.086 219.841 20.738 219.841 20.318C219.841 19.886 219.649 19.568 219.265 19.364C218.881 19.148 218.287 18.938 217.483 18.734C216.751 18.542 216.151 18.35 215.683 18.158C215.227 17.954 214.831 17.66 214.495 17.276C214.171 16.88 214.009 16.364 214.009 15.728C214.009 15.224 214.159 14.762 214.459 14.342C214.759 13.922 215.185 13.592 215.737 13.352C216.289 13.1 216.919 12.974 217.627 12.974C218.719 12.974 219.601 13.25 220.273 13.802C220.945 14.354 221.305 15.11 221.353 16.07H219.715C219.679 15.554 219.469 15.14 219.085 14.828C218.713 14.516 218.209 14.36 217.573 14.36C216.985 14.36 216.517 14.486 216.169 14.738C215.821 14.99 215.647 15.32 215.647 15.728C215.647 16.052 215.749 16.322 215.953 16.538C216.169 16.742 216.433 16.91 216.745 17.042C217.069 17.162 217.513 17.3 218.077 17.456C218.785 17.648 219.361 17.84 219.805 18.032C220.249 18.212 220.627 18.488 220.939 18.86C221.263 19.232 221.431 19.718 221.443 20.318C221.443 20.858 221.293 21.344 220.993 21.776C220.693 22.208 220.267 22.55 219.715 22.802C219.175 23.042 218.551 23.162 217.843 23.162Z" fill="#565656"/>
<path d="M245 13.5L240 19.5L235 13.5" stroke="black" stroke-width="2"/>
<g clip-path="url(#clip0_3306_51190)">
<path d="M305.332 18.3333C305.332 18.3333 300.999 18.6667 298.665 16C296.332 13.3333 296.332 5.33333 296.332 5.33333C296.332 5.33333 304.332 5 306.999 7C309.665 8.99999 308.999 14.6667 308.999 14.6667" stroke="#4C9839" stroke-linecap="round" stroke-linejoin="round"/>
<path d="M309.665 18.6663C309.665 18.6663 305.939 15.8502 303.665 13.333C301.392 10.8158 300.332 8.33301 300.332 8.33301" stroke="#4C9839" stroke-linecap="round" stroke-linejoin="round"/>
<path d="M303.668 13.3333L304.001 9" stroke="#4C9839" stroke-linecap="round" stroke-linejoin="round"/>
<path d="M303.665 13.3333L300.332 13" stroke="#4C9839" stroke-linecap="round" stroke-linejoin="round"/>
</g>
<path d="M324.364 23.126C323.536 23.126 322.792 22.982 322.132 22.694C321.484 22.394 320.974 21.986 320.602 21.47C320.23 20.942 320.038 20.336 320.026 19.652H321.772C321.832 20.24 322.072 20.738 322.492 21.146C322.924 21.542 323.548 21.74 324.364 21.74C325.144 21.74 325.756 21.548 326.2 21.164C326.656 20.768 326.884 20.264 326.884 19.652C326.884 19.172 326.752 18.782 326.488 18.482C326.224 18.182 325.894 17.954 325.498 17.798C325.102 17.642 324.568 17.474 323.896 17.294C323.068 17.078 322.402 16.862 321.898 16.646C321.406 16.43 320.98 16.094 320.62 15.638C320.272 15.17 320.098 14.546 320.098 13.766C320.098 13.082 320.272 12.476 320.62 11.948C320.968 11.42 321.454 11.012 322.078 10.724C322.714 10.436 323.44 10.292 324.256 10.292C325.432 10.292 326.392 10.586 327.136 11.174C327.892 11.762 328.318 12.542 328.414 13.514H326.614C326.554 13.034 326.302 12.614 325.858 12.254C325.414 11.882 324.826 11.696 324.094 11.696C323.41 11.696 322.852 11.876 322.42 12.236C321.988 12.584 321.772 13.076 321.772 13.712C321.772 14.168 321.898 14.54 322.15 14.828C322.414 15.116 322.732 15.338 323.104 15.494C323.488 15.638 324.022 15.806 324.706 15.998C325.534 16.226 326.2 16.454 326.704 16.682C327.208 16.898 327.64 17.24 328 17.708C328.36 18.164 328.54 18.788 328.54 19.58C328.54 20.192 328.378 20.768 328.054 21.308C327.73 21.848 327.25 22.286 326.614 22.622C325.978 22.958 325.228 23.126 324.364 23.126ZM339.698 13.136V23H338.06V21.542C337.748 22.046 337.31 22.442 336.746 22.73C336.194 23.006 335.582 23.144 334.91 23.144C334.142 23.144 333.452 22.988 332.84 22.676C332.228 22.352 331.742 21.872 331.382 21.236C331.034 20.6 330.86 19.826 330.86 18.914V13.136H332.48V18.698C332.48 19.67 332.726 20.42 333.218 20.948C333.71 21.464 334.382 21.722 335.234 21.722C336.11 21.722 336.8 21.452 337.304 20.912C337.808 20.372 338.06 19.586 338.06 18.554V13.136H339.698ZM345.956 23.162C345.2 23.162 344.522 23.036 343.922 22.784C343.322 22.52 342.848 22.16 342.5 21.704C342.152 21.236 341.96 20.702 341.924 20.102H343.616C343.664 20.594 343.892 20.996 344.3 21.308C344.72 21.62 345.266 21.776 345.938 21.776C346.562 21.776 347.054 21.638 347.414 21.362C347.774 21.086 347.954 20.738 347.954 20.318C347.954 19.886 347.762 19.568 347.378 19.364C346.994 19.148 346.4 18.938 345.596 18.734C344.864 18.542 344.264 18.35 343.796 18.158C343.34 17.954 342.944 17.66 342.608 17.276C342.284 16.88 342.122 16.364 342.122 15.728C342.122 15.224 342.272 14.762 342.572 14.342C342.872 13.922 343.298 13.592 343.85 13.352C344.402 13.1 345.032 12.974 345.74 12.974C346.832 12.974 347.714 13.25 348.386 13.802C349.058 14.354 349.418 15.11 349.466 16.07H347.828C347.792 15.554 347.582 15.14 347.198 14.828C346.826 14.516 346.322 14.36 345.686 14.36C345.098 14.36 344.63 14.486 344.282 14.738C343.934 14.99 343.76 15.32 343.76 15.728C343.76 16.052 343.862 16.322 344.066 16.538C344.282 16.742 344.546 16.91 344.858 17.042C345.182 17.162 345.626 17.3 346.19 17.456C346.898 17.648 347.474 17.84 347.918 18.032C348.362 18.212 348.74 18.488 349.052 18.86C349.376 19.232 349.544 19.718 349.556 20.318C349.556 20.858 349.406 21.344 349.106 21.776C348.806 22.208 348.38 22.55 347.828 22.802C347.288 23.042 346.664 23.162 345.956 23.162ZM353.866 14.486V20.3C353.866 20.78 353.968 21.122 354.172 21.326C354.376 21.518 354.73 21.614 355.234 21.614H356.44V23H354.964C354.052 23 353.368 22.79 352.912 22.37C352.456 21.95 352.228 21.26 352.228 20.3V14.486H350.95V13.136H352.228V10.652H353.866V13.136H356.44V14.486H353.866ZM357.813 18.032C357.813 17.024 358.017 16.142 358.425 15.386C358.833 14.618 359.391 14.024 360.099 13.604C360.819 13.184 361.617 12.974 362.493 12.974C363.357 12.974 364.107 13.16 364.743 13.532C365.379 13.904 365.853 14.372 366.165 14.936V13.136H367.821V23H366.165V21.164C365.841 21.74 365.355 22.22 364.707 22.604C364.071 22.976 363.327 23.162 362.475 23.162C361.599 23.162 360.807 22.946 360.099 22.514C359.391 22.082 358.833 21.476 358.425 20.696C358.017 19.916 357.813 19.028 357.813 18.032ZM366.165 18.05C366.165 17.306 366.015 16.658 365.715 16.106C365.415 15.554 365.007 15.134 364.491 14.846C363.987 14.546 363.429 14.396 362.817 14.396C362.205 14.396 361.647 14.54 361.143 14.828C360.639 15.116 360.237 15.536 359.937 16.088C359.637 16.64 359.487 17.288 359.487 18.032C359.487 18.788 359.637 19.448 359.937 20.012C360.237 20.564 360.639 20.99 361.143 21.29C361.647 21.578 362.205 21.722 362.817 21.722C363.429 21.722 363.987 21.578 364.491 21.29C365.007 20.99 365.415 20.564 365.715 20.012C366.015 19.448 366.165 18.794 366.165 18.05ZM371.435 11.534C371.123 11.534 370.859 11.426 370.643 11.21C370.427 10.994 370.319 10.73 370.319 10.418C370.319 10.106 370.427 9.842 370.643 9.626C370.859 9.41 371.123 9.302 371.435 9.302C371.735 9.302 371.987 9.41 372.191 9.626C372.407 9.842 372.515 10.106 372.515 10.418C372.515 10.73 372.407 10.994 372.191 11.21C371.987 11.426 371.735 11.534 371.435 11.534ZM372.227 13.136V23H370.589V13.136H372.227ZM379.825 12.956C381.025 12.956 381.997 13.322 382.741 14.054C383.485 14.774 383.857 15.818 383.857 17.186V23H382.237V17.42C382.237 16.436 381.991 15.686 381.499 15.17C381.007 14.642 380.335 14.378 379.483 14.378C378.619 14.378 377.929 14.648 377.413 15.188C376.909 15.728 376.657 16.514 376.657 17.546V23H375.019V13.136H376.657V14.54C376.981 14.036 377.419 13.646 377.971 13.37C378.535 13.094 379.153 12.956 379.825 12.956ZM385.92 18.032C385.92 17.024 386.124 16.142 386.532 15.386C386.94 14.618 387.498 14.024 388.206 13.604C388.926 13.184 389.724 12.974 390.6 12.974C391.464 12.974 392.214 13.16 392.85 13.532C393.486 13.904 393.96 14.372 394.272 14.936V13.136H395.928V23H394.272V21.164C393.948 21.74 393.462 22.22 392.814 22.604C392.178 22.976 391.434 23.162 390.582 23.162C389.706 23.162 388.914 22.946 388.206 22.514C387.498 22.082 386.94 21.476 386.532 20.696C386.124 19.916 385.92 19.028 385.92 18.032ZM394.272 18.05C394.272 17.306 394.122 16.658 393.822 16.106C393.522 15.554 393.114 15.134 392.598 14.846C392.094 14.546 391.536 14.396 390.924 14.396C390.312 14.396 389.754 14.54 389.25 14.828C388.746 15.116 388.344 15.536 388.044 16.088C387.744 16.64 387.594 17.288 387.594 18.032C387.594 18.788 387.744 19.448 388.044 20.012C388.344 20.564 388.746 20.99 389.25 21.29C389.754 21.578 390.312 21.722 390.924 21.722C391.536 21.722 392.094 21.578 392.598 21.29C393.114 20.99 393.522 20.564 393.822 20.012C394.122 19.448 394.272 18.794 394.272 18.05ZM400.335 14.972C400.671 14.384 401.163 13.904 401.811 13.532C402.459 13.16 403.197 12.974 404.025 12.974C404.913 12.974 405.711 13.184 406.419 13.604C407.127 14.024 407.685 14.618 408.093 15.386C408.501 16.142 408.705 17.024 408.705 18.032C408.705 19.028 408.501 19.916 408.093 20.696C407.685 21.476 407.121 22.082 406.401 22.514C405.693 22.946 404.901 23.162 404.025 23.162C403.173 23.162 402.423 22.976 401.775 22.604C401.139 22.232 400.659 21.758 400.335 21.182V23H398.697V9.68H400.335V14.972ZM407.031 18.032C407.031 17.288 406.881 16.64 406.581 16.088C406.281 15.536 405.873 15.116 405.357 14.828C404.853 14.54 404.295 14.396 403.683 14.396C403.083 14.396 402.525 14.546 402.009 14.846C401.505 15.134 401.097 15.56 400.785 16.124C400.485 16.676 400.335 17.318 400.335 18.05C400.335 18.794 400.485 19.448 400.785 20.012C401.097 20.564 401.505 20.99 402.009 21.29C402.525 21.578 403.083 21.722 403.683 21.722C404.295 21.722 404.853 21.578 405.357 21.29C405.873 20.99 406.281 20.564 406.581 20.012C406.881 19.448 407.031 18.788 407.031 18.032ZM411.707 11.534C411.395 11.534 411.131 11.426 410.915 11.21C410.699 10.994 410.591 10.73 410.591 10.418C410.591 10.106 410.699 9.842 410.915 9.626C411.131 9.41 411.395 9.302 411.707 9.302C412.007 9.302 412.259 9.41 412.463 9.626C412.679 9.842 412.787 10.106 412.787 10.418C412.787 10.73 412.679 10.994 412.463 11.21C412.259 11.426 412.007 11.534 411.707 11.534ZM412.499 13.136V23H410.861V13.136H412.499ZM416.928 9.68V23H415.29V9.68H416.928ZM420.566 11.534C420.254 11.534 419.99 11.426 419.774 11.21C419.558 10.994 419.45 10.73 419.45 10.418C419.45 10.106 419.558 9.842 419.774 9.626C419.99 9.41 420.254 9.302 420.566 9.302C420.866 9.302 421.118 9.41 421.322 9.626C421.538 9.842 421.646 10.106 421.646 10.418C421.646 10.73 421.538 10.994 421.322 11.21C421.118 11.426 420.866 11.534 420.566 11.534ZM421.358 13.136V23H419.72V13.136H421.358ZM426.148 14.486V20.3C426.148 20.78 426.25 21.122 426.454 21.326C426.658 21.518 427.012 21.614 427.516 21.614H428.722V23H427.246C426.334 23 425.65 22.79 425.194 22.37C424.738 21.95 424.51 21.26 424.51 20.3V14.486H423.232V13.136H424.51V10.652H426.148V13.136H428.722V14.486H426.148ZM439.202 13.136L433.262 27.644H431.57L433.514 22.892L429.536 13.136H431.354L434.45 21.128L437.51 13.136H439.202ZM447.286 21.668H451.678V23H445.648V10.454H447.286V21.668ZM462.417 17.69C462.417 18.002 462.399 18.332 462.363 18.68H454.479C454.539 19.652 454.869 20.414 455.469 20.966C456.081 21.506 456.819 21.776 457.683 21.776C458.391 21.776 458.979 21.614 459.447 21.29C459.927 20.954 460.263 20.51 460.455 19.958H462.219C461.955 20.906 461.427 21.68 460.635 22.28C459.843 22.868 458.859 23.162 457.683 23.162C456.747 23.162 455.907 22.952 455.163 22.532C454.431 22.112 453.855 21.518 453.435 20.75C453.015 19.97 452.805 19.07 452.805 18.05C452.805 17.03 453.009 16.136 453.417 15.368C453.825 14.6 454.395 14.012 455.127 13.604C455.871 13.184 456.723 12.974 457.683 12.974C458.619 12.974 459.447 13.178 460.167 13.586C460.887 13.994 461.439 14.558 461.823 15.278C462.219 15.986 462.417 16.79 462.417 17.69ZM460.725 17.348C460.725 16.724 460.587 16.19 460.311 15.746C460.035 15.29 459.657 14.948 459.177 14.72C458.709 14.48 458.187 14.36 457.611 14.36C456.783 14.36 456.075 14.624 455.487 15.152C454.911 15.68 454.581 16.412 454.497 17.348H460.725ZM468.251 21.488L471.311 13.136H473.057L469.187 23H467.279L463.409 13.136H465.173L468.251 21.488ZM483.669 17.69C483.669 18.002 483.651 18.332 483.615 18.68H475.731C475.791 19.652 476.121 20.414 476.721 20.966C477.333 21.506 478.071 21.776 478.935 21.776C479.643 21.776 480.231 21.614 480.699 21.29C481.179 20.954 481.515 20.51 481.707 19.958H483.471C483.207 20.906 482.679 21.68 481.887 22.28C481.095 22.868 480.111 23.162 478.935 23.162C477.999 23.162 477.159 22.952 476.415 22.532C475.683 22.112 475.107 21.518 474.687 20.75C474.267 19.97 474.057 19.07 474.057 18.05C474.057 17.03 474.261 16.136 474.669 15.368C475.077 14.6 475.647 14.012 476.379 13.604C477.123 13.184 477.975 12.974 478.935 12.974C479.871 12.974 480.699 13.178 481.419 13.586C482.139 13.994 482.691 14.558 483.075 15.278C483.471 15.986 483.669 16.79 483.669 17.69ZM481.977 17.348C481.977 16.724 481.839 16.19 481.563 15.746C481.287 15.29 480.909 14.948 480.429 14.72C479.961 14.48 479.439 14.36 478.863 14.36C478.035 14.36 477.327 14.624 476.739 15.152C476.163 15.68 475.833 16.412 475.749 17.348H481.977ZM487.469 9.68V23H485.831V9.68H487.469Z" fill="black"/>
<path d="M511 13.5L506 19.5L501 13.5" stroke="black" stroke-width="2"/>
<defs>
<clipPath id="clip0_3306_51190">
<rect width="16" height="16" fill="white" transform="translate(295 4)"/>
</clipPath>
</defs>
</svg>
