<svg width="116" height="18" viewBox="0 0 116 18" fill="none" xmlns="http://www.w3.org/2000/svg">
<path d="M9.6755 9.736C9.6755 10.3227 9.52083 10.8667 9.2115 11.368C8.91283 11.8587 8.46483 12.264 7.8675 12.584C7.28083 12.8933 6.58217 13.064 5.7715 13.096V14.392H4.7475V13.08C3.61683 12.984 2.70483 12.648 2.0115 12.072C1.31817 11.4853 0.950167 10.6907 0.9075 9.688H3.8195C3.8835 10.328 4.19283 10.7387 4.7475 10.92V8.392C3.9155 8.17867 3.24883 7.97067 2.7475 7.768C2.25683 7.56533 1.82483 7.24 1.4515 6.792C1.07817 6.344 0.8915 5.73067 0.8915 4.952C0.8915 3.98133 1.24883 3.20267 1.9635 2.616C2.68883 2.02933 3.61683 1.69867 4.7475 1.624V0.327999H5.7715V1.624C6.8915 1.70933 7.77683 2.03467 8.4275 2.6C9.07817 3.16533 9.44083 3.94933 9.5155 4.952H6.5875C6.5235 4.376 6.2515 4.00267 5.7715 3.832V6.312C6.65683 6.55733 7.3395 6.776 7.8195 6.968C8.2995 7.16 8.72617 7.48 9.0995 7.928C9.4835 8.36533 9.6755 8.968 9.6755 9.736ZM3.7875 4.824C3.7875 5.09067 3.8675 5.31467 4.0275 5.496C4.19817 5.67733 4.43817 5.83733 4.7475 5.976V3.752C4.44883 3.80533 4.21417 3.92267 4.0435 4.104C3.87283 4.27467 3.7875 4.51467 3.7875 4.824ZM5.7715 10.968C6.0915 10.9147 6.34217 10.7867 6.5235 10.584C6.7155 10.3813 6.8115 10.1307 6.8115 9.832C6.8115 9.55467 6.72083 9.33067 6.5395 9.16C6.36883 8.97867 6.11283 8.824 5.7715 8.696V10.968ZM14.3828 9.576C14.5428 10.4187 15.0334 10.84 15.8548 10.84C16.4201 10.84 16.8201 10.5893 17.0548 10.088C17.2894 9.58667 17.4068 8.77067 17.4068 7.64C17.1721 7.97067 16.8521 8.22667 16.4468 8.408C16.0414 8.58933 15.5881 8.68 15.0868 8.68C14.4041 8.68 13.7961 8.54133 13.2628 8.264C12.7294 7.976 12.3081 7.55467 11.9988 7C11.7001 6.43467 11.5508 5.752 11.5508 4.952C11.5508 4.16267 11.7108 3.47467 12.0308 2.888C12.3614 2.30133 12.8254 1.848 13.4228 1.528C14.0308 1.208 14.7454 1.048 15.5668 1.048C17.1454 1.048 18.2494 1.53867 18.8788 2.52C19.5081 3.50133 19.8228 4.94667 19.8228 6.856C19.8228 8.24267 19.6948 9.38933 19.4388 10.296C19.1934 11.192 18.7721 11.8747 18.1748 12.344C17.5881 12.8133 16.7828 13.048 15.7588 13.048C14.9481 13.048 14.2548 12.888 13.6788 12.568C13.1134 12.248 12.6761 11.8267 12.3668 11.304C12.0681 10.7813 11.8974 10.2053 11.8548 9.576H14.3828ZM15.7108 6.52C16.1588 6.52 16.5161 6.38667 16.7828 6.12C17.0494 5.84267 17.1828 5.46933 17.1828 5C17.1828 4.488 17.0441 4.09333 16.7668 3.816C16.4894 3.53867 16.1161 3.4 15.6468 3.4C15.1774 3.4 14.8041 3.544 14.5268 3.832C14.2601 4.10933 14.1268 4.49333 14.1268 4.984C14.1268 5.44267 14.2601 5.816 14.5268 6.104C14.8041 6.38133 15.1988 6.52 15.7108 6.52ZM27.0585 4.472C26.9732 4.07733 26.8238 3.784 26.6105 3.592C26.3972 3.38933 26.0932 3.288 25.6985 3.288C25.0905 3.288 24.6532 3.55467 24.3865 4.088C24.1198 4.61067 23.9812 5.44267 23.9705 6.584C24.2052 6.21067 24.5412 5.91733 24.9785 5.704C25.4265 5.49067 25.9172 5.384 26.4505 5.384C27.4958 5.384 28.3332 5.71467 28.9625 6.376C29.6025 7.03733 29.9225 7.96 29.9225 9.144C29.9225 9.92267 29.7625 10.6053 29.4425 11.192C29.1332 11.7787 28.6745 12.2373 28.0665 12.568C27.4692 12.8987 26.7598 13.064 25.9385 13.064C24.2958 13.064 23.1545 12.552 22.5145 11.528C21.8745 10.4933 21.5545 9.01067 21.5545 7.08C21.5545 5.05333 21.8905 3.54933 22.5625 2.568C23.2452 1.576 24.3332 1.08 25.8265 1.08C26.6265 1.08 27.2985 1.24 27.8425 1.56C28.3972 1.86933 28.8132 2.28 29.0905 2.792C29.3785 3.304 29.5492 3.864 29.6025 4.472H27.0585ZM25.7945 7.544C25.3358 7.544 24.9518 7.68267 24.6425 7.96C24.3438 8.22667 24.1945 8.61067 24.1945 9.112C24.1945 9.624 24.3332 10.024 24.6105 10.312C24.8985 10.6 25.3038 10.744 25.8265 10.744C26.2958 10.744 26.6638 10.6053 26.9305 10.328C27.2078 10.04 27.3465 9.65067 27.3465 9.16C27.3465 8.65867 27.2132 8.264 26.9465 7.976C26.6798 7.688 26.2958 7.544 25.7945 7.544ZM31.47 7C31.47 5.16533 31.822 3.72 32.526 2.664C33.2407 1.608 34.3873 1.08 35.966 1.08C37.5447 1.08 38.686 1.608 39.39 2.664C40.1047 3.72 40.462 5.16533 40.462 7C40.462 8.856 40.1047 10.312 39.39 11.368C38.686 12.424 37.5447 12.952 35.966 12.952C34.3873 12.952 33.2407 12.424 32.526 11.368C31.822 10.312 31.47 8.856 31.47 7ZM37.774 7C37.774 5.92267 37.6567 5.096 37.422 4.52C37.1873 3.93333 36.702 3.64 35.966 3.64C35.23 3.64 34.7447 3.93333 34.51 4.52C34.2753 5.096 34.158 5.92267 34.158 7C34.158 7.72533 34.2007 8.328 34.286 8.808C34.3713 9.27733 34.542 9.66133 34.798 9.96C35.0647 10.248 35.454 10.392 35.966 10.392C36.478 10.392 36.862 10.248 37.118 9.96C37.3847 9.66133 37.5607 9.27733 37.646 8.808C37.7313 8.328 37.774 7.72533 37.774 7Z" fill="black"/>
<path d="M48.7528 10.92V8.712L53.8088 1.48H56.8648V8.552H58.1768V10.92H56.8648V13H54.1288V10.92H48.7528ZM54.3208 4.488L51.6328 8.552H54.3208V4.488ZM73.2275 13H70.4915L65.9155 6.072V13H63.1795V1.768H65.9155L70.4915 8.728V1.768H73.2275V13ZM76.5868 3.144C76.1068 3.144 75.7121 3.00533 75.4028 2.728C75.1041 2.44 74.9548 2.088 74.9548 1.672C74.9548 1.24533 75.1041 0.893333 75.4028 0.615999C75.7121 0.327999 76.1068 0.183999 76.5868 0.183999C77.0561 0.183999 77.4401 0.327999 77.7388 0.615999C78.0481 0.893333 78.2028 1.24533 78.2028 1.672C78.2028 2.088 78.0481 2.44 77.7388 2.728C77.4401 3.00533 77.0561 3.144 76.5868 3.144ZM77.9468 4.072V13H75.2108V4.072H77.9468ZM83.3215 3.944C83.9508 3.944 84.5002 4.072 84.9695 4.328C85.4495 4.584 85.8175 4.92 86.0735 5.336V4.072H88.8095V12.984C88.8095 13.8053 88.6442 14.5467 88.3135 15.208C87.9935 15.88 87.4975 16.4133 86.8255 16.808C86.1642 17.2027 85.3375 17.4 84.3455 17.4C83.0228 17.4 81.9508 17.0853 81.1295 16.456C80.3082 15.8373 79.8388 14.9947 79.7215 13.928H82.4255C82.5108 14.2693 82.7135 14.536 83.0335 14.728C83.3535 14.9307 83.7482 15.032 84.2175 15.032C84.7828 15.032 85.2308 14.8667 85.5615 14.536C85.9028 14.216 86.0735 13.6987 86.0735 12.984V11.72C85.8068 12.136 85.4388 12.4773 84.9695 12.744C84.5002 13 83.9508 13.128 83.3215 13.128C82.5855 13.128 81.9188 12.9413 81.3215 12.568C80.7242 12.184 80.2495 11.6453 79.8975 10.952C79.5562 10.248 79.3855 9.43733 79.3855 8.52C79.3855 7.60267 79.5562 6.79733 79.8975 6.104C80.2495 5.41067 80.7242 4.87733 81.3215 4.504C81.9188 4.13067 82.5855 3.944 83.3215 3.944ZM86.0735 8.536C86.0735 7.85333 85.8815 7.31467 85.4975 6.92C85.1242 6.52533 84.6655 6.328 84.1215 6.328C83.5775 6.328 83.1135 6.52533 82.7295 6.92C82.3562 7.304 82.1695 7.83733 82.1695 8.52C82.1695 9.20267 82.3562 9.74667 82.7295 10.152C83.1135 10.5467 83.5775 10.744 84.1215 10.744C84.6655 10.744 85.1242 10.5467 85.4975 10.152C85.8815 9.75733 86.0735 9.21867 86.0735 8.536ZM96.2769 3.976C97.3009 3.976 98.1222 4.31733 98.7409 5C99.3595 5.672 99.6689 6.6 99.6689 7.784V13H96.9489V8.152C96.9489 7.55467 96.7942 7.09067 96.4849 6.76C96.1755 6.42933 95.7595 6.264 95.2369 6.264C94.7142 6.264 94.2982 6.42933 93.9889 6.76C93.6795 7.09067 93.5249 7.55467 93.5249 8.152V13H90.7889V1.16H93.5249V5.272C93.8022 4.87733 94.1809 4.56267 94.6609 4.328C95.1409 4.09333 95.6795 3.976 96.2769 3.976ZM106.546 10.68V13H105.154C104.162 13 103.389 12.76 102.834 12.28C102.279 11.7893 102.002 10.9947 102.002 9.896V6.344H100.914V4.072H102.002V1.896H104.738V4.072H106.53V6.344H104.738V9.928C104.738 10.1947 104.802 10.3867 104.93 10.504C105.058 10.6213 105.271 10.68 105.57 10.68H106.546ZM111.702 13.128C110.923 13.128 110.23 12.9947 109.622 12.728C109.014 12.4613 108.534 12.0987 108.182 11.64C107.83 11.1707 107.633 10.648 107.59 10.072H110.294C110.326 10.3813 110.47 10.632 110.726 10.824C110.982 11.016 111.297 11.112 111.67 11.112C112.011 11.112 112.273 11.048 112.454 10.92C112.646 10.7813 112.742 10.6053 112.742 10.392C112.742 10.136 112.609 9.94933 112.342 9.832C112.075 9.704 111.643 9.56533 111.046 9.416C110.406 9.26667 109.873 9.112 109.446 8.952C109.019 8.78133 108.651 8.52 108.342 8.168C108.033 7.80533 107.878 7.32 107.878 6.712C107.878 6.2 108.017 5.736 108.294 5.32C108.582 4.89333 108.998 4.55733 109.542 4.312C110.097 4.06667 110.753 3.944 111.51 3.944C112.63 3.944 113.51 4.22133 114.15 4.776C114.801 5.33067 115.174 6.06667 115.27 6.984H112.742C112.699 6.67467 112.561 6.42933 112.326 6.248C112.102 6.06667 111.803 5.976 111.43 5.976C111.11 5.976 110.865 6.04 110.694 6.168C110.523 6.28533 110.438 6.45067 110.438 6.664C110.438 6.92 110.571 7.112 110.838 7.24C111.115 7.368 111.542 7.496 112.118 7.624C112.779 7.79467 113.318 7.96533 113.734 8.136C114.15 8.296 114.513 8.56267 114.822 8.936C115.142 9.29867 115.307 9.78933 115.318 10.408C115.318 10.9307 115.169 11.4 114.87 11.816C114.582 12.2213 114.161 12.5413 113.606 12.776C113.062 13.0107 112.427 13.128 111.702 13.128Z" fill="#565656"/>
</svg>
