<svg width="515" height="33" viewBox="0 0 515 33" fill="none" xmlns="http://www.w3.org/2000/svg">
<mask id="path-1-inside-1_2882_23783" fill="white">
<path d="M0 0H515V33H0V0Z"/>
</mask>
<path d="M515 31H0V35H515V31Z" fill="#D9D9D9" mask="url(#path-1-inside-1_2882_23783)"/>
<path d="M29.8971 19.562C29.8971 20.138 29.7531 20.69 29.4651 21.218C29.1771 21.734 28.7511 22.166 28.1871 22.514C27.6351 22.862 26.9691 23.06 26.1891 23.108V24.566H25.2171V23.108C24.1251 23.012 23.2371 22.664 22.5531 22.064C21.8691 21.452 21.5211 20.678 21.5091 19.742H23.2551C23.3031 20.246 23.4891 20.684 23.8131 21.056C24.1491 21.428 24.6171 21.662 25.2171 21.758V17.258C24.4131 17.054 23.7651 16.844 23.2731 16.628C22.7811 16.412 22.3611 16.076 22.0131 15.62C21.6651 15.164 21.4911 14.552 21.4911 13.784C21.4911 12.812 21.8271 12.008 22.4991 11.372C23.1831 10.736 24.0891 10.382 25.2171 10.31V8.816H26.1891V10.31C27.2091 10.394 28.0311 10.724 28.6551 11.3C29.2791 11.864 29.6391 12.602 29.7351 13.514H27.9891C27.9291 13.094 27.7431 12.716 27.4311 12.38C27.1191 12.032 26.7051 11.804 26.1891 11.696V16.088C26.9811 16.292 27.6231 16.502 28.1151 16.718C28.6191 16.922 29.0391 17.252 29.3751 17.708C29.7231 18.164 29.8971 18.782 29.8971 19.562ZM23.1651 13.694C23.1651 14.282 23.3391 14.732 23.6871 15.044C24.0351 15.356 24.5451 15.614 25.2171 15.818V11.66C24.5931 11.72 24.0951 11.924 23.7231 12.272C23.3511 12.608 23.1651 13.082 23.1651 13.694ZM26.1891 21.776C26.8371 21.704 27.3411 21.47 27.7011 21.074C28.0731 20.678 28.2591 20.204 28.2591 19.652C28.2591 19.064 28.0791 18.614 27.7191 18.302C27.3591 17.978 26.8491 17.72 26.1891 17.528V21.776ZM39.8992 16.232C39.2272 15.968 38.7112 15.584 38.3512 15.08C37.9912 14.576 37.8112 13.964 37.8112 13.244C37.8112 12.596 37.9732 12.014 38.2972 11.498C38.6212 10.97 39.1012 10.556 39.7372 10.256C40.3852 9.944 41.1652 9.788 42.0772 9.788C42.9892 9.788 43.7632 9.944 44.3992 10.256C45.0472 10.556 45.5332 10.97 45.8572 11.498C46.1932 12.014 46.3612 12.596 46.3612 13.244C46.3612 13.94 46.1752 14.552 45.8032 15.08C45.4312 15.596 44.9212 15.98 44.2732 16.232C45.0172 16.46 45.6052 16.862 46.0372 17.438C46.4812 18.002 46.7032 18.686 46.7032 19.49C46.7032 20.27 46.5112 20.954 46.1272 21.542C45.7432 22.118 45.1972 22.568 44.4892 22.892C43.7932 23.204 42.9892 23.36 42.0772 23.36C41.1652 23.36 40.3612 23.204 39.6652 22.892C38.9812 22.568 38.4472 22.118 38.0632 21.542C37.6792 20.954 37.4872 20.27 37.4872 19.49C37.4872 18.686 37.7032 17.996 38.1352 17.42C38.5672 16.844 39.1552 16.448 39.8992 16.232ZM44.7772 13.442C44.7772 12.71 44.5372 12.146 44.0572 11.75C43.5772 11.354 42.9172 11.156 42.0772 11.156C41.2492 11.156 40.5952 11.354 40.1152 11.75C39.6352 12.146 39.3952 12.716 39.3952 13.46C39.3952 14.132 39.6412 14.672 40.1332 15.08C40.6372 15.488 41.2852 15.692 42.0772 15.692C42.8812 15.692 43.5292 15.488 44.0212 15.08C44.5252 14.66 44.7772 14.114 44.7772 13.442ZM42.0772 16.952C41.1892 16.952 40.4632 17.162 39.8992 17.582C39.3352 17.99 39.0532 18.608 39.0532 19.436C39.0532 20.204 39.3232 20.822 39.8632 21.29C40.4152 21.758 41.1532 21.992 42.0772 21.992C43.0012 21.992 43.7332 21.758 44.2732 21.29C44.8132 20.822 45.0832 20.204 45.0832 19.436C45.0832 18.632 44.8072 18.02 44.2552 17.6C43.7032 17.168 42.9772 16.952 42.0772 16.952ZM56.8887 11.264L51.8847 23H50.2287L55.3047 11.426H48.3567V10.022H56.8887V11.264Z" fill="#4C9839"/>
<path d="M67.2432 21.686C68.7672 20.462 69.9612 19.46 70.8252 18.68C71.6892 17.888 72.4152 17.066 73.0032 16.214C73.6032 15.35 73.9032 14.504 73.9032 13.676C73.9032 12.896 73.7112 12.284 73.3272 11.84C72.9552 11.384 72.3492 11.156 71.5092 11.156C70.6932 11.156 70.0572 11.414 69.6012 11.93C69.1572 12.434 68.9172 13.112 68.8812 13.964H67.2972C67.3452 12.62 67.7532 11.582 68.5212 10.85C69.2892 10.118 70.2792 9.752 71.4912 9.752C72.7272 9.752 73.7052 10.094 74.4252 10.778C75.1572 11.462 75.5232 12.404 75.5232 13.604C75.5232 14.6 75.2232 15.572 74.6232 16.52C74.0352 17.456 73.3632 18.284 72.6072 19.004C71.8512 19.712 70.8852 20.54 69.7092 21.488H75.9012V22.856H67.2432V21.686ZM90.2795 20.21H84.8075L83.7995 23H82.0715L86.6075 10.526H88.4975L93.0155 23H91.2875L90.2795 20.21ZM89.8115 18.878L87.5435 12.542L85.2755 18.878H89.8115ZM94.3804 18.032C94.3804 17.024 94.5844 16.142 94.9924 15.386C95.4004 14.618 95.9584 14.024 96.6664 13.604C97.3864 13.184 98.1904 12.974 99.0784 12.974C99.8464 12.974 100.56 13.154 101.22 13.514C101.88 13.862 102.384 14.324 102.732 14.9V9.68H104.388V23H102.732V21.146C102.408 21.734 101.928 22.22 101.292 22.604C100.656 22.976 99.9124 23.162 99.0604 23.162C98.1844 23.162 97.3864 22.946 96.6664 22.514C95.9584 22.082 95.4004 21.476 94.9924 20.696C94.5844 19.916 94.3804 19.028 94.3804 18.032ZM102.732 18.05C102.732 17.306 102.582 16.658 102.282 16.106C101.982 15.554 101.574 15.134 101.058 14.846C100.554 14.546 99.9964 14.396 99.3844 14.396C98.7724 14.396 98.2144 14.54 97.7104 14.828C97.2064 15.116 96.8044 15.536 96.5044 16.088C96.2044 16.64 96.0544 17.288 96.0544 18.032C96.0544 18.788 96.2044 19.448 96.5044 20.012C96.8044 20.564 97.2064 20.99 97.7104 21.29C98.2144 21.578 98.7724 21.722 99.3844 21.722C99.9964 21.722 100.554 21.578 101.058 21.29C101.574 20.99 101.982 20.564 102.282 20.012C102.582 19.448 102.732 18.794 102.732 18.05ZM115.905 13.136V23H114.267V21.542C113.955 22.046 113.517 22.442 112.953 22.73C112.401 23.006 111.789 23.144 111.117 23.144C110.349 23.144 109.659 22.988 109.047 22.676C108.435 22.352 107.949 21.872 107.589 21.236C107.241 20.6 107.067 19.826 107.067 18.914V13.136H108.687V18.698C108.687 19.67 108.933 20.42 109.425 20.948C109.917 21.464 110.589 21.722 111.441 21.722C112.317 21.722 113.007 21.452 113.511 20.912C114.015 20.372 114.267 19.586 114.267 18.554V13.136H115.905ZM120.308 9.68V23H118.67V9.68H120.308ZM125.098 14.486V20.3C125.098 20.78 125.2 21.122 125.404 21.326C125.608 21.518 125.962 21.614 126.466 21.614H127.672V23H126.196C125.284 23 124.6 22.79 124.144 22.37C123.688 21.95 123.46 21.26 123.46 20.3V14.486H122.182V13.136H123.46V10.652H125.098V13.136H127.672V14.486H125.098ZM133.149 23.162C132.393 23.162 131.715 23.036 131.115 22.784C130.515 22.52 130.041 22.16 129.693 21.704C129.345 21.236 129.153 20.702 129.117 20.102H130.809C130.857 20.594 131.085 20.996 131.493 21.308C131.913 21.62 132.459 21.776 133.131 21.776C133.755 21.776 134.247 21.638 134.607 21.362C134.967 21.086 135.147 20.738 135.147 20.318C135.147 19.886 134.955 19.568 134.571 19.364C134.187 19.148 133.593 18.938 132.789 18.734C132.057 18.542 131.457 18.35 130.989 18.158C130.533 17.954 130.137 17.66 129.801 17.276C129.477 16.88 129.315 16.364 129.315 15.728C129.315 15.224 129.465 14.762 129.765 14.342C130.065 13.922 130.491 13.592 131.043 13.352C131.595 13.1 132.225 12.974 132.933 12.974C134.025 12.974 134.907 13.25 135.579 13.802C136.251 14.354 136.611 15.11 136.659 16.07H135.021C134.985 15.554 134.775 15.14 134.391 14.828C134.019 14.516 133.515 14.36 132.879 14.36C132.291 14.36 131.823 14.486 131.475 14.738C131.127 14.99 130.953 15.32 130.953 15.728C130.953 16.052 131.055 16.322 131.259 16.538C131.475 16.742 131.739 16.91 132.051 17.042C132.375 17.162 132.819 17.3 133.383 17.456C134.091 17.648 134.667 17.84 135.111 18.032C135.555 18.212 135.933 18.488 136.245 18.86C136.569 19.232 136.737 19.718 136.749 20.318C136.749 20.858 136.599 21.344 136.299 21.776C135.999 22.208 135.573 22.55 135.021 22.802C134.481 23.042 133.857 23.162 133.149 23.162Z" fill="black"/>
<path d="M209.651 19.562C209.651 20.138 209.507 20.69 209.219 21.218C208.931 21.734 208.505 22.166 207.941 22.514C207.389 22.862 206.723 23.06 205.943 23.108V24.566H204.971V23.108C203.879 23.012 202.991 22.664 202.307 22.064C201.623 21.452 201.275 20.678 201.263 19.742H203.009C203.057 20.246 203.243 20.684 203.567 21.056C203.903 21.428 204.371 21.662 204.971 21.758V17.258C204.167 17.054 203.519 16.844 203.027 16.628C202.535 16.412 202.115 16.076 201.767 15.62C201.419 15.164 201.245 14.552 201.245 13.784C201.245 12.812 201.581 12.008 202.253 11.372C202.937 10.736 203.843 10.382 204.971 10.31V8.816H205.943V10.31C206.963 10.394 207.785 10.724 208.409 11.3C209.033 11.864 209.393 12.602 209.489 13.514H207.743C207.683 13.094 207.497 12.716 207.185 12.38C206.873 12.032 206.459 11.804 205.943 11.696V16.088C206.735 16.292 207.377 16.502 207.869 16.718C208.373 16.922 208.793 17.252 209.129 17.708C209.477 18.164 209.651 18.782 209.651 19.562ZM202.919 13.694C202.919 14.282 203.093 14.732 203.441 15.044C203.789 15.356 204.299 15.614 204.971 15.818V11.66C204.347 11.72 203.849 11.924 203.477 12.272C203.105 12.608 202.919 13.082 202.919 13.694ZM205.943 21.776C206.591 21.704 207.095 21.47 207.455 21.074C207.827 20.678 208.013 20.204 208.013 19.652C208.013 19.064 207.833 18.614 207.473 18.302C207.113 17.978 206.603 17.72 205.943 17.528V21.776ZM217.079 21.686C218.603 20.462 219.797 19.46 220.661 18.68C221.525 17.888 222.251 17.066 222.839 16.214C223.439 15.35 223.739 14.504 223.739 13.676C223.739 12.896 223.547 12.284 223.163 11.84C222.791 11.384 222.185 11.156 221.345 11.156C220.529 11.156 219.893 11.414 219.437 11.93C218.993 12.434 218.753 13.112 218.717 13.964H217.133C217.181 12.62 217.589 11.582 218.357 10.85C219.125 10.118 220.115 9.752 221.327 9.752C222.563 9.752 223.541 10.094 224.261 10.778C224.993 11.462 225.359 12.404 225.359 13.604C225.359 14.6 225.059 15.572 224.459 16.52C223.871 17.456 223.199 18.284 222.443 19.004C221.687 19.712 220.721 20.54 219.545 21.488H225.737V22.856H217.079V21.686ZM227.235 20.102V18.86L233.553 10.112H235.515V18.68H237.315V20.102H235.515V23H233.895V20.102H227.235ZM233.967 11.822L229.125 18.68H233.967V11.822Z" fill="#4C9839"/>
<path d="M247.465 13.262C247.549 12.158 247.975 11.294 248.743 10.67C249.511 10.046 250.507 9.734 251.731 9.734C252.547 9.734 253.249 9.884 253.837 10.184C254.437 10.472 254.887 10.868 255.187 11.372C255.499 11.876 255.655 12.446 255.655 13.082C255.655 13.826 255.439 14.468 255.007 15.008C254.587 15.548 254.035 15.896 253.351 16.052V16.142C254.131 16.334 254.749 16.712 255.205 17.276C255.661 17.84 255.889 18.578 255.889 19.49C255.889 20.174 255.733 20.792 255.421 21.344C255.109 21.884 254.641 22.31 254.017 22.622C253.393 22.934 252.643 23.09 251.767 23.09C250.495 23.09 249.451 22.76 248.635 22.1C247.819 21.428 247.363 20.48 247.267 19.256H248.851C248.935 19.976 249.229 20.564 249.733 21.02C250.237 21.476 250.909 21.704 251.749 21.704C252.589 21.704 253.225 21.488 253.657 21.056C254.101 20.612 254.323 20.042 254.323 19.346C254.323 18.446 254.023 17.798 253.423 17.402C252.823 17.006 251.917 16.808 250.705 16.808H250.291V15.44H250.723C251.827 15.428 252.661 15.248 253.225 14.9C253.789 14.54 254.071 13.988 254.071 13.244C254.071 12.608 253.861 12.098 253.441 11.714C253.033 11.33 252.445 11.138 251.677 11.138C250.933 11.138 250.333 11.33 249.877 11.714C249.421 12.098 249.151 12.614 249.067 13.262H247.465ZM262.557 16.718C262.557 15.494 262.833 14.396 263.385 13.424C263.937 12.44 264.687 11.672 265.635 11.12C266.595 10.568 267.657 10.292 268.821 10.292C270.189 10.292 271.383 10.622 272.403 11.282C273.423 11.942 274.167 12.878 274.635 14.09H272.673C272.325 13.334 271.821 12.752 271.161 12.344C270.513 11.936 269.733 11.732 268.821 11.732C267.945 11.732 267.159 11.936 266.463 12.344C265.767 12.752 265.221 13.334 264.825 14.09C264.429 14.834 264.231 15.71 264.231 16.718C264.231 17.714 264.429 18.59 264.825 19.346C265.221 20.09 265.767 20.666 266.463 21.074C267.159 21.482 267.945 21.686 268.821 21.686C269.733 21.686 270.513 21.488 271.161 21.092C271.821 20.684 272.325 20.102 272.673 19.346H274.635C274.167 20.546 273.423 21.476 272.403 22.136C271.383 22.784 270.189 23.108 268.821 23.108C267.657 23.108 266.595 22.838 265.635 22.298C264.687 21.746 263.937 20.984 263.385 20.012C262.833 19.04 262.557 17.942 262.557 16.718ZM281.97 12.956C282.714 12.956 283.386 13.118 283.986 13.442C284.586 13.754 285.054 14.228 285.39 14.864C285.738 15.5 285.912 16.274 285.912 17.186V23H284.292V17.42C284.292 16.436 284.046 15.686 283.554 15.17C283.062 14.642 282.39 14.378 281.538 14.378C280.674 14.378 279.984 14.648 279.468 15.188C278.964 15.728 278.712 16.514 278.712 17.546V23H277.074V9.68H278.712V14.54C279.036 14.036 279.48 13.646 280.044 13.37C280.62 13.094 281.262 12.956 281.97 12.956ZM289.433 11.534C289.121 11.534 288.857 11.426 288.641 11.21C288.425 10.994 288.317 10.73 288.317 10.418C288.317 10.106 288.425 9.842 288.641 9.626C288.857 9.41 289.121 9.302 289.433 9.302C289.733 9.302 289.985 9.41 290.189 9.626C290.405 9.842 290.513 10.106 290.513 10.418C290.513 10.73 290.405 10.994 290.189 11.21C289.985 11.426 289.733 11.534 289.433 11.534ZM290.225 13.136V23H288.587V13.136H290.225ZM294.655 9.68V23H293.017V9.68H294.655ZM296.835 18.032C296.835 17.024 297.039 16.142 297.447 15.386C297.855 14.618 298.413 14.024 299.121 13.604C299.841 13.184 300.645 12.974 301.533 12.974C302.301 12.974 303.015 13.154 303.675 13.514C304.335 13.862 304.839 14.324 305.187 14.9V9.68H306.843V23H305.187V21.146C304.863 21.734 304.383 22.22 303.747 22.604C303.111 22.976 302.367 23.162 301.515 23.162C300.639 23.162 299.841 22.946 299.121 22.514C298.413 22.082 297.855 21.476 297.447 20.696C297.039 19.916 296.835 19.028 296.835 18.032ZM305.187 18.05C305.187 17.306 305.037 16.658 304.737 16.106C304.437 15.554 304.029 15.134 303.513 14.846C303.009 14.546 302.451 14.396 301.839 14.396C301.227 14.396 300.669 14.54 300.165 14.828C299.661 15.116 299.259 15.536 298.959 16.088C298.659 16.64 298.509 17.288 298.509 18.032C298.509 18.788 298.659 19.448 298.959 20.012C299.259 20.564 299.661 20.99 300.165 21.29C300.669 21.578 301.227 21.722 301.839 21.722C302.451 21.722 303.009 21.578 303.513 21.29C304.029 20.99 304.437 20.564 304.737 20.012C305.037 19.448 305.187 18.794 305.187 18.05ZM311.249 14.738C311.537 14.174 311.945 13.736 312.473 13.424C313.013 13.112 313.667 12.956 314.435 12.956V14.648H314.003C312.167 14.648 311.249 15.644 311.249 17.636V23H309.611V13.136H311.249V14.738ZM325.325 17.69C325.325 18.002 325.307 18.332 325.271 18.68H317.387C317.447 19.652 317.777 20.414 318.377 20.966C318.989 21.506 319.727 21.776 320.591 21.776C321.299 21.776 321.887 21.614 322.355 21.29C322.835 20.954 323.171 20.51 323.363 19.958H325.127C324.863 20.906 324.335 21.68 323.543 22.28C322.751 22.868 321.767 23.162 320.591 23.162C319.655 23.162 318.815 22.952 318.071 22.532C317.339 22.112 316.763 21.518 316.343 20.75C315.923 19.97 315.713 19.07 315.713 18.05C315.713 17.03 315.917 16.136 316.325 15.368C316.733 14.6 317.303 14.012 318.035 13.604C318.779 13.184 319.631 12.974 320.591 12.974C321.527 12.974 322.355 13.178 323.075 13.586C323.795 13.994 324.347 14.558 324.731 15.278C325.127 15.986 325.325 16.79 325.325 17.69ZM323.633 17.348C323.633 16.724 323.495 16.19 323.219 15.746C322.943 15.29 322.565 14.948 322.085 14.72C321.617 14.48 321.095 14.36 320.519 14.36C319.691 14.36 318.983 14.624 318.395 15.152C317.819 15.68 317.489 16.412 317.405 17.348H323.633ZM332.294 12.956C333.494 12.956 334.466 13.322 335.21 14.054C335.954 14.774 336.326 15.818 336.326 17.186V23H334.706V17.42C334.706 16.436 334.46 15.686 333.968 15.17C333.476 14.642 332.804 14.378 331.952 14.378C331.088 14.378 330.398 14.648 329.882 15.188C329.378 15.728 329.126 16.514 329.126 17.546V23H327.488V13.136H329.126V14.54C329.45 14.036 329.888 13.646 330.44 13.37C331.004 13.094 331.622 12.956 332.294 12.956Z" fill="black"/>
<path d="M390.928 19.562C390.928 20.138 390.784 20.69 390.496 21.218C390.208 21.734 389.782 22.166 389.218 22.514C388.666 22.862 388 23.06 387.22 23.108V24.566H386.248V23.108C385.156 23.012 384.268 22.664 383.584 22.064C382.9 21.452 382.552 20.678 382.54 19.742H384.286C384.334 20.246 384.52 20.684 384.844 21.056C385.18 21.428 385.648 21.662 386.248 21.758V17.258C385.444 17.054 384.796 16.844 384.304 16.628C383.812 16.412 383.392 16.076 383.044 15.62C382.696 15.164 382.522 14.552 382.522 13.784C382.522 12.812 382.858 12.008 383.53 11.372C384.214 10.736 385.12 10.382 386.248 10.31V8.816H387.22V10.31C388.24 10.394 389.062 10.724 389.686 11.3C390.31 11.864 390.67 12.602 390.766 13.514H389.02C388.96 13.094 388.774 12.716 388.462 12.38C388.15 12.032 387.736 11.804 387.22 11.696V16.088C388.012 16.292 388.654 16.502 389.146 16.718C389.65 16.922 390.07 17.252 390.406 17.708C390.754 18.164 390.928 18.782 390.928 19.562ZM384.196 13.694C384.196 14.282 384.37 14.732 384.718 15.044C385.066 15.356 385.576 15.614 386.248 15.818V11.66C385.624 11.72 385.126 11.924 384.754 12.272C384.382 12.608 384.196 13.082 384.196 13.694ZM387.22 21.776C387.868 21.704 388.372 21.47 388.732 21.074C389.104 20.678 389.29 20.204 389.29 19.652C389.29 19.064 389.11 18.614 388.75 18.302C388.39 17.978 387.88 17.72 387.22 17.528V21.776ZM398.122 11.48V9.986H401.506V23H399.85V11.48H398.122ZM404.122 21.686C405.646 20.462 406.84 19.46 407.704 18.68C408.568 17.888 409.294 17.066 409.882 16.214C410.482 15.35 410.782 14.504 410.782 13.676C410.782 12.896 410.59 12.284 410.206 11.84C409.834 11.384 409.228 11.156 408.388 11.156C407.572 11.156 406.936 11.414 406.48 11.93C406.036 12.434 405.796 13.112 405.76 13.964H404.176C404.224 12.62 404.632 11.582 405.4 10.85C406.168 10.118 407.158 9.752 408.37 9.752C409.606 9.752 410.584 10.094 411.304 10.778C412.036 11.462 412.402 12.404 412.402 13.604C412.402 14.6 412.102 15.572 411.502 16.52C410.914 17.456 410.242 18.284 409.486 19.004C408.73 19.712 407.764 20.54 406.588 21.488H412.78V22.856H404.122V21.686Z" fill="#4C9839"/>
<path d="M423.149 11.48V9.986H426.533V23H424.877V11.48H423.149ZM436.053 10.454V23H434.415V10.454H436.053ZM443.651 12.956C444.851 12.956 445.823 13.322 446.567 14.054C447.311 14.774 447.683 15.818 447.683 17.186V23H446.063V17.42C446.063 16.436 445.817 15.686 445.325 15.17C444.833 14.642 444.161 14.378 443.309 14.378C442.445 14.378 441.755 14.648 441.239 15.188C440.735 15.728 440.483 16.514 440.483 17.546V23H438.845V13.136H440.483V14.54C440.807 14.036 441.245 13.646 441.797 13.37C442.361 13.094 442.979 12.956 443.651 12.956ZM454.373 14.486H452.303V23H450.665V14.486H449.387V13.136H450.665V12.434C450.665 11.33 450.947 10.526 451.511 10.022C452.087 9.506 453.005 9.248 454.265 9.248V10.616C453.545 10.616 453.035 10.76 452.735 11.048C452.447 11.324 452.303 11.786 452.303 12.434V13.136H454.373V14.486ZM455.67 18.032C455.67 17.024 455.874 16.142 456.282 15.386C456.69 14.618 457.248 14.024 457.956 13.604C458.676 13.184 459.474 12.974 460.35 12.974C461.214 12.974 461.964 13.16 462.6 13.532C463.236 13.904 463.71 14.372 464.022 14.936V13.136H465.678V23H464.022V21.164C463.698 21.74 463.212 22.22 462.564 22.604C461.928 22.976 461.184 23.162 460.332 23.162C459.456 23.162 458.664 22.946 457.956 22.514C457.248 22.082 456.69 21.476 456.282 20.696C455.874 19.916 455.67 19.028 455.67 18.032ZM464.022 18.05C464.022 17.306 463.872 16.658 463.572 16.106C463.272 15.554 462.864 15.134 462.348 14.846C461.844 14.546 461.286 14.396 460.674 14.396C460.062 14.396 459.504 14.54 459 14.828C458.496 15.116 458.094 15.536 457.794 16.088C457.494 16.64 457.344 17.288 457.344 18.032C457.344 18.788 457.494 19.448 457.794 20.012C458.094 20.564 458.496 20.99 459 21.29C459.504 21.578 460.062 21.722 460.674 21.722C461.286 21.722 461.844 21.578 462.348 21.29C462.864 20.99 463.272 20.564 463.572 20.012C463.872 19.448 464.022 18.794 464.022 18.05ZM473.253 12.956C474.453 12.956 475.425 13.322 476.169 14.054C476.913 14.774 477.285 15.818 477.285 17.186V23H475.665V17.42C475.665 16.436 475.419 15.686 474.927 15.17C474.435 14.642 473.763 14.378 472.911 14.378C472.047 14.378 471.357 14.648 470.841 15.188C470.337 15.728 470.085 16.514 470.085 17.546V23H468.447V13.136H470.085V14.54C470.409 14.036 470.847 13.646 471.399 13.37C471.963 13.094 472.581 12.956 473.253 12.956ZM481.958 14.486V20.3C481.958 20.78 482.06 21.122 482.264 21.326C482.468 21.518 482.822 21.614 483.326 21.614H484.532V23H483.056C482.144 23 481.46 22.79 481.004 22.37C480.548 21.95 480.32 21.26 480.32 20.3V14.486H479.042V13.136H480.32V10.652H481.958V13.136H484.532V14.486H481.958ZM490.009 23.162C489.253 23.162 488.575 23.036 487.975 22.784C487.375 22.52 486.901 22.16 486.553 21.704C486.205 21.236 486.013 20.702 485.977 20.102H487.669C487.717 20.594 487.945 20.996 488.353 21.308C488.773 21.62 489.319 21.776 489.991 21.776C490.615 21.776 491.107 21.638 491.467 21.362C491.827 21.086 492.007 20.738 492.007 20.318C492.007 19.886 491.815 19.568 491.431 19.364C491.047 19.148 490.453 18.938 489.649 18.734C488.917 18.542 488.317 18.35 487.849 18.158C487.393 17.954 486.997 17.66 486.661 17.276C486.337 16.88 486.175 16.364 486.175 15.728C486.175 15.224 486.325 14.762 486.625 14.342C486.925 13.922 487.351 13.592 487.903 13.352C488.455 13.1 489.085 12.974 489.793 12.974C490.885 12.974 491.767 13.25 492.439 13.802C493.111 14.354 493.471 15.11 493.519 16.07H491.881C491.845 15.554 491.635 15.14 491.251 14.828C490.879 14.516 490.375 14.36 489.739 14.36C489.151 14.36 488.683 14.486 488.335 14.738C487.987 14.99 487.813 15.32 487.813 15.728C487.813 16.052 487.915 16.322 488.119 16.538C488.335 16.742 488.599 16.91 488.911 17.042C489.235 17.162 489.679 17.3 490.243 17.456C490.951 17.648 491.527 17.84 491.971 18.032C492.415 18.212 492.793 18.488 493.105 18.86C493.429 19.232 493.597 19.718 493.609 20.318C493.609 20.858 493.459 21.344 493.159 21.776C492.859 22.208 492.433 22.55 491.881 22.802C491.341 23.042 490.717 23.162 490.009 23.162Z" fill="black"/>
</svg>
