<svg width="515" height="36" viewBox="0 0 515 36" fill="none" xmlns="http://www.w3.org/2000/svg">
<mask id="path-1-inside-1_2952_24809" fill="white">
<path d="M0 0H515V36H0V0Z"/>
</mask>
<path d="M515 34H0V38H515V34Z" fill="#D9D9D9" mask="url(#path-1-inside-1_2952_24809)"/>
<path d="M25.5173 12.768V14.96H22.5413V24H19.8053V14.96H16.8293V12.768H25.5173ZM30.9544 24.128C30.0798 24.128 29.2904 23.9413 28.5864 23.568C27.8931 23.1947 27.3438 22.6613 26.9384 21.968C26.5438 21.2747 26.3464 20.464 26.3464 19.536C26.3464 18.6187 26.5491 17.8133 26.9544 17.12C27.3598 16.416 27.9144 15.8773 28.6184 15.504C29.3224 15.1307 30.1118 14.944 30.9864 14.944C31.8611 14.944 32.6504 15.1307 33.3544 15.504C34.0584 15.8773 34.6131 16.416 35.0184 17.12C35.4238 17.8133 35.6264 18.6187 35.6264 19.536C35.6264 20.4533 35.4184 21.264 35.0024 21.968C34.5971 22.6613 34.0371 23.1947 33.3224 23.568C32.6184 23.9413 31.8291 24.128 30.9544 24.128ZM30.9544 21.76C31.4771 21.76 31.9198 21.568 32.2824 21.184C32.6558 20.8 32.8424 20.2507 32.8424 19.536C32.8424 18.8213 32.6611 18.272 32.2984 17.888C31.9464 17.504 31.5091 17.312 30.9864 17.312C30.4531 17.312 30.0104 17.504 29.6584 17.888C29.3064 18.2613 29.1304 18.8107 29.1304 19.536C29.1304 20.2507 29.3011 20.8 29.6424 21.184C29.9944 21.568 30.4318 21.76 30.9544 21.76ZM42.0539 21.68V24H40.6619C39.6699 24 38.8966 23.76 38.3419 23.28C37.7873 22.7893 37.5099 21.9947 37.5099 20.896V17.344H36.4219V15.072H37.5099V12.896H40.2459V15.072H42.0379V17.344H40.2459V20.928C40.2459 21.1947 40.3099 21.3867 40.4379 21.504C40.5659 21.6213 40.7793 21.68 41.0779 21.68H42.0539ZM43.0339 19.52C43.0339 18.6027 43.2046 17.7973 43.5459 17.104C43.8979 16.4107 44.3726 15.8773 44.9699 15.504C45.5673 15.1307 46.2339 14.944 46.9699 14.944C47.5993 14.944 48.1486 15.072 48.6179 15.328C49.0979 15.584 49.4659 15.92 49.7219 16.336V15.072H52.4579V24H49.7219V22.736C49.4553 23.152 49.0819 23.488 48.6019 23.744C48.1326 24 47.5833 24.128 46.9539 24.128C46.2286 24.128 45.5673 23.9413 44.9699 23.568C44.3726 23.184 43.8979 22.6453 43.5459 21.952C43.2046 21.248 43.0339 20.4373 43.0339 19.52ZM49.7219 19.536C49.7219 18.8533 49.5299 18.3147 49.1459 17.92C48.7726 17.5253 48.3139 17.328 47.7699 17.328C47.2259 17.328 46.7619 17.5253 46.3779 17.92C46.0046 18.304 45.8179 18.8373 45.8179 19.52C45.8179 20.2027 46.0046 20.7467 46.3779 21.152C46.7619 21.5467 47.2259 21.744 47.7699 21.744C48.3139 21.744 48.7726 21.5467 49.1459 21.152C49.5299 20.7573 49.7219 20.2187 49.7219 19.536ZM57.1733 12.16V24H54.4373V12.16H57.1733ZM66.2267 27.344C65.192 26.352 64.3867 25.072 63.8107 23.504C63.2347 21.936 62.9467 20.2453 62.9467 18.432C62.9467 16.5973 63.2454 14.8853 63.8427 13.296C64.44 11.696 65.288 10.3947 66.3867 9.392H69.0747V9.648C67.9547 10.7573 67.0907 12.0907 66.4827 13.648C65.8747 15.1947 65.5707 16.7893 65.5707 18.432C65.5707 20.064 65.864 21.6373 66.4507 23.152C67.0374 24.6667 67.864 25.9787 68.9307 27.088V27.344H66.2267ZM72.8597 12.768V19.488C72.8597 20.16 73.025 20.6773 73.3557 21.04C73.6864 21.4027 74.1717 21.584 74.8117 21.584C75.4517 21.584 75.9424 21.4027 76.2837 21.04C76.625 20.6773 76.7957 20.16 76.7957 19.488V12.768H79.5317V19.472C79.5317 20.4747 79.3184 21.3227 78.8917 22.016C78.465 22.7093 77.889 23.232 77.1637 23.584C76.449 23.936 75.649 24.112 74.7637 24.112C73.8784 24.112 73.0837 23.9413 72.3797 23.6C71.6864 23.248 71.137 22.7253 70.7317 22.032C70.3264 21.328 70.1237 20.4747 70.1237 19.472V12.768H72.8597ZM85.5169 24.112C84.6956 24.112 83.9596 23.9787 83.3089 23.712C82.6583 23.4453 82.1356 23.0507 81.7409 22.528C81.3569 22.0053 81.1543 21.376 81.1329 20.64H84.0449C84.0876 21.056 84.2316 21.376 84.4769 21.6C84.7223 21.8133 85.0423 21.92 85.4369 21.92C85.8423 21.92 86.1623 21.8293 86.3969 21.648C86.6316 21.456 86.7489 21.1947 86.7489 20.864C86.7489 20.5867 86.6529 20.3573 86.4609 20.176C86.2796 19.9947 86.0503 19.8453 85.7729 19.728C85.5063 19.6107 85.1223 19.4773 84.6209 19.328C83.8956 19.104 83.3036 18.88 82.8449 18.656C82.3863 18.432 81.9916 18.1013 81.6609 17.664C81.3303 17.2267 81.1649 16.656 81.1649 15.952C81.1649 14.9067 81.5436 14.0907 82.3009 13.504C83.0583 12.9067 84.0449 12.608 85.2609 12.608C86.4983 12.608 87.4956 12.9067 88.2529 13.504C89.0103 14.0907 89.4156 14.912 89.4689 15.968H86.5089C86.4876 15.6053 86.3543 15.3227 86.1089 15.12C85.8636 14.9067 85.5489 14.8 85.1649 14.8C84.8343 14.8 84.5676 14.8907 84.3649 15.072C84.1623 15.2427 84.0609 15.4933 84.0609 15.824C84.0609 16.1867 84.2316 16.4693 84.5729 16.672C84.9143 16.8747 85.4476 17.0933 86.1729 17.328C86.8983 17.5733 87.4849 17.808 87.9329 18.032C88.3916 18.256 88.7863 18.5813 89.1169 19.008C89.4476 19.4347 89.6129 19.984 89.6129 20.656C89.6129 21.296 89.4476 21.8773 89.1169 22.4C88.7969 22.9227 88.3276 23.3387 87.7089 23.648C87.0903 23.9573 86.3596 24.112 85.5169 24.112ZM95.5047 12.768C96.6887 12.768 97.7234 13.0027 98.6087 13.472C99.494 13.9413 100.177 14.6027 100.657 15.456C101.147 16.2987 101.393 17.2747 101.393 18.384C101.393 19.4827 101.147 20.4587 100.657 21.312C100.177 22.1653 99.4887 22.8267 98.5927 23.296C97.7074 23.7653 96.678 24 95.5047 24H91.2967V12.768H95.5047ZM95.3287 21.632C96.3634 21.632 97.1687 21.3493 97.7447 20.784C98.3207 20.2187 98.6087 19.4187 98.6087 18.384C98.6087 17.3493 98.3207 16.544 97.7447 15.968C97.1687 15.392 96.3634 15.104 95.3287 15.104H94.0327V21.632H95.3287ZM102.186 27.344V27.088C103.252 25.9787 104.079 24.6667 104.666 23.152C105.252 21.6373 105.546 20.064 105.546 18.432C105.546 16.7893 105.242 15.1947 104.634 13.648C104.026 12.0907 103.162 10.7573 102.042 9.648V9.392H104.73C105.828 10.3947 106.676 11.696 107.274 13.296C107.871 14.8853 108.17 16.5973 108.17 18.432C108.17 20.2453 107.882 21.936 107.306 23.504C106.73 25.072 105.924 26.352 104.89 27.344H102.186Z" fill="black"/>
<path d="M462.044 20.92C462.044 21.6533 461.85 22.3333 461.464 22.96C461.09 23.5733 460.53 24.08 459.784 24.48C459.05 24.8667 458.177 25.08 457.164 25.12V26.74H455.884V25.1C454.47 24.98 453.33 24.56 452.464 23.84C451.597 23.1067 451.137 22.1133 451.084 20.86H454.724C454.804 21.66 455.19 22.1733 455.884 22.4V19.24C454.844 18.9733 454.01 18.7133 453.384 18.46C452.77 18.2067 452.23 17.8 451.764 17.24C451.297 16.68 451.064 15.9133 451.064 14.94C451.064 13.7267 451.51 12.7533 452.404 12.02C453.31 11.2867 454.47 10.8733 455.884 10.78V9.16H457.164V10.78C458.564 10.8867 459.67 11.2933 460.484 12C461.297 12.7067 461.75 13.6867 461.844 14.94H458.184C458.104 14.22 457.764 13.7533 457.164 13.54V16.64C458.27 16.9467 459.124 17.22 459.724 17.46C460.324 17.7 460.857 18.1 461.324 18.66C461.804 19.2067 462.044 19.96 462.044 20.92ZM454.684 14.78C454.684 15.1133 454.784 15.3933 454.984 15.62C455.197 15.8467 455.497 16.0467 455.884 16.22V13.44C455.51 13.5067 455.217 13.6533 455.004 13.88C454.79 14.0933 454.684 14.3933 454.684 14.78ZM457.164 22.46C457.564 22.3933 457.877 22.2333 458.104 21.98C458.344 21.7267 458.464 21.4133 458.464 21.04C458.464 20.6933 458.35 20.4133 458.124 20.2C457.91 19.9733 457.59 19.78 457.164 19.62V22.46ZM468.126 13.58V10.4H473.666V25H470.106V13.58H468.126ZM486.285 13.38H480.045V16.14C480.312 15.8467 480.685 15.6067 481.165 15.42C481.645 15.2333 482.165 15.14 482.725 15.14C483.725 15.14 484.552 15.3667 485.205 15.82C485.872 16.2733 486.359 16.86 486.665 17.58C486.972 18.3 487.125 19.08 487.125 19.92C487.125 21.48 486.685 22.72 485.805 23.64C484.925 24.5467 483.685 25 482.085 25C481.019 25 480.092 24.82 479.305 24.46C478.519 24.0867 477.912 23.5733 477.485 22.92C477.059 22.2667 476.825 21.5133 476.785 20.66H480.125C480.205 21.0733 480.399 21.42 480.705 21.7C481.012 21.9667 481.432 22.1 481.965 22.1C482.592 22.1 483.059 21.9 483.365 21.5C483.672 21.1 483.825 20.5667 483.825 19.9C483.825 19.2467 483.665 18.7467 483.345 18.4C483.025 18.0533 482.559 17.88 481.945 17.88C481.492 17.88 481.119 17.9933 480.825 18.22C480.532 18.4333 480.339 18.72 480.245 19.08H476.945V10.38H486.285V13.38ZM498.333 12.96L493.313 25H489.813L494.893 13.34H488.673V10.42H498.333V12.96Z" fill="#4C9839"/>
</svg>
