<svg width="405" height="48" viewBox="0 0 405 48" fill="none" xmlns="http://www.w3.org/2000/svg">
<rect x="0.5" y="0.5" width="88.25" height="47" rx="3.5" fill="#F9F9F9"/>
<rect x="0.5" y="0.5" width="88.25" height="47" rx="3.5" stroke="#D9D9D9"/>
<path fill-rule="evenodd" clip-rule="evenodd" d="M30.3131 30.8903H25.3585L21.6431 20.0295C21.4668 19.5299 21.0923 19.0882 20.5415 18.8801C19.167 18.3569 17.6523 17.9406 16 17.7306V17.3125H23.9815C25.0831 17.3125 25.9093 17.9406 26.0469 18.6701L27.9747 26.5044L32.9269 17.3125H37.7438L30.3131 30.8903ZM40.4994 30.8903H35.8201L39.6732 17.3125H44.3524L40.4994 30.8903ZM50.4051 21.0746C50.5428 20.3433 51.369 19.9252 52.3328 19.9252C53.8475 19.8202 55.4974 20.0302 56.8744 20.5515L57.7006 17.6281C56.3236 17.21 54.8089 17 53.4344 17C48.8929 17 45.5882 18.8807 45.5882 21.4909C45.5882 23.4767 47.929 24.5193 49.5813 25.1474C51.369 25.7737 52.0575 26.1919 51.9198 26.8182C51.9198 27.7576 50.5428 28.1758 49.1683 28.1758C47.5159 28.1758 45.8636 27.8626 44.3513 27.3395L43.5252 30.2647C45.1775 30.786 46.9651 30.996 48.6175 30.996C53.7098 31.0991 56.8744 29.2202 56.8744 26.4C56.8744 22.8485 50.4051 22.6404 50.4051 21.0746ZM73.2498 30.8903L69.5344 17.3125H65.5437C64.7175 17.3125 63.8913 17.7306 63.6159 18.3569L56.736 30.8903H61.5529L62.5144 28.9064H68.4329L68.9837 30.8903H73.2498ZM66.232 20.9688L67.6066 26.086H63.7535L66.232 20.9688Z" fill="#172B85"/>
<rect x="105.75" y="0.5" width="88.25" height="47" rx="3.5" fill="#F9F9F9"/>
<rect x="105.75" y="0.5" width="88.25" height="47" rx="3.5" stroke="#D9D9D9"/>
<path fill-rule="evenodd" clip-rule="evenodd" d="M133.476 43.1996V26.5779H142.382L143.337 29.0394L144.324 26.5779H176.65V42.0533C176.65 42.0533 175.804 43.183 174.826 43.1996H156.927L155.85 40.5795V43.1996H152.32V38.7269C152.32 38.7269 151.838 39.3512 150.795 39.3512H149.594V43.1996H144.249L143.295 40.6853L142.326 43.1996H133.476ZM123.1 14.0523L125.103 4.7998H128.568L129.706 9.98268V4.7998H134.013L134.69 8.54583L135.346 4.7998H154.683V6.68306C154.683 6.68306 155.699 4.7998 157.37 4.7998L163.644 4.84324L164.761 9.95828V4.7998H168.366L169.358 7.73799V4.7998H172.996V21.4216H169.358L168.407 18.4739V21.4216H163.111L162.578 18.8014H161.155L160.631 21.4216H157.039C155.602 21.4216 154.683 19.5768 154.683 19.5768V21.4216H149.267L148.192 18.8014V21.4216H128.055L127.523 18.8014H126.104L125.575 21.4216H123.1V14.0523ZM123.11 19.2894L125.813 6.84355H127.861L130.561 19.2894H128.763L128.267 16.7972H125.368L124.87 19.2894H123.11ZM127.696 14.0955L126.813 9.74043L125.927 14.0955H127.696ZM130.746 19.2894V6.84355L133.247 6.86195L134.701 14.8862L136.121 6.84355H138.601V19.2894H137.03V10.1188L135.365 19.2894H133.987L132.317 10.1188V19.2894H130.746ZM139.676 19.2894V6.84355H144.802V9.6275H141.263V11.7564H144.719V14.3766H141.263V16.5873H144.802V19.2894H139.676ZM145.713 19.2894V6.84355H149.209C150.367 6.84355 151.405 8.26225 151.405 10.8813C151.405 13.1202 150.53 14.5623 149.682 14.7041L151.749 19.2894H149.829L147.946 14.8678H147.284V19.2894H145.713ZM149.081 9.62793H147.285V12.2481H149.104C149.419 12.2481 149.825 11.7649 149.825 10.938C149.825 10.2953 149.512 9.62793 149.081 9.62793ZM153.649 19.2894H152.045V6.84355H153.649V19.2894ZM157.454 19.2894H157.108C155.433 19.2894 154.416 16.6754 154.416 13.1177C154.416 9.47204 155.421 6.84355 157.537 6.84355H159.273V9.79126H157.473C156.614 9.79126 156.007 11.1187 156.007 13.1484C156.007 15.5587 156.702 16.571 157.702 16.571H158.115L157.454 19.2894ZM158.167 19.2894L160.87 6.84355H162.919L165.619 19.2894H163.82L163.324 16.7972H160.425L159.927 19.2894H158.167ZM162.753 14.0955L161.87 9.74043L160.983 14.0955H162.753ZM165.803 19.2894V6.84355H167.8L170.351 14.6632V6.84355H171.921V19.2894H169.989L167.374 11.2651V19.2894H165.803ZM134.551 41.0767V28.6309H139.677V31.4148H136.138V33.5437H139.594V36.1639H136.138V38.3747H139.677V41.0767H134.551ZM159.668 41.0767V28.6309H164.794V31.4148H161.255V33.5437H164.695V36.1639H161.255V38.3747H164.794V41.0767H159.668ZM139.876 41.0767L142.371 34.9306L139.816 28.6309H141.795L143.317 32.5253L144.844 28.6309H146.746L144.224 34.8538L146.724 41.0767H144.746L143.268 37.2437L141.826 41.0767H139.876ZM146.912 41.0722V28.6264H150.382C151.806 28.6264 152.638 30.444 152.638 32.8125C152.638 35.6717 151.577 37.1419 150.178 37.1419H148.524V41.0722H146.912ZM150.265 31.4389H148.524V34.3047H150.26C150.719 34.3047 151.04 33.7024 151.04 32.8718C151.04 31.9876 150.717 31.4389 150.265 31.4389ZM153.32 41.0722V28.6264H156.815C157.974 28.6264 159.011 30.0451 159.011 32.6641C159.011 34.903 158.136 36.3451 157.288 36.4869L159.355 41.0722H157.435L155.552 36.6507H154.89V41.0722H153.32ZM156.687 31.4107H154.891V34.0309H156.71C157.025 34.0309 157.431 33.5477 157.431 32.7208C157.431 32.0781 157.118 31.4107 156.687 31.4107ZM165.522 41.0767V38.3747H168.666C169.131 38.3747 169.333 37.8768 169.333 37.3307C169.333 36.8075 169.132 36.2785 168.666 36.2785H167.246C166.011 36.2785 165.323 34.7883 165.323 32.5509C165.323 30.5553 165.953 28.6309 167.788 28.6309H170.847L170.185 31.4312H167.54C167.034 31.4312 166.878 31.9568 166.878 32.4588C166.878 32.9748 167.071 33.5437 167.457 33.5437H168.945C170.322 33.5437 170.919 35.0904 170.919 37.1158C170.919 39.2933 170.254 41.0767 168.87 41.0767H165.522ZM171.056 41.0767V38.3747H174.2C174.665 38.3747 174.867 37.8768 174.867 37.3307C174.867 36.8075 174.666 36.2785 174.2 36.2785H172.779C171.544 36.2785 170.857 34.7883 170.857 32.5509C170.857 30.5553 171.486 28.6309 173.321 28.6309H176.381L175.719 31.4312H173.073C172.568 31.4312 172.412 31.9568 172.412 32.4588C172.412 32.9748 172.604 33.5437 172.991 33.5437H174.479C175.856 33.5437 176.453 35.0904 176.453 37.1158C176.453 39.2933 175.787 41.0767 174.404 41.0767H171.056Z" fill="#006FCF"/>
<rect x="211" y="0.5" width="88.25" height="47" rx="3.5" fill="#F9F9F9"/>
<rect x="211" y="0.5" width="88.25" height="47" rx="3.5" stroke="#D9D9D9"/>
<path fill-rule="evenodd" clip-rule="evenodd" d="M244.902 36.1378V37.7777V39.4175H244.064V39.0193C243.798 39.3147 243.394 39.5 242.845 39.5C241.764 39.5 240.916 38.7798 240.916 37.7777C240.916 36.7763 241.764 36.0553 242.845 36.0553C243.394 36.0553 243.798 36.2407 244.064 36.536V36.1378H244.902ZM242.95 36.7281C242.224 36.7281 241.78 37.2016 241.78 37.7781C241.78 38.3546 242.224 38.8282 242.95 38.8282C243.643 38.8282 244.112 38.375 244.112 37.7781C244.112 37.1812 243.643 36.7281 242.95 36.7281ZM273.238 37.7781C273.238 37.2016 273.682 36.7281 274.408 36.7281C275.102 36.7281 275.57 37.1812 275.57 37.7781C275.57 38.375 275.102 38.8282 274.408 38.8282C273.682 38.8282 273.238 38.3546 273.238 37.7781ZM276.361 34.8207V37.7777V39.4175H275.522V39.0193C275.256 39.3147 274.852 39.5 274.303 39.5C273.222 39.5 272.374 38.7798 272.374 37.7777C272.374 36.7763 273.222 36.0553 274.303 36.0553C274.852 36.0553 275.256 36.2407 275.522 36.536V34.8207H276.361ZM255.311 36.6927C255.851 36.6927 256.198 36.981 256.287 37.4883H254.286C254.375 37.0147 254.713 36.6927 255.311 36.6927ZM253.406 37.7777C253.406 36.7551 254.197 36.0553 255.327 36.0553C256.408 36.0553 257.15 36.7551 257.158 37.7777C257.158 37.8735 257.15 37.963 257.142 38.0518H254.278C254.399 38.6424 254.891 38.8552 255.431 38.8552C255.818 38.8552 256.23 38.7311 256.553 38.512L256.964 39.0406C256.496 39.3767 255.964 39.5 255.383 39.5C254.229 39.5 253.406 38.8206 253.406 37.7777ZM265.452 37.7781C265.452 37.2016 265.896 36.7281 266.622 36.7281C267.316 36.7281 267.784 37.1812 267.784 37.7781C267.784 38.375 267.316 38.8282 266.622 38.8282C265.896 38.8282 265.452 38.3546 265.452 37.7781ZM268.574 36.1378V37.7777V39.4175L267.736 39.4175V39.0193C267.469 39.3147 267.066 39.5 266.518 39.5C265.436 39.5 264.589 38.7798 264.589 37.7777C264.589 36.7763 265.436 36.0553 266.518 36.0553C267.066 36.0553 267.469 36.2407 267.736 36.536V36.1378H268.574ZM260.716 37.7777C260.716 38.7727 261.531 39.5 262.774 39.5C263.355 39.5 263.742 39.39 264.161 39.1089L263.758 38.5324C263.443 38.7248 263.113 38.8277 262.749 38.8277C262.079 38.8206 261.587 38.4091 261.587 37.7777C261.587 37.1462 262.079 36.7347 262.749 36.7276C263.113 36.7276 263.443 36.8305 263.758 37.0229L264.161 36.4464C263.742 36.1653 263.355 36.0553 262.774 36.0553C261.531 36.0553 260.716 36.7826 260.716 37.7777ZM270.511 36.5364C270.729 36.2482 271.044 36.0558 271.528 36.0558C271.697 36.0558 271.939 36.0833 272.125 36.1453L271.866 36.8176C271.689 36.7556 271.512 36.7351 271.342 36.7351C270.793 36.7351 270.519 37.0367 270.519 37.5794V39.418H269.68V36.1383L270.511 36.1383V36.5364ZM249.049 36.3985C248.646 36.1723 248.09 36.0553 247.477 36.0553C246.5 36.0553 245.871 36.4535 245.871 37.1054C245.871 37.6402 246.339 37.9701 247.201 38.073L247.598 38.1209C248.057 38.1759 248.274 38.2787 248.274 38.4641C248.274 38.7178 247.968 38.8623 247.395 38.8623C246.814 38.8623 246.395 38.7044 246.113 38.5191L245.717 39.0743C246.177 39.3626 246.758 39.5 247.387 39.5C248.501 39.5 249.146 39.0539 249.146 38.4295C249.146 37.8531 248.638 37.5515 247.799 37.4486L247.404 37.3999C247.041 37.3591 246.75 37.2978 246.75 37.0779C246.75 36.8376 247.024 36.6938 247.484 36.6938C247.976 36.6938 248.453 36.8517 248.686 36.975L249.049 36.3985ZM258.853 36.5364C259.07 36.2482 259.385 36.0558 259.869 36.0558C260.039 36.0558 260.281 36.0833 260.466 36.1453L260.208 36.8176C260.031 36.7556 259.853 36.7351 259.683 36.7351C259.135 36.7351 258.86 37.0367 258.86 37.5794V39.418H258.022V36.1383H258.853V36.5364ZM252.713 36.1378H251.341V35.1427H250.493V36.1378H249.711V36.7897H250.493V38.2858C250.493 39.0468 250.841 39.5 251.833 39.5C252.196 39.5 252.616 39.4042 252.882 39.2463L252.64 38.6353C252.389 38.7586 252.115 38.8206 251.897 38.8206C251.478 38.8206 251.341 38.6007 251.341 38.2717V36.7897H252.713V36.1378ZM240.175 37.3595V39.418H239.327V37.5928C239.327 37.0367 239.053 36.7281 238.48 36.7281C237.923 36.7281 237.536 37.0305 237.536 37.5999V39.418H236.689V37.5928C236.689 37.0367 236.407 36.7281 235.85 36.7281C235.277 36.7281 234.905 37.0305 234.905 37.5999V39.418H234.059V36.1383H234.898V36.5427C235.213 36.1587 235.616 36.0558 236.027 36.0558C236.617 36.0558 237.036 36.2757 237.302 36.6393C237.657 36.1791 238.165 36.0487 238.657 36.0558C239.594 36.0629 240.175 36.5844 240.175 37.3595Z" fill="#231F20"/>
<path d="M261.48 30.5646H248.771V11.1406H261.48V30.5646Z" fill="#FF5F00"/>
<path d="M249.338 20.8538C249.338 16.9136 251.479 13.4037 254.812 11.1418C252.374 9.48781 249.298 8.50059 245.955 8.50059C238.041 8.50059 231.625 14.0312 231.625 20.8538C231.625 27.6764 238.041 33.207 245.955 33.207C249.298 33.207 252.374 32.2198 254.812 30.5658C251.479 28.3039 249.338 24.7941 249.338 20.8538Z" fill="#EB001B"/>
<path d="M278.312 21.0188C278.312 27.7502 271.896 33.207 263.982 33.207C260.639 33.207 257.563 32.233 255.125 30.6011C258.459 28.3694 260.599 24.9064 260.599 21.0188C260.599 17.1311 258.459 13.6681 255.125 11.4364C257.563 9.80452 260.639 8.83048 263.982 8.83048C271.896 8.83048 278.312 14.2873 278.312 21.0188Z" fill="#F79E1B"/>
<rect x="316.25" y="0.5" width="88.25" height="47" rx="3.5" fill="#F9F9F9"/>
<rect x="316.25" y="0.5" width="88.25" height="47" rx="3.5" stroke="#D9D9D9"/>
<path fill-rule="evenodd" clip-rule="evenodd" d="M338.628 17H334.17C333.865 17 333.605 17.2019 333.558 17.4764L331.755 27.8897C331.719 28.0953 331.894 28.2804 332.122 28.2804H334.251C334.556 28.2804 334.815 28.0787 334.863 27.8037L335.349 24.995C335.396 24.72 335.656 24.5181 335.961 24.5181H337.372C340.309 24.5181 342.003 23.2236 342.446 20.6585C342.646 19.5361 342.455 18.6544 341.878 18.0369C341.244 17.3588 340.12 17 338.628 17ZM339.142 20.8037C338.899 22.2609 337.676 22.2609 336.495 22.2609H335.822L336.294 19.5395C336.322 19.375 336.478 19.2539 336.661 19.2539H336.969C337.774 19.2539 338.534 19.2539 338.926 19.6719C339.16 19.9212 339.232 20.2918 339.142 20.8037Z" fill="#28356A"/>
<path fill-rule="evenodd" clip-rule="evenodd" d="M352.068 20.6791H349.933C349.752 20.6791 349.594 20.8001 349.566 20.9646L349.472 21.5085L349.323 21.3114C348.86 20.7003 347.83 20.4961 346.801 20.4961C344.442 20.4961 342.427 22.1238 342.035 24.4069C341.831 25.5458 342.121 26.6349 342.83 27.3943C343.481 28.0925 344.411 28.3836 345.519 28.3836C347.42 28.3836 348.474 27.2702 348.474 27.2702L348.379 27.8106C348.343 28.0172 348.518 28.2025 348.745 28.2025H350.668C350.974 28.2025 351.232 28.0006 351.28 27.7256L352.434 21.0698C352.471 20.8648 352.296 20.6791 352.068 20.6791ZM349.092 24.464C348.886 25.5749 347.918 26.3207 346.684 26.3207C346.064 26.3207 345.568 26.1396 345.25 25.7964C344.935 25.4556 344.815 24.9704 344.915 24.4301C345.108 23.3286 346.092 22.5584 347.308 22.5584C347.914 22.5584 348.407 22.742 348.731 23.088C349.057 23.4377 349.186 23.9259 349.092 24.464Z" fill="#28356A"/>
<path fill-rule="evenodd" clip-rule="evenodd" d="M363.275 20.8438H361.13C360.925 20.8438 360.733 20.9364 360.617 21.0914L357.658 25.0614L356.403 21.2463C356.325 21.0076 356.083 20.8438 355.809 20.8438H353.701C353.444 20.8438 353.267 21.0718 353.348 21.2915L355.711 27.6082L353.49 30.465C353.315 30.6901 353.491 30.9995 353.793 30.9995H355.935C356.139 30.9995 356.329 30.9091 356.445 30.7573L363.58 21.3752C363.751 21.1508 363.575 20.8438 363.275 20.8438Z" fill="#28356A"/>
<path fill-rule="evenodd" clip-rule="evenodd" d="M370.427 17H365.968C365.664 17 365.404 17.2019 365.357 17.4764L363.553 27.8897C363.518 28.0953 363.692 28.2804 363.92 28.2804H366.208C366.42 28.2804 366.602 28.1392 366.635 27.9468L367.147 24.995C367.194 24.72 367.454 24.5181 367.759 24.5181H369.17C372.107 24.5181 373.801 23.2236 374.244 20.6585C374.445 19.5361 374.252 18.6544 373.675 18.0369C373.042 17.3588 371.919 17 370.427 17ZM370.941 20.8037C370.698 22.2609 369.476 22.2609 368.293 22.2609H367.621L368.094 19.5395C368.122 19.375 368.277 19.2539 368.46 19.2539H368.769C369.573 19.2539 370.333 19.2539 370.726 19.6719C370.96 19.9212 371.031 20.2918 370.941 20.8037Z" fill="#298FC2"/>
<path fill-rule="evenodd" clip-rule="evenodd" d="M383.864 20.6791H381.731C381.547 20.6791 381.392 20.8001 381.364 20.9646L381.27 21.5085L381.12 21.3114C380.658 20.7003 379.628 20.4961 378.599 20.4961C376.24 20.4961 374.226 22.1238 373.833 24.4069C373.63 25.5458 373.919 26.6349 374.628 27.3943C375.28 28.0925 376.209 28.3836 377.317 28.3836C379.218 28.3836 380.272 27.2702 380.272 27.2702L380.177 27.8106C380.141 28.0172 380.315 28.2025 380.544 28.2025H382.467C382.771 28.2025 383.031 28.0006 383.078 27.7256L384.233 21.0698C384.268 20.8648 384.093 20.6791 383.864 20.6791ZM380.888 24.464C380.684 25.5749 379.714 26.3207 378.48 26.3207C377.861 26.3207 377.364 26.1396 377.046 25.7964C376.731 25.4556 376.612 24.9704 376.711 24.4301C376.905 23.3286 377.888 22.5584 379.104 22.5584C379.71 22.5584 380.203 22.742 380.527 23.088C380.854 23.4377 380.983 23.9259 380.888 24.464Z" fill="#298FC2"/>
<path fill-rule="evenodd" clip-rule="evenodd" d="M386.204 17.2862L384.374 27.8902C384.338 28.0958 384.513 28.2809 384.74 28.2809H386.58C386.886 28.2809 387.145 28.0792 387.192 27.8042L388.996 17.3914C389.032 17.1858 388.857 17 388.63 17H386.57C386.388 17.0005 386.232 17.1218 386.204 17.2862Z" fill="#298FC2"/>
</svg>
