<svg width="216" height="24" viewBox="0 0 216 24" fill="none" xmlns="http://www.w3.org/2000/svg">
<g clip-path="url(#clip0_10618_6646)">
<path d="M0 3.20218C0 2.42996 0.270278 1.7929 0.810811 1.29098C1.35134 0.789043 2.05406 0.538086 2.91892 0.538086C3.76835 0.538086 4.45559 0.785175 4.9807 1.2794C5.52123 1.78905 5.79151 2.45313 5.79151 3.27168C5.79151 4.01299 5.52897 4.63073 5.00386 5.12496C4.46333 5.63461 3.7529 5.88944 2.87259 5.88944H2.84942C1.99999 5.88944 1.31275 5.63461 0.787645 5.12496C0.262541 4.61531 0 3.97437 0 3.20218ZM0.301158 23.4724V7.99755H5.44402V23.4724H0.301158ZM8.29344 23.4724H13.4363V14.8315C13.4363 14.291 13.4981 13.874 13.6216 13.5806C13.8378 13.0555 14.166 12.6114 14.6062 12.2485C15.0463 11.8856 15.5984 11.7041 16.2626 11.7041C17.9923 11.7041 18.8571 12.8701 18.8571 15.2022V23.4724H24V14.5999C24 12.3141 23.4595 10.5806 22.3784 9.39909C21.2973 8.21762 19.8687 7.62689 18.0927 7.62689C16.1004 7.62689 14.5483 8.48403 13.4363 10.1983V10.2446H13.4131L13.4363 10.1983V7.99755H8.29344C8.32432 8.49175 8.33977 10.0284 8.33977 12.6076C8.33977 15.1867 8.32432 18.8083 8.29344 23.4724Z" fill="#07689F"/>
</g>
<path fill-rule="evenodd" clip-rule="evenodd" d="M50.0374 11.2928C56.2389 8.59095 60.3742 6.8097 62.4433 5.94909C68.351 3.49187 69.5786 3.06503 70.3787 3.05093C70.5547 3.04783 70.9481 3.09144 71.203 3.29826C71.4182 3.47289 71.4774 3.70879 71.5058 3.87435C71.5341 4.03992 71.5694 4.41709 71.5413 4.7118C71.2212 8.07554 69.8359 16.2385 69.1312 20.0059C68.833 21.6001 68.2458 22.1346 67.6774 22.1869C66.442 22.3006 65.504 21.3705 64.3075 20.5862C62.4352 19.3588 61.3774 18.5948 59.5601 17.3972C57.4598 16.0131 58.8213 15.2524 60.0183 14.0092C60.3315 13.6839 65.7745 8.73304 65.8799 8.28392C65.893 8.22775 65.9053 8.01838 65.7809 7.90782C65.6565 7.79726 65.4729 7.83507 65.3404 7.86514C65.1527 7.90776 62.1616 9.88471 56.3674 13.796C55.5184 14.379 54.7494 14.663 54.0604 14.6481C53.3009 14.6317 51.8398 14.2187 50.7537 13.8656C49.4214 13.4325 48.3626 13.2036 48.4548 12.4681C48.5028 12.0851 49.0304 11.6933 50.0374 11.2928Z" fill="#07689F"/>
<path d="M117.057 7.18114C117.066 7.39235 117.066 7.59395 117.066 7.80515C117.075 14.2084 112.371 21.6004 103.767 21.6004C101.23 21.6004 98.7388 20.842 96.5996 19.4212C96.97 19.4692 97.3405 19.4884 97.7109 19.4884C99.8131 19.4884 101.86 18.7588 103.517 17.4052C101.517 17.3668 99.7575 16.0132 99.1463 14.0356C99.8501 14.1796 100.572 14.1508 101.258 13.9492C99.0815 13.5076 97.5164 11.5204 97.5072 9.20675C97.5072 9.18755 97.5072 9.16835 97.5072 9.14915C98.1554 9.52355 98.887 9.73475 99.6279 9.75395C97.5813 8.33315 96.9423 5.50114 98.1832 3.28353C100.563 6.31714 104.064 8.15075 107.824 8.35235C107.444 6.67234 107.963 4.90594 109.176 3.71553C111.056 1.88193 114.019 1.97793 115.797 3.92673C116.844 3.71553 117.853 3.31233 118.77 2.74593C118.418 3.86913 117.686 4.81954 116.714 5.42434C117.64 5.30914 118.548 5.04994 119.4 4.66594C118.77 5.64514 117.973 6.48994 117.057 7.18114Z" fill="#07689F"/>
<path d="M161.214 13.3278L161.836 9.23262H157.945V6.57631C157.945 5.45568 158.488 4.36272 160.23 4.36272H162V0.876308C162 0.876308 160.395 0.599609 158.86 0.599609C155.655 0.599609 153.562 2.56141 153.562 6.11145V9.23262H150V13.3278H153.562V23.2281C154.277 23.3415 155.008 23.3996 155.753 23.3996C156.499 23.3996 157.23 23.3415 157.945 23.2281V13.3278H161.214Z" fill="#07689F"/>
<path d="M198.086 23.9151C196.658 23.8502 195.883 23.6127 195.367 23.4115C194.684 23.1455 194.197 22.8288 193.684 22.3166C193.171 21.8045 192.854 21.3173 192.589 20.634C192.388 20.1183 192.151 19.3429 192.086 17.9157C192.014 16.3728 192 15.9099 192 12.0011C192 8.09225 192.016 7.63004 192.085 6.08577C192.15 4.65848 192.389 3.88457 192.588 3.36743C192.855 2.6841 193.172 2.19693 193.683 1.68336C194.196 1.17122 194.683 0.853092 195.367 0.588463C195.882 0.387315 196.658 0.14979 198.085 0.0848813C199.629 0.0142658 200.092 0 204 0C207.908 0 208.371 0.0156923 209.915 0.0848813C211.342 0.14979 212.116 0.388742 212.633 0.588463C213.317 0.853092 213.804 1.17122 214.317 1.68336C214.829 2.1955 215.145 2.68339 215.412 3.36672C215.613 3.88243 215.85 4.65777 215.915 6.08506C215.986 7.62933 216 8.09154 216 12.0004C216 15.9077 215.986 16.3714 215.915 17.9157C215.85 19.3429 215.611 20.1183 215.412 20.634C215.145 21.3173 214.829 21.8045 214.317 22.3166C213.805 22.8288 213.317 23.1455 212.633 23.4115C212.118 23.6127 211.342 23.8502 209.915 23.9151C208.372 23.9857 207.908 24 204 24C200.092 24 199.629 23.9865 198.086 23.9151Z" fill="#07689F"/>
<path d="M201.277 11.915C201.277 10.4579 202.458 9.27645 203.915 9.27645C205.372 9.27645 206.554 10.4579 206.554 11.915C206.554 13.3721 205.372 14.5535 203.915 14.5535C202.458 14.5535 201.277 13.3721 201.277 11.915ZM199.851 11.915C199.851 14.1597 201.67 15.9793 203.915 15.9793C206.16 15.9793 207.979 14.1597 207.979 11.915C207.979 9.67031 206.16 7.85074 203.915 7.85074C201.67 7.85074 199.851 9.67018 199.851 11.915M207.19 7.68959C207.19 7.87745 207.246 8.0611 207.35 8.21734C207.455 8.37357 207.603 8.49537 207.776 8.56733C207.95 8.63929 208.141 8.65817 208.325 8.6216C208.509 8.58502 208.679 8.49463 208.812 8.36185C208.944 8.22907 209.035 8.05987 209.072 7.87564C209.108 7.69141 209.09 7.50043 209.018 7.32685C208.946 7.15327 208.824 7.00488 208.668 6.90045C208.512 6.79603 208.328 6.74025 208.141 6.74017H208.14C207.888 6.74029 207.647 6.84034 207.469 7.01836C207.291 7.19637 207.191 7.43779 207.19 7.68959ZM200.717 18.3577C199.946 18.3225 199.526 18.194 199.247 18.0854C198.878 17.9415 198.614 17.7702 198.337 17.4934C198.06 17.2165 197.888 16.9531 197.745 16.5836C197.636 16.305 197.508 15.8854 197.473 15.1137C197.434 14.2794 197.427 14.0288 197.427 11.9151C197.427 9.80144 197.435 9.55152 197.473 8.71652C197.508 7.94484 197.637 7.5261 197.745 7.24667C197.889 6.87713 198.06 6.61347 198.337 6.33625C198.614 6.05904 198.877 5.88744 199.247 5.74421C199.526 5.63556 199.946 5.50702 200.717 5.47194C201.552 5.43356 201.802 5.4259 203.915 5.4259C206.028 5.4259 206.279 5.43407 207.114 5.47206C207.885 5.50721 208.304 5.6367 208.583 5.74434C208.953 5.88757 209.217 6.05955 209.494 6.33638C209.771 6.61322 209.942 6.87726 210.086 7.2468C210.195 7.5254 210.323 7.94496 210.358 8.71664C210.397 9.55164 210.404 9.80157 210.404 11.9153C210.404 14.0289 210.397 14.2789 210.358 15.1139C210.323 15.8855 210.194 16.305 210.086 16.5837C209.942 16.9532 209.771 17.2169 209.494 17.4935C209.217 17.7701 208.953 17.9417 208.583 18.0855C208.305 18.1942 207.885 18.3227 207.114 18.3578C206.279 18.3962 206.029 18.4038 203.915 18.4038C201.801 18.4038 201.551 18.3962 200.717 18.3578M200.652 4.04793C199.809 4.08631 199.233 4.21991 198.731 4.41557C198.21 4.61762 197.769 4.8887 197.329 5.32852C196.888 5.76834 196.618 6.20955 196.416 6.73061C196.22 7.23375 196.086 7.8092 196.048 8.6518C196.009 9.49573 196 9.76554 196 11.915C196 14.0645 196.009 14.3343 196.048 15.1782C196.086 16.0209 196.22 16.5962 196.416 17.0994C196.618 17.6198 196.888 18.0619 197.329 18.5015C197.769 18.9411 198.21 19.2118 198.731 19.4144C199.234 19.6101 199.809 19.7437 200.652 19.7821C201.496 19.8204 201.766 19.83 203.915 19.83C206.064 19.83 206.334 19.8211 207.178 19.7821C208.021 19.7437 208.596 19.6101 209.099 19.4144C209.62 19.2118 210.061 18.9413 210.501 18.5015C210.942 18.0617 211.212 17.6198 211.414 17.0994C211.61 16.5962 211.744 16.0208 211.782 15.1782C211.82 14.3336 211.829 14.0645 211.829 11.915C211.829 9.76554 211.82 9.49573 211.782 8.6518C211.744 7.80914 211.61 7.23344 211.414 6.73061C211.212 6.21018 210.941 5.76903 210.501 5.32852C210.062 4.888 209.62 4.61762 209.1 4.41557C208.596 4.21991 208.021 4.08567 207.179 4.04793C206.335 4.00937 206.065 4 203.916 4C201.767 4 201.496 4.00893 200.652 4.04793" fill="white"/>
<defs>
<clipPath id="clip0_10618_6646">
<rect width="24" height="24" fill="white"/>
</clipPath>
</defs>
</svg>
