<svg width="1224" height="22" viewBox="0 0 1224 22" fill="none" xmlns="http://www.w3.org/2000/svg">
<path d="M9.99935 19.3337C14.6017 19.3337 18.3327 15.6027 18.3327 11.0003C18.3327 6.39795 14.6017 2.66699 9.99935 2.66699C5.39698 2.66699 1.66602 6.39795 1.66602 11.0003C1.66602 15.6027 5.39698 19.3337 9.99935 19.3337Z" stroke="#07689F" stroke-linecap="round" stroke-linejoin="round"/>
<path d="M8.33398 13.9163V10.9997M8.33398 10.9997V8.08301H10.0007C11.2507 8.08301 11.6673 8.91634 11.6673 9.54134C11.6673 10.1663 11.2507 10.9997 10.0007 10.9997H9.58398M8.33398 10.9997H9.58398M9.58398 10.9997L11.6673 13.9163" stroke="#07689F" stroke-linecap="round" stroke-linejoin="round"/>
<path d="M24.444 9.812C24.444 8.996 24.632 8.264 25.008 7.616C25.392 6.968 25.908 6.464 26.556 6.104C27.212 5.736 27.928 5.552 28.704 5.552C29.592 5.552 30.38 5.772 31.068 6.212C31.764 6.644 32.268 7.26 32.58 8.06H30.936C30.72 7.62 30.42 7.292 30.036 7.076C29.652 6.86 29.208 6.752 28.704 6.752C28.152 6.752 27.66 6.876 27.228 7.124C26.796 7.372 26.456 7.728 26.208 8.192C25.968 8.656 25.848 9.196 25.848 9.812C25.848 10.428 25.968 10.968 26.208 11.432C26.456 11.896 26.796 12.256 27.228 12.512C27.66 12.76 28.152 12.884 28.704 12.884C29.208 12.884 29.652 12.776 30.036 12.56C30.42 12.344 30.72 12.016 30.936 11.576H32.58C32.268 12.376 31.764 12.992 31.068 13.424C30.38 13.856 29.592 14.072 28.704 14.072C27.92 14.072 27.204 13.892 26.556 13.532C25.908 13.164 25.392 12.656 25.008 12.008C24.632 11.36 24.444 10.628 24.444 9.812ZM37.0493 14.108C36.4253 14.108 35.8613 13.968 35.3573 13.688C34.8533 13.4 34.4573 13 34.1693 12.488C33.8813 11.968 33.7373 11.368 33.7373 10.688C33.7373 10.016 33.8853 9.42 34.1813 8.9C34.4773 8.38 34.8813 7.98 35.3933 7.7C35.9053 7.42 36.4773 7.28 37.1093 7.28C37.7413 7.28 38.3133 7.42 38.8253 7.7C39.3373 7.98 39.7413 8.38 40.0373 8.9C40.3333 9.42 40.4813 10.016 40.4813 10.688C40.4813 11.36 40.3293 11.956 40.0253 12.476C39.7213 12.996 39.3053 13.4 38.7773 13.688C38.2573 13.968 37.6813 14.108 37.0493 14.108ZM37.0493 12.92C37.4013 12.92 37.7293 12.836 38.0333 12.668C38.3453 12.5 38.5973 12.248 38.7893 11.912C38.9813 11.576 39.0773 11.168 39.0773 10.688C39.0773 10.208 38.9853 9.804 38.8013 9.476C38.6173 9.14 38.3733 8.888 38.0693 8.72C37.7653 8.552 37.4373 8.468 37.0853 8.468C36.7333 8.468 36.4053 8.552 36.1013 8.72C35.8053 8.888 35.5693 9.14 35.3933 9.476C35.2173 9.804 35.1293 10.208 35.1293 10.688C35.1293 11.4 35.3093 11.952 35.6693 12.344C36.0373 12.728 36.4973 12.92 37.0493 12.92ZM43.2016 8.36C43.4336 8.056 43.7496 7.8 44.1496 7.592C44.5496 7.384 45.0016 7.28 45.5056 7.28C46.0816 7.28 46.6056 7.424 47.0776 7.712C47.5576 7.992 47.9336 8.388 48.2056 8.9C48.4776 9.412 48.6136 10 48.6136 10.664C48.6136 11.328 48.4776 11.924 48.2056 12.452C47.9336 12.972 47.5576 13.38 47.0776 13.676C46.6056 13.964 46.0816 14.108 45.5056 14.108C45.0016 14.108 44.5536 14.008 44.1616 13.808C43.7696 13.6 43.4496 13.344 43.2016 13.04V17.144H41.8336V7.388H43.2016V8.36ZM47.2216 10.664C47.2216 10.208 47.1256 9.816 46.9336 9.488C46.7496 9.152 46.5016 8.9 46.1896 8.732C45.8856 8.556 45.5576 8.468 45.2056 8.468C44.8616 8.468 44.5336 8.556 44.2216 8.732C43.9176 8.908 43.6696 9.164 43.4776 9.5C43.2936 9.836 43.2016 10.232 43.2016 10.688C43.2016 11.144 43.2936 11.544 43.4776 11.888C43.6696 12.224 43.9176 12.48 44.2216 12.656C44.5336 12.832 44.8616 12.92 45.2056 12.92C45.5576 12.92 45.8856 12.832 46.1896 12.656C46.5016 12.472 46.7496 12.208 46.9336 11.864C47.1256 11.52 47.2216 11.12 47.2216 10.664ZM55.9184 7.388L51.8624 17.108H50.4464L51.7904 13.892L49.1864 7.388H50.7104L52.5704 12.428L54.5024 7.388H55.9184ZM58.3188 8.348C58.5188 8.012 58.7828 7.752 59.1108 7.568C59.4468 7.376 59.8428 7.28 60.2988 7.28V8.696H59.9508C59.4148 8.696 59.0068 8.832 58.7268 9.104C58.4548 9.376 58.3188 9.848 58.3188 10.52V14H56.9508V7.388H58.3188V8.348ZM62.2523 6.512C62.0043 6.512 61.7963 6.428 61.6283 6.26C61.4603 6.092 61.3763 5.884 61.3763 5.636C61.3763 5.388 61.4603 5.18 61.6283 5.012C61.7963 4.844 62.0043 4.76 62.2523 4.76C62.4923 4.76 62.6963 4.844 62.8643 5.012C63.0323 5.18 63.1163 5.388 63.1163 5.636C63.1163 5.884 63.0323 6.092 62.8643 6.26C62.6963 6.428 62.4923 6.512 62.2523 6.512ZM62.9243 7.388V14H61.5563V7.388H62.9243ZM67.3843 7.28C67.8963 7.28 68.3483 7.384 68.7403 7.592C69.1403 7.792 69.4523 8.044 69.6763 8.348V7.388H71.0563V14.108C71.0563 14.716 70.9283 15.256 70.6723 15.728C70.4163 16.208 70.0443 16.584 69.5563 16.856C69.0763 17.128 68.5003 17.264 67.8283 17.264C66.9323 17.264 66.1883 17.052 65.5963 16.628C65.0043 16.212 64.6683 15.644 64.5883 14.924H65.9443C66.0483 15.268 66.2683 15.544 66.6043 15.752C66.9483 15.968 67.3563 16.076 67.8283 16.076C68.3803 16.076 68.8243 15.908 69.1603 15.572C69.5043 15.236 69.6763 14.748 69.6763 14.108V13.004C69.4443 13.316 69.1283 13.58 68.7283 13.796C68.3363 14.004 67.8883 14.108 67.3843 14.108C66.8083 14.108 66.2803 13.964 65.8003 13.676C65.3283 13.38 64.9523 12.972 64.6723 12.452C64.4003 11.924 64.2643 11.328 64.2643 10.664C64.2643 10 64.4003 9.412 64.6723 8.9C64.9523 8.388 65.3283 7.992 65.8003 7.712C66.2803 7.424 66.8083 7.28 67.3843 7.28ZM69.6763 10.688C69.6763 10.232 69.5803 9.836 69.3883 9.5C69.2043 9.164 68.9603 8.908 68.6563 8.732C68.3523 8.556 68.0243 8.468 67.6723 8.468C67.3203 8.468 66.9923 8.556 66.6883 8.732C66.3843 8.9 66.1363 9.152 65.9443 9.488C65.7603 9.816 65.6683 10.208 65.6683 10.664C65.6683 11.12 65.7603 11.52 65.9443 11.864C66.1363 12.208 66.3843 12.472 66.6883 12.656C67.0003 12.832 67.3283 12.92 67.6723 12.92C68.0243 12.92 68.3523 12.832 68.6563 12.656C68.9603 12.48 69.2043 12.224 69.3883 11.888C69.5803 11.544 69.6763 11.144 69.6763 10.688ZM76.2731 7.28C76.7771 7.28 77.2251 7.388 77.6171 7.604C78.0171 7.82 78.3291 8.14 78.5531 8.564C78.7851 8.988 78.9011 9.5 78.9011 10.1V14H77.5451V10.304C77.5451 9.712 77.3971 9.26 77.1011 8.948C76.8051 8.628 76.4011 8.468 75.8891 8.468C75.3771 8.468 74.9691 8.628 74.6651 8.948C74.3691 9.26 74.2211 9.712 74.2211 10.304V14H72.8531V5.12H74.2211V8.156C74.4531 7.876 74.7451 7.66 75.0971 7.508C75.4571 7.356 75.8491 7.28 76.2731 7.28ZM82.2421 8.504V12.164C82.2421 12.412 82.2981 12.592 82.4101 12.704C82.5301 12.808 82.7301 12.86 83.0101 12.86H83.8501V14H82.7701C82.1541 14 81.6821 13.856 81.3541 13.568C81.0261 13.28 80.8621 12.812 80.8621 12.164V8.504H80.0821V7.388H80.8621V5.744H82.2421V7.388H83.8501V8.504H82.2421ZM89.5961 6.764V9.212H92.4761V10.328H89.5961V12.884H92.8361V14H88.2281V5.648H92.8361V6.764H89.5961ZM94.0651 10.664C94.0651 10 94.2011 9.412 94.4731 8.9C94.7531 8.388 95.1291 7.992 95.6011 7.712C96.0811 7.424 96.6091 7.28 97.1851 7.28C97.7051 7.28 98.1571 7.384 98.5411 7.592C98.9331 7.792 99.2451 8.044 99.4771 8.348V7.388H100.857V14H99.4771V13.016C99.2451 13.328 98.9291 13.588 98.5291 13.796C98.1291 14.004 97.6731 14.108 97.1611 14.108C96.5931 14.108 96.0731 13.964 95.6011 13.676C95.1291 13.38 94.7531 12.972 94.4731 12.452C94.2011 11.924 94.0651 11.328 94.0651 10.664ZM99.4771 10.688C99.4771 10.232 99.3811 9.836 99.1891 9.5C99.0051 9.164 98.7611 8.908 98.4571 8.732C98.1531 8.556 97.8251 8.468 97.4731 8.468C97.1211 8.468 96.7931 8.556 96.4891 8.732C96.1851 8.9 95.9371 9.152 95.7451 9.488C95.5611 9.816 95.4691 10.208 95.4691 10.664C95.4691 11.12 95.5611 11.52 95.7451 11.864C95.9371 12.208 96.1851 12.472 96.4891 12.656C96.8011 12.832 97.1291 12.92 97.4731 12.92C97.8251 12.92 98.1531 12.832 98.4571 12.656C98.7611 12.48 99.0051 12.224 99.1891 11.888C99.3811 11.544 99.4771 11.144 99.4771 10.688ZM105.054 14.108C104.534 14.108 104.066 14.016 103.65 13.832C103.242 13.64 102.918 13.384 102.678 13.064C102.438 12.736 102.31 12.372 102.294 11.972H103.71C103.734 12.252 103.866 12.488 104.106 12.68C104.354 12.864 104.662 12.956 105.03 12.956C105.414 12.956 105.71 12.884 105.918 12.74C106.134 12.588 106.242 12.396 106.242 12.164C106.242 11.916 106.122 11.732 105.882 11.612C105.65 11.492 105.278 11.36 104.766 11.216C104.27 11.08 103.866 10.948 103.554 10.82C103.242 10.692 102.97 10.496 102.738 10.232C102.514 9.968 102.402 9.62 102.402 9.188C102.402 8.836 102.506 8.516 102.714 8.228C102.922 7.932 103.218 7.7 103.602 7.532C103.994 7.364 104.442 7.28 104.946 7.28C105.698 7.28 106.302 7.472 106.758 7.856C107.222 8.232 107.47 8.748 107.502 9.404H106.134C106.11 9.108 105.99 8.872 105.774 8.696C105.558 8.52 105.266 8.432 104.898 8.432C104.538 8.432 104.262 8.5 104.07 8.636C103.878 8.772 103.782 8.952 103.782 9.176C103.782 9.352 103.846 9.5 103.974 9.62C104.102 9.74 104.258 9.836 104.442 9.908C104.626 9.972 104.898 10.056 105.258 10.16C105.738 10.288 106.13 10.42 106.434 10.556C106.746 10.684 107.014 10.876 107.238 11.132C107.462 11.388 107.578 11.728 107.586 12.152C107.586 12.528 107.482 12.864 107.274 13.16C107.066 13.456 106.77 13.688 106.386 13.856C106.01 14.024 105.566 14.108 105.054 14.108ZM115.016 7.388L110.96 17.108H109.544L110.888 13.892L108.284 7.388H109.808L111.668 12.428L113.6 7.388H115.016ZM118.796 14.084C118.236 14.084 117.732 13.988 117.284 13.796C116.836 13.596 116.484 13.316 116.228 12.956C115.972 12.596 115.844 12.176 115.844 11.696H117.308C117.34 12.056 117.48 12.352 117.728 12.584C117.984 12.816 118.34 12.932 118.796 12.932C119.268 12.932 119.636 12.82 119.9 12.596C120.164 12.364 120.296 12.068 120.296 11.708C120.296 11.428 120.212 11.2 120.044 11.024C119.884 10.848 119.68 10.712 119.432 10.616C119.192 10.52 118.856 10.416 118.424 10.304C117.88 10.16 117.436 10.016 117.092 9.872C116.756 9.72 116.468 9.488 116.228 9.176C115.988 8.864 115.868 8.448 115.868 7.928C115.868 7.448 115.988 7.028 116.228 6.668C116.468 6.308 116.804 6.032 117.236 5.84C117.668 5.648 118.168 5.552 118.736 5.552C119.544 5.552 120.204 5.756 120.716 6.164C121.236 6.564 121.524 7.116 121.58 7.82H120.068C120.044 7.516 119.9 7.256 119.636 7.04C119.372 6.824 119.024 6.716 118.592 6.716C118.2 6.716 117.88 6.816 117.632 7.016C117.384 7.216 117.26 7.504 117.26 7.88C117.26 8.136 117.336 8.348 117.488 8.516C117.648 8.676 117.848 8.804 118.088 8.9C118.328 8.996 118.656 9.1 119.072 9.212C119.624 9.364 120.072 9.516 120.416 9.668C120.768 9.82 121.064 10.056 121.304 10.376C121.552 10.688 121.676 11.108 121.676 11.636C121.676 12.06 121.56 12.46 121.328 12.836C121.104 13.212 120.772 13.516 120.332 13.748C119.9 13.972 119.388 14.084 118.796 14.084ZM129.351 10.532C129.351 10.78 129.335 11.004 129.303 11.204H124.251C124.291 11.732 124.487 12.156 124.839 12.476C125.191 12.796 125.623 12.956 126.135 12.956C126.871 12.956 127.391 12.648 127.695 12.032H129.171C128.971 12.64 128.607 13.14 128.079 13.532C127.559 13.916 126.911 14.108 126.135 14.108C125.503 14.108 124.935 13.968 124.431 13.688C123.935 13.4 123.543 13 123.255 12.488C122.975 11.968 122.835 11.368 122.835 10.688C122.835 10.008 122.971 9.412 123.243 8.9C123.523 8.38 123.911 7.98 124.407 7.7C124.911 7.42 125.487 7.28 126.135 7.28C126.759 7.28 127.315 7.416 127.803 7.688C128.291 7.96 128.671 8.344 128.943 8.84C129.215 9.328 129.351 9.892 129.351 10.532ZM127.923 10.1C127.915 9.596 127.735 9.192 127.383 8.888C127.031 8.584 126.595 8.432 126.075 8.432C125.603 8.432 125.199 8.584 124.863 8.888C124.527 9.184 124.327 9.588 124.263 10.1H127.923ZM132.293 8.504V12.164C132.293 12.412 132.349 12.592 132.461 12.704C132.581 12.808 132.781 12.86 133.061 12.86H133.901V14H132.821C132.205 14 131.733 13.856 131.405 13.568C131.077 13.28 130.913 12.812 130.913 12.164V8.504H130.133V7.388H130.913V5.744H132.293V7.388H133.901V8.504H132.293ZM135.738 12.14C136.506 11.476 137.11 10.932 137.55 10.508C137.998 10.076 138.37 9.628 138.666 9.164C138.962 8.7 139.11 8.236 139.11 7.772C139.11 7.292 138.994 6.916 138.762 6.644C138.538 6.372 138.182 6.236 137.694 6.236C137.222 6.236 136.854 6.388 136.59 6.692C136.334 6.988 136.198 7.388 136.182 7.892H134.862C134.886 6.98 135.158 6.284 135.678 5.804C136.206 5.316 136.874 5.072 137.682 5.072C138.554 5.072 139.234 5.312 139.722 5.792C140.218 6.272 140.466 6.912 140.466 7.712C140.466 8.288 140.318 8.844 140.022 9.38C139.734 9.908 139.386 10.384 138.978 10.808C138.578 11.224 138.066 11.708 137.442 12.26L136.902 12.74H140.706V13.88H134.874V12.884L135.738 12.14ZM141.74 12.176V11.144L145.772 5.36H147.428V10.988H148.544V12.176H147.428V14H146.084V12.176H141.74ZM146.144 6.752L143.312 10.988H146.144V6.752Z" fill="#565656"/>
<path d="M190.749 7.25H194.083V12.6667V18.0833H177.416V12.6667V7.25H180.749" stroke="#07689F" stroke-linecap="round" stroke-linejoin="round"/>
<path d="M185.75 8.91634V3.08301" stroke="#07689F" stroke-linecap="round" stroke-linejoin="round"/>
<path d="M188.25 6.41699L185.75 8.91699L183.25 6.41699" stroke="#07689F" stroke-linecap="round" stroke-linejoin="round"/>
<path d="M177.416 7.25L185.749 13.5L194.083 7.25" stroke="#07689F" stroke-linecap="round" stroke-linejoin="round"/>
<path d="M206.018 9.764V12.212H208.898V13.328H206.018V15.884H209.258V17H204.65V8.648H209.258V9.764H206.018ZM210.487 13.664C210.487 13 210.623 12.412 210.895 11.9C211.175 11.388 211.551 10.992 212.023 10.712C212.503 10.424 213.031 10.28 213.607 10.28C214.127 10.28 214.579 10.384 214.963 10.592C215.355 10.792 215.667 11.044 215.899 11.348V10.388H217.279V17H215.899V16.016C215.667 16.328 215.351 16.588 214.951 16.796C214.551 17.004 214.095 17.108 213.583 17.108C213.015 17.108 212.495 16.964 212.023 16.676C211.551 16.38 211.175 15.972 210.895 15.452C210.623 14.924 210.487 14.328 210.487 13.664ZM215.899 13.688C215.899 13.232 215.803 12.836 215.611 12.5C215.427 12.164 215.183 11.908 214.879 11.732C214.575 11.556 214.247 11.468 213.895 11.468C213.543 11.468 213.215 11.556 212.911 11.732C212.607 11.9 212.359 12.152 212.167 12.488C211.983 12.816 211.891 13.208 211.891 13.664C211.891 14.12 211.983 14.52 212.167 14.864C212.359 15.208 212.607 15.472 212.911 15.656C213.223 15.832 213.551 15.92 213.895 15.92C214.247 15.92 214.575 15.832 214.879 15.656C215.183 15.48 215.427 15.224 215.611 14.888C215.803 14.544 215.899 14.144 215.899 13.688ZM221.476 17.108C220.956 17.108 220.488 17.016 220.072 16.832C219.664 16.64 219.34 16.384 219.1 16.064C218.86 15.736 218.732 15.372 218.716 14.972H220.132C220.156 15.252 220.288 15.488 220.528 15.68C220.776 15.864 221.084 15.956 221.452 15.956C221.836 15.956 222.132 15.884 222.34 15.74C222.556 15.588 222.664 15.396 222.664 15.164C222.664 14.916 222.544 14.732 222.304 14.612C222.072 14.492 221.7 14.36 221.188 14.216C220.692 14.08 220.288 13.948 219.976 13.82C219.664 13.692 219.392 13.496 219.16 13.232C218.936 12.968 218.824 12.62 218.824 12.188C218.824 11.836 218.928 11.516 219.136 11.228C219.344 10.932 219.64 10.7 220.024 10.532C220.416 10.364 220.864 10.28 221.368 10.28C222.12 10.28 222.724 10.472 223.18 10.856C223.644 11.232 223.892 11.748 223.924 12.404H222.556C222.532 12.108 222.412 11.872 222.196 11.696C221.98 11.52 221.688 11.432 221.32 11.432C220.96 11.432 220.684 11.5 220.492 11.636C220.3 11.772 220.204 11.952 220.204 12.176C220.204 12.352 220.268 12.5 220.396 12.62C220.524 12.74 220.68 12.836 220.864 12.908C221.048 12.972 221.32 13.056 221.68 13.16C222.16 13.288 222.552 13.42 222.856 13.556C223.168 13.684 223.436 13.876 223.66 14.132C223.884 14.388 224 14.728 224.008 15.152C224.008 15.528 223.904 15.864 223.696 16.16C223.488 16.456 223.192 16.688 222.808 16.856C222.432 17.024 221.988 17.108 221.476 17.108ZM231.438 10.388L227.382 20.108H225.966L227.31 16.892L224.706 10.388H226.23L228.09 15.428L230.022 10.388H231.438ZM234.87 17.108C234.35 17.108 233.882 17.016 233.466 16.832C233.058 16.64 232.734 16.384 232.494 16.064C232.254 15.736 232.126 15.372 232.11 14.972H233.526C233.55 15.252 233.682 15.488 233.922 15.68C234.17 15.864 234.478 15.956 234.846 15.956C235.23 15.956 235.526 15.884 235.734 15.74C235.95 15.588 236.058 15.396 236.058 15.164C236.058 14.916 235.938 14.732 235.698 14.612C235.466 14.492 235.094 14.36 234.582 14.216C234.086 14.08 233.682 13.948 233.37 13.82C233.058 13.692 232.786 13.496 232.554 13.232C232.33 12.968 232.218 12.62 232.218 12.188C232.218 11.836 232.322 11.516 232.53 11.228C232.738 10.932 233.034 10.7 233.418 10.532C233.81 10.364 234.258 10.28 234.762 10.28C235.514 10.28 236.118 10.472 236.574 10.856C237.038 11.232 237.286 11.748 237.318 12.404H235.95C235.926 12.108 235.806 11.872 235.59 11.696C235.374 11.52 235.082 11.432 234.714 11.432C234.354 11.432 234.078 11.5 233.886 11.636C233.694 11.772 233.598 11.952 233.598 12.176C233.598 12.352 233.662 12.5 233.79 12.62C233.918 12.74 234.074 12.836 234.258 12.908C234.442 12.972 234.714 13.056 235.074 13.16C235.554 13.288 235.946 13.42 236.25 13.556C236.562 13.684 236.83 13.876 237.054 14.132C237.278 14.388 237.394 14.728 237.402 15.152C237.402 15.528 237.298 15.864 237.09 16.16C236.882 16.456 236.586 16.688 236.202 16.856C235.826 17.024 235.382 17.108 234.87 17.108ZM244.94 13.532C244.94 13.78 244.924 14.004 244.892 14.204H239.84C239.88 14.732 240.076 15.156 240.428 15.476C240.78 15.796 241.212 15.956 241.724 15.956C242.46 15.956 242.98 15.648 243.284 15.032H244.76C244.56 15.64 244.196 16.14 243.668 16.532C243.148 16.916 242.5 17.108 241.724 17.108C241.092 17.108 240.524 16.968 240.02 16.688C239.524 16.4 239.132 16 238.844 15.488C238.564 14.968 238.424 14.368 238.424 13.688C238.424 13.008 238.56 12.412 238.832 11.9C239.112 11.38 239.5 10.98 239.996 10.7C240.5 10.42 241.076 10.28 241.724 10.28C242.348 10.28 242.904 10.416 243.392 10.688C243.88 10.96 244.26 11.344 244.532 11.84C244.804 12.328 244.94 12.892 244.94 13.532ZM243.512 13.1C243.504 12.596 243.324 12.192 242.972 11.888C242.62 11.584 242.184 11.432 241.664 11.432C241.192 11.432 240.788 11.584 240.452 11.888C240.116 12.184 239.916 12.588 239.852 13.1H243.512ZM247.883 11.504V15.164C247.883 15.412 247.939 15.592 248.051 15.704C248.171 15.808 248.371 15.86 248.651 15.86H249.491V17H248.411C247.795 17 247.323 16.856 246.995 16.568C246.667 16.28 246.503 15.812 246.503 15.164V11.504H245.723V10.388H246.503V8.744H247.883V10.388H249.491V11.504H247.883ZM251.328 15.14C252.096 14.476 252.7 13.932 253.14 13.508C253.588 13.076 253.96 12.628 254.256 12.164C254.552 11.7 254.7 11.236 254.7 10.772C254.7 10.292 254.584 9.916 254.352 9.644C254.128 9.372 253.772 9.236 253.284 9.236C252.812 9.236 252.444 9.388 252.18 9.692C251.924 9.988 251.788 10.388 251.772 10.892H250.452C250.476 9.98 250.748 9.284 251.268 8.804C251.796 8.316 252.464 8.072 253.272 8.072C254.144 8.072 254.824 8.312 255.312 8.792C255.808 9.272 256.056 9.912 256.056 10.712C256.056 11.288 255.908 11.844 255.612 12.38C255.324 12.908 254.976 13.384 254.568 13.808C254.168 14.224 253.656 14.708 253.032 15.26L252.492 15.74H256.296V16.88H250.464V15.884L251.328 15.14ZM257.329 15.176V14.144L261.361 8.36H263.017V13.988H264.133V15.176H263.017V17H261.673V15.176H257.329ZM261.733 9.752L258.901 13.988H261.733V9.752ZM271.603 9.248C272.515 9.248 273.303 9.416 273.967 9.752C274.631 10.088 275.135 10.56 275.479 11.168C275.831 11.768 276.007 12.468 276.007 13.268C276.007 13.908 275.895 14.52 275.671 15.104C275.455 15.688 275.139 16.164 274.723 16.532C274.315 16.9 273.831 17.084 273.271 17.084C272.863 17.084 272.543 16.996 272.311 16.82C272.079 16.636 271.935 16.38 271.879 16.052C271.631 16.372 271.319 16.624 270.943 16.808C270.567 16.992 270.175 17.084 269.767 17.084C269.151 17.084 268.667 16.9 268.315 16.532C267.971 16.156 267.799 15.648 267.799 15.008C267.799 14.4 267.923 13.832 268.171 13.304C268.427 12.776 268.783 12.356 269.239 12.044C269.695 11.724 270.207 11.564 270.775 11.564C271.471 11.564 271.959 11.8 272.239 12.272L272.347 11.672H273.535L272.935 15.104C272.911 15.272 272.899 15.42 272.899 15.548C272.899 15.756 272.939 15.912 273.019 16.016C273.107 16.12 273.259 16.172 273.475 16.172C273.779 16.172 274.039 16.024 274.255 15.728C274.471 15.424 274.631 15.052 274.735 14.612C274.847 14.172 274.903 13.744 274.903 13.328C274.903 12.312 274.607 11.536 274.015 11C273.423 10.464 272.563 10.196 271.435 10.196C270.491 10.196 269.643 10.42 268.891 10.868C268.147 11.316 267.563 11.932 267.139 12.716C266.715 13.5 266.503 14.372 266.503 15.332C266.503 16.356 266.807 17.136 267.415 17.672C268.023 18.208 268.891 18.476 270.019 18.476C270.779 18.476 271.443 18.336 272.011 18.056L272.191 18.968C271.463 19.28 270.647 19.436 269.743 19.436C268.871 19.436 268.107 19.272 267.451 18.944C266.795 18.616 266.287 18.148 265.927 17.54C265.567 16.94 265.387 16.24 265.387 15.44C265.387 14.296 265.651 13.252 266.179 12.308C266.715 11.364 267.455 10.62 268.399 10.076C269.343 9.524 270.411 9.248 271.603 9.248ZM270.187 16.028C270.523 16.028 270.827 15.932 271.099 15.74C271.379 15.54 271.599 15.28 271.759 14.96C271.919 14.632 271.999 14.284 271.999 13.916C271.999 13.532 271.891 13.22 271.675 12.98C271.467 12.732 271.171 12.608 270.787 12.608C270.443 12.608 270.139 12.716 269.875 12.932C269.619 13.14 269.419 13.412 269.275 13.748C269.139 14.084 269.071 14.436 269.071 14.804C269.071 15.18 269.163 15.48 269.347 15.704C269.531 15.92 269.811 16.028 270.187 16.028ZM283.788 11.06C283.572 10.644 283.272 10.332 282.888 10.124C282.504 9.908 282.06 9.8 281.556 9.8C281.004 9.8 280.512 9.924 280.08 10.172C279.648 10.42 279.308 10.772 279.06 11.228C278.82 11.684 278.7 12.212 278.7 12.812C278.7 13.412 278.82 13.944 279.06 14.408C279.308 14.864 279.648 15.216 280.08 15.464C280.512 15.712 281.004 15.836 281.556 15.836C282.3 15.836 282.904 15.628 283.368 15.212C283.832 14.796 284.116 14.232 284.22 13.52H281.088V12.428H285.684V13.496C285.596 14.144 285.364 14.74 284.988 15.284C284.62 15.828 284.136 16.264 283.536 16.592C282.944 16.912 282.284 17.072 281.556 17.072C280.772 17.072 280.056 16.892 279.408 16.532C278.76 16.164 278.244 15.656 277.86 15.008C277.484 14.36 277.296 13.628 277.296 12.812C277.296 11.996 277.484 11.264 277.86 10.616C278.244 9.968 278.76 9.464 279.408 9.104C280.064 8.736 280.78 8.552 281.556 8.552C282.444 8.552 283.232 8.772 283.92 9.212C284.616 9.644 285.12 10.26 285.432 11.06H283.788ZM295.037 10.28C295.557 10.28 296.021 10.388 296.429 10.604C296.845 10.82 297.169 11.14 297.401 11.564C297.641 11.988 297.761 12.5 297.761 13.1V17H296.405V13.304C296.405 12.712 296.257 12.26 295.961 11.948C295.665 11.628 295.261 11.468 294.749 11.468C294.237 11.468 293.829 11.628 293.525 11.948C293.229 12.26 293.081 12.712 293.081 13.304V17H291.725V13.304C291.725 12.712 291.577 12.26 291.281 11.948C290.985 11.628 290.581 11.468 290.069 11.468C289.557 11.468 289.149 11.628 288.845 11.948C288.549 12.26 288.401 12.712 288.401 13.304V17H287.033V10.388H288.401V11.144C288.625 10.872 288.909 10.66 289.253 10.508C289.597 10.356 289.965 10.28 290.357 10.28C290.885 10.28 291.357 10.392 291.773 10.616C292.189 10.84 292.509 11.164 292.733 11.588C292.933 11.188 293.245 10.872 293.669 10.64C294.093 10.4 294.549 10.28 295.037 10.28ZM299.046 13.664C299.046 13 299.182 12.412 299.454 11.9C299.734 11.388 300.11 10.992 300.582 10.712C301.062 10.424 301.59 10.28 302.166 10.28C302.686 10.28 303.138 10.384 303.522 10.592C303.914 10.792 304.226 11.044 304.458 11.348V10.388H305.838V17H304.458V16.016C304.226 16.328 303.91 16.588 303.51 16.796C303.11 17.004 302.654 17.108 302.142 17.108C301.574 17.108 301.054 16.964 300.582 16.676C300.11 16.38 299.734 15.972 299.454 15.452C299.182 14.924 299.046 14.328 299.046 13.664ZM304.458 13.688C304.458 13.232 304.362 12.836 304.17 12.5C303.986 12.164 303.742 11.908 303.438 11.732C303.134 11.556 302.806 11.468 302.454 11.468C302.102 11.468 301.774 11.556 301.47 11.732C301.166 11.9 300.918 12.152 300.726 12.488C300.542 12.816 300.45 13.208 300.45 13.664C300.45 14.12 300.542 14.52 300.726 14.864C300.918 15.208 301.166 15.472 301.47 15.656C301.782 15.832 302.11 15.92 302.454 15.92C302.806 15.92 303.134 15.832 303.438 15.656C303.742 15.48 303.986 15.224 304.17 14.888C304.362 14.544 304.458 14.144 304.458 13.688ZM308.33 9.512C308.082 9.512 307.874 9.428 307.706 9.26C307.538 9.092 307.454 8.884 307.454 8.636C307.454 8.388 307.538 8.18 307.706 8.012C307.874 7.844 308.082 7.76 308.33 7.76C308.57 7.76 308.774 7.844 308.942 8.012C309.11 8.18 309.194 8.388 309.194 8.636C309.194 8.884 309.11 9.092 308.942 9.26C308.774 9.428 308.57 9.512 308.33 9.512ZM309.002 10.388V17H307.634V10.388H309.002ZM312.166 8.12V17H310.798V8.12H312.166ZM314.515 17.084C314.267 17.084 314.059 17 313.891 16.832C313.723 16.664 313.639 16.456 313.639 16.208C313.639 15.96 313.723 15.752 313.891 15.584C314.059 15.416 314.267 15.332 314.515 15.332C314.755 15.332 314.959 15.416 315.127 15.584C315.295 15.752 315.379 15.96 315.379 16.208C315.379 16.456 315.295 16.664 315.127 16.832C314.959 17 314.755 17.084 314.515 17.084ZM316.401 12.812C316.401 11.996 316.589 11.264 316.965 10.616C317.349 9.968 317.865 9.464 318.513 9.104C319.169 8.736 319.885 8.552 320.661 8.552C321.549 8.552 322.337 8.772 323.025 9.212C323.721 9.644 324.225 10.26 324.537 11.06H322.893C322.677 10.62 322.377 10.292 321.993 10.076C321.609 9.86 321.165 9.752 320.661 9.752C320.109 9.752 319.617 9.876 319.185 10.124C318.753 10.372 318.413 10.728 318.165 11.192C317.925 11.656 317.805 12.196 317.805 12.812C317.805 13.428 317.925 13.968 318.165 14.432C318.413 14.896 318.753 15.256 319.185 15.512C319.617 15.76 320.109 15.884 320.661 15.884C321.165 15.884 321.609 15.776 321.993 15.56C322.377 15.344 322.677 15.016 322.893 14.576H324.537C324.225 15.376 323.721 15.992 323.025 16.424C322.337 16.856 321.549 17.072 320.661 17.072C319.877 17.072 319.161 16.892 318.513 16.532C317.865 16.164 317.349 15.656 316.965 15.008C316.589 14.36 316.401 13.628 316.401 12.812ZM329.006 17.108C328.382 17.108 327.818 16.968 327.314 16.688C326.81 16.4 326.414 16 326.126 15.488C325.838 14.968 325.694 14.368 325.694 13.688C325.694 13.016 325.842 12.42 326.138 11.9C326.434 11.38 326.838 10.98 327.35 10.7C327.862 10.42 328.434 10.28 329.066 10.28C329.698 10.28 330.27 10.42 330.782 10.7C331.294 10.98 331.698 11.38 331.994 11.9C332.29 12.42 332.438 13.016 332.438 13.688C332.438 14.36 332.286 14.956 331.982 15.476C331.678 15.996 331.262 16.4 330.734 16.688C330.214 16.968 329.638 17.108 329.006 17.108ZM329.006 15.92C329.358 15.92 329.686 15.836 329.99 15.668C330.302 15.5 330.554 15.248 330.746 14.912C330.938 14.576 331.034 14.168 331.034 13.688C331.034 13.208 330.942 12.804 330.758 12.476C330.574 12.14 330.33 11.888 330.026 11.72C329.722 11.552 329.394 11.468 329.042 11.468C328.69 11.468 328.362 11.552 328.058 11.72C327.762 11.888 327.526 12.14 327.35 12.476C327.174 12.804 327.086 13.208 327.086 13.688C327.086 14.4 327.266 14.952 327.626 15.344C327.994 15.728 328.454 15.92 329.006 15.92ZM341.795 10.28C342.315 10.28 342.779 10.388 343.187 10.604C343.603 10.82 343.927 11.14 344.159 11.564C344.399 11.988 344.519 12.5 344.519 13.1V17H343.163V13.304C343.163 12.712 343.015 12.26 342.719 11.948C342.423 11.628 342.019 11.468 341.507 11.468C340.995 11.468 340.587 11.628 340.283 11.948C339.987 12.26 339.839 12.712 339.839 13.304V17H338.483V13.304C338.483 12.712 338.335 12.26 338.039 11.948C337.743 11.628 337.339 11.468 336.827 11.468C336.315 11.468 335.907 11.628 335.603 11.948C335.307 12.26 335.159 12.712 335.159 13.304V17H333.791V10.388H335.159V11.144C335.383 10.872 335.667 10.66 336.011 10.508C336.355 10.356 336.723 10.28 337.115 10.28C337.643 10.28 338.115 10.392 338.531 10.616C338.947 10.84 339.267 11.164 339.491 11.588C339.691 11.188 340.003 10.872 340.427 10.64C340.851 10.4 341.307 10.28 341.795 10.28Z" fill="#565656"/>
<path d="M375.396 4.2L375.188 7.736H373.348L373.14 4.2H375.396ZM378.436 4.2L378.228 7.736H376.388L376.18 4.2H378.436ZM382.806 7.96V10.232H386.47V12.344H382.806V14.808H386.95V17H380.07V5.768H386.95V7.96H382.806ZM388.182 12.52C388.182 11.6027 388.353 10.7973 388.694 10.104C389.046 9.41067 389.521 8.87733 390.118 8.504C390.716 8.13067 391.382 7.944 392.118 7.944C392.748 7.944 393.297 8.072 393.766 8.328C394.246 8.584 394.614 8.92 394.87 9.336V8.072H397.606V17H394.87V15.736C394.604 16.152 394.23 16.488 393.75 16.744C393.281 17 392.732 17.128 392.102 17.128C391.377 17.128 390.716 16.9413 390.118 16.568C389.521 16.184 389.046 15.6453 388.694 14.952C388.353 14.248 388.182 13.4373 388.182 12.52ZM394.87 12.536C394.87 11.8533 394.678 11.3147 394.294 10.92C393.921 10.5253 393.462 10.328 392.918 10.328C392.374 10.328 391.91 10.5253 391.526 10.92C391.153 11.304 390.966 11.8373 390.966 12.52C390.966 13.2027 391.153 13.7467 391.526 14.152C391.91 14.5467 392.374 14.744 392.918 14.744C393.462 14.744 393.921 14.5467 394.294 14.152C394.678 13.7573 394.87 13.2187 394.87 12.536ZM403.218 17.128C402.439 17.128 401.746 16.9947 401.138 16.728C400.53 16.4613 400.05 16.0987 399.698 15.64C399.346 15.1707 399.148 14.648 399.106 14.072H401.81C401.842 14.3813 401.986 14.632 402.242 14.824C402.498 15.016 402.812 15.112 403.186 15.112C403.527 15.112 403.788 15.048 403.97 14.92C404.162 14.7813 404.258 14.6053 404.258 14.392C404.258 14.136 404.124 13.9493 403.858 13.832C403.591 13.704 403.159 13.5653 402.562 13.416C401.922 13.2667 401.388 13.112 400.962 12.952C400.535 12.7813 400.167 12.52 399.858 12.168C399.548 11.8053 399.394 11.32 399.394 10.712C399.394 10.2 399.532 9.736 399.81 9.32C400.098 8.89333 400.514 8.55733 401.058 8.312C401.612 8.06667 402.268 7.944 403.026 7.944C404.146 7.944 405.026 8.22133 405.666 8.776C406.316 9.33067 406.69 10.0667 406.786 10.984H404.258C404.215 10.6747 404.076 10.4293 403.842 10.248C403.618 10.0667 403.319 9.976 402.946 9.976C402.626 9.976 402.38 10.04 402.21 10.168C402.039 10.2853 401.954 10.4507 401.954 10.664C401.954 10.92 402.087 11.112 402.354 11.24C402.631 11.368 403.058 11.496 403.634 11.624C404.295 11.7947 404.834 11.9653 405.25 12.136C405.666 12.296 406.028 12.5627 406.338 12.936C406.658 13.2987 406.823 13.7893 406.834 14.408C406.834 14.9307 406.684 15.4 406.386 15.816C406.098 16.2213 405.676 16.5413 405.122 16.776C404.578 17.0107 403.943 17.128 403.218 17.128ZM417.628 8.072L412.028 21.24H409.084L411.132 16.696L407.5 8.072H410.556L412.62 13.656L414.668 8.072H417.628ZM422.681 17.112C421.86 17.112 421.124 16.9787 420.473 16.712C419.822 16.4453 419.3 16.0507 418.905 15.528C418.521 15.0053 418.318 14.376 418.297 13.64H421.209C421.252 14.056 421.396 14.376 421.641 14.6C421.886 14.8133 422.206 14.92 422.601 14.92C423.006 14.92 423.326 14.8293 423.561 14.648C423.796 14.456 423.913 14.1947 423.913 13.864C423.913 13.5867 423.817 13.3573 423.625 13.176C423.444 12.9947 423.214 12.8453 422.937 12.728C422.67 12.6107 422.286 12.4773 421.785 12.328C421.06 12.104 420.468 11.88 420.009 11.656C419.55 11.432 419.156 11.1013 418.825 10.664C418.494 10.2267 418.329 9.656 418.329 8.952C418.329 7.90667 418.708 7.09067 419.465 6.504C420.222 5.90667 421.209 5.608 422.425 5.608C423.662 5.608 424.66 5.90667 425.417 6.504C426.174 7.09067 426.58 7.912 426.633 8.968H423.673C423.652 8.60533 423.518 8.32267 423.273 8.12C423.028 7.90667 422.713 7.8 422.329 7.8C421.998 7.8 421.732 7.89067 421.529 8.072C421.326 8.24267 421.225 8.49333 421.225 8.824C421.225 9.18667 421.396 9.46933 421.737 9.672C422.078 9.87467 422.612 10.0933 423.337 10.328C424.062 10.5733 424.649 10.808 425.097 11.032C425.556 11.256 425.95 11.5813 426.281 12.008C426.612 12.4347 426.777 12.984 426.777 13.656C426.777 14.296 426.612 14.8773 426.281 15.4C425.961 15.9227 425.492 16.3387 424.873 16.648C424.254 16.9573 423.524 17.112 422.681 17.112ZM436.877 12.392C436.877 12.648 436.861 12.9147 436.829 13.192H430.637C430.679 13.7467 430.855 14.1733 431.165 14.472C431.485 14.76 431.874 14.904 432.333 14.904C433.015 14.904 433.49 14.616 433.757 14.04H436.669C436.519 14.6267 436.247 15.1547 435.853 15.624C435.469 16.0933 434.983 16.4613 434.397 16.728C433.81 16.9947 433.154 17.128 432.429 17.128C431.554 17.128 430.775 16.9413 430.093 16.568C429.41 16.1947 428.877 15.6613 428.493 14.968C428.109 14.2747 427.917 13.464 427.917 12.536C427.917 11.608 428.103 10.7973 428.477 10.104C428.861 9.41067 429.394 8.87733 430.077 8.504C430.759 8.13067 431.543 7.944 432.429 7.944C433.293 7.944 434.061 8.12533 434.733 8.488C435.405 8.85067 435.927 9.368 436.301 10.04C436.685 10.712 436.877 11.496 436.877 12.392ZM434.077 11.672C434.077 11.2027 433.917 10.8293 433.597 10.552C433.277 10.2747 432.877 10.136 432.397 10.136C431.938 10.136 431.549 10.2693 431.229 10.536C430.919 10.8027 430.727 11.1813 430.653 11.672H434.077ZM443.296 14.68V17H441.904C440.912 17 440.139 16.76 439.584 16.28C439.029 15.7893 438.752 14.9947 438.752 13.896V10.344H437.664V8.072H438.752V5.896H441.488V8.072H443.28V10.344H441.488V13.928C441.488 14.1947 441.552 14.3867 441.68 14.504C441.808 14.6213 442.021 14.68 442.32 14.68H443.296ZM444.452 14.808C444.815 14.52 444.98 14.3867 444.948 14.408C445.993 13.544 446.815 12.8347 447.412 12.28C448.02 11.7253 448.532 11.144 448.948 10.536C449.364 9.928 449.572 9.336 449.572 8.76C449.572 8.32267 449.471 7.98133 449.268 7.736C449.065 7.49067 448.761 7.368 448.356 7.368C447.951 7.368 447.631 7.52267 447.396 7.832C447.172 8.13067 447.06 8.55733 447.06 9.112H444.42C444.441 8.20533 444.633 7.448 444.996 6.84C445.369 6.232 445.855 5.784 446.452 5.496C447.06 5.208 447.732 5.064 448.468 5.064C449.737 5.064 450.692 5.38933 451.332 6.04C451.983 6.69067 452.308 7.53867 452.308 8.584C452.308 9.72533 451.919 10.7867 451.14 11.768C450.361 12.7387 449.369 13.688 448.164 14.616H452.484V16.84H444.452V14.808ZM453.753 14.92V12.712L458.809 5.48H461.865V12.552H463.177V14.92H461.865V17H459.129V14.92H453.753ZM459.321 8.488L456.633 12.552H459.321V8.488ZM466.069 17.128C465.589 17.128 465.194 16.9893 464.885 16.712C464.586 16.424 464.437 16.072 464.437 15.656C464.437 15.2293 464.586 14.872 464.885 14.584C465.194 14.296 465.589 14.152 466.069 14.152C466.538 14.152 466.922 14.296 467.221 14.584C467.53 14.872 467.685 15.2293 467.685 15.656C467.685 16.072 467.53 16.424 467.221 16.712C466.922 16.9893 466.538 17.128 466.069 17.128ZM466.069 10.616C465.589 10.616 465.194 10.4773 464.885 10.2C464.586 9.912 464.437 9.56 464.437 9.144C464.437 8.71733 464.586 8.36 464.885 8.072C465.194 7.784 465.589 7.64 466.069 7.64C466.538 7.64 466.922 7.784 467.221 8.072C467.53 8.36 467.685 8.71733 467.685 9.144C467.685 9.56 467.53 9.912 467.221 10.2C466.922 10.4773 466.538 10.616 466.069 10.616ZM476.79 17.112C475.969 17.112 475.233 16.9787 474.582 16.712C473.932 16.4453 473.409 16.0507 473.014 15.528C472.63 15.0053 472.428 14.376 472.406 13.64H475.318C475.361 14.056 475.505 14.376 475.75 14.6C475.996 14.8133 476.316 14.92 476.71 14.92C477.116 14.92 477.436 14.8293 477.67 14.648C477.905 14.456 478.022 14.1947 478.022 13.864C478.022 13.5867 477.926 13.3573 477.734 13.176C477.553 12.9947 477.324 12.8453 477.046 12.728C476.78 12.6107 476.396 12.4773 475.894 12.328C475.169 12.104 474.577 11.88 474.118 11.656C473.66 11.432 473.265 11.1013 472.934 10.664C472.604 10.2267 472.438 9.656 472.438 8.952C472.438 7.90667 472.817 7.09067 473.574 6.504C474.332 5.90667 475.318 5.608 476.534 5.608C477.772 5.608 478.769 5.90667 479.526 6.504C480.284 7.09067 480.689 7.912 480.742 8.968H477.782C477.761 8.60533 477.628 8.32267 477.382 8.12C477.137 7.90667 476.822 7.8 476.438 7.8C476.108 7.8 475.841 7.89067 475.638 8.072C475.436 8.24267 475.334 8.49333 475.334 8.824C475.334 9.18667 475.505 9.46933 475.846 9.672C476.188 9.87467 476.721 10.0933 477.446 10.328C478.172 10.5733 478.758 10.808 479.206 11.032C479.665 11.256 480.06 11.5813 480.39 12.008C480.721 12.4347 480.886 12.984 480.886 13.656C480.886 14.296 480.721 14.8773 480.39 15.4C480.07 15.9227 479.601 16.3387 478.982 16.648C478.364 16.9573 477.633 17.112 476.79 17.112ZM490.986 12.392C490.986 12.648 490.97 12.9147 490.938 13.192H484.746C484.789 13.7467 484.965 14.1733 485.274 14.472C485.594 14.76 485.983 14.904 486.442 14.904C487.125 14.904 487.599 14.616 487.866 14.04H490.778C490.629 14.6267 490.357 15.1547 489.962 15.624C489.578 16.0933 489.093 16.4613 488.506 16.728C487.919 16.9947 487.263 17.128 486.538 17.128C485.663 17.128 484.885 16.9413 484.202 16.568C483.519 16.1947 482.986 15.6613 482.602 14.968C482.218 14.2747 482.026 13.464 482.026 12.536C482.026 11.608 482.213 10.7973 482.586 10.104C482.97 9.41067 483.503 8.87733 484.186 8.504C484.869 8.13067 485.653 7.944 486.538 7.944C487.402 7.944 488.17 8.12533 488.842 8.488C489.514 8.85067 490.037 9.368 490.41 10.04C490.794 10.712 490.986 11.496 490.986 12.392ZM488.186 11.672C488.186 11.2027 488.026 10.8293 487.706 10.552C487.386 10.2747 486.986 10.136 486.506 10.136C486.047 10.136 485.658 10.2693 485.338 10.536C485.029 10.8027 484.837 11.1813 484.762 11.672H488.186ZM491.886 12.52C491.886 11.6027 492.056 10.7973 492.398 10.104C492.75 9.41067 493.224 8.87733 493.822 8.504C494.419 8.13067 495.086 7.944 495.822 7.944C496.451 7.944 497 8.072 497.47 8.328C497.95 8.584 498.318 8.92 498.574 9.336V8.072H501.31V17H498.574V15.736C498.307 16.152 497.934 16.488 497.454 16.744C496.984 17 496.435 17.128 495.806 17.128C495.08 17.128 494.419 16.9413 493.822 16.568C493.224 16.184 492.75 15.6453 492.398 14.952C492.056 14.248 491.886 13.4373 491.886 12.52ZM498.574 12.536C498.574 11.8533 498.382 11.3147 497.998 10.92C497.624 10.5253 497.166 10.328 496.622 10.328C496.078 10.328 495.614 10.5253 495.23 10.92C494.856 11.304 494.67 11.8373 494.67 12.52C494.67 13.2027 494.856 13.7467 495.23 14.152C495.614 14.5467 496.078 14.744 496.622 14.744C497.166 14.744 497.624 14.5467 497.998 14.152C498.382 13.7573 498.574 13.2187 498.574 12.536ZM514.681 7.976C515.79 7.976 516.67 8.312 517.321 8.984C517.982 9.656 518.313 10.5893 518.313 11.784V17H515.593V12.152C515.593 11.576 515.438 11.1333 515.129 10.824C514.83 10.504 514.414 10.344 513.881 10.344C513.348 10.344 512.926 10.504 512.617 10.824C512.318 11.1333 512.169 11.576 512.169 12.152V17H509.449V12.152C509.449 11.576 509.294 11.1333 508.985 10.824C508.686 10.504 508.27 10.344 507.737 10.344C507.204 10.344 506.782 10.504 506.473 10.824C506.174 11.1333 506.025 11.576 506.025 12.152V17H503.289V8.072H506.025V9.192C506.302 8.81867 506.665 8.52533 507.113 8.312C507.561 8.088 508.068 7.976 508.633 7.976C509.305 7.976 509.902 8.12 510.425 8.408C510.958 8.696 511.374 9.10667 511.673 9.64C511.982 9.14933 512.404 8.74933 512.937 8.44C513.47 8.13067 514.052 7.976 514.681 7.976ZM522.962 5.16V17H520.226V5.16H522.962ZM533.361 12.392C533.361 12.648 533.345 12.9147 533.313 13.192H527.121C527.164 13.7467 527.34 14.1733 527.649 14.472C527.969 14.76 528.358 14.904 528.817 14.904C529.5 14.904 529.974 14.616 530.241 14.04H533.153C533.004 14.6267 532.732 15.1547 532.337 15.624C531.953 16.0933 531.468 16.4613 530.881 16.728C530.294 16.9947 529.638 17.128 528.913 17.128C528.038 17.128 527.26 16.9413 526.577 16.568C525.894 16.1947 525.361 15.6613 524.977 14.968C524.593 14.2747 524.401 13.464 524.401 12.536C524.401 11.608 524.588 10.7973 524.961 10.104C525.345 9.41067 525.878 8.87733 526.561 8.504C527.244 8.13067 528.028 7.944 528.913 7.944C529.777 7.944 530.545 8.12533 531.217 8.488C531.889 8.85067 532.412 9.368 532.785 10.04C533.169 10.712 533.361 11.496 533.361 12.392ZM530.561 11.672C530.561 11.2027 530.401 10.8293 530.081 10.552C529.761 10.2747 529.361 10.136 528.881 10.136C528.422 10.136 528.033 10.2693 527.713 10.536C527.404 10.8027 527.212 11.1813 527.137 11.672H530.561ZM538.437 17.128C537.658 17.128 536.965 16.9947 536.357 16.728C535.749 16.4613 535.269 16.0987 534.917 15.64C534.565 15.1707 534.367 14.648 534.325 14.072H537.029C537.061 14.3813 537.205 14.632 537.461 14.824C537.717 15.016 538.031 15.112 538.405 15.112C538.746 15.112 539.007 15.048 539.189 14.92C539.381 14.7813 539.477 14.6053 539.477 14.392C539.477 14.136 539.343 13.9493 539.077 13.832C538.81 13.704 538.378 13.5653 537.781 13.416C537.141 13.2667 536.607 13.112 536.181 12.952C535.754 12.7813 535.386 12.52 535.077 12.168C534.767 11.8053 534.613 11.32 534.613 10.712C534.613 10.2 534.751 9.736 535.029 9.32C535.317 8.89333 535.733 8.55733 536.277 8.312C536.831 8.06667 537.487 7.944 538.245 7.944C539.365 7.944 540.245 8.22133 540.885 8.776C541.535 9.33067 541.909 10.0667 542.005 10.984H539.477C539.434 10.6747 539.295 10.4293 539.061 10.248C538.837 10.0667 538.538 9.976 538.165 9.976C537.845 9.976 537.599 10.04 537.429 10.168C537.258 10.2853 537.173 10.4507 537.173 10.664C537.173 10.92 537.306 11.112 537.573 11.24C537.85 11.368 538.277 11.496 538.853 11.624C539.514 11.7947 540.053 11.9653 540.469 12.136C540.885 12.296 541.247 12.5627 541.557 12.936C541.877 13.2987 542.042 13.7893 542.053 14.408C542.053 14.9307 541.903 15.4 541.605 15.816C541.317 16.2213 540.895 16.5413 540.341 16.776C539.797 17.0107 539.162 17.128 538.437 17.128ZM547.358 17.128C546.58 17.128 545.886 16.9947 545.278 16.728C544.67 16.4613 544.19 16.0987 543.838 15.64C543.486 15.1707 543.289 14.648 543.246 14.072H545.95C545.982 14.3813 546.126 14.632 546.382 14.824C546.638 15.016 546.953 15.112 547.326 15.112C547.668 15.112 547.929 15.048 548.11 14.92C548.302 14.7813 548.398 14.6053 548.398 14.392C548.398 14.136 548.265 13.9493 547.998 13.832C547.732 13.704 547.3 13.5653 546.702 13.416C546.062 13.2667 545.529 13.112 545.102 12.952C544.676 12.7813 544.308 12.52 543.998 12.168C543.689 11.8053 543.534 11.32 543.534 10.712C543.534 10.2 543.673 9.736 543.95 9.32C544.238 8.89333 544.654 8.55733 545.198 8.312C545.753 8.06667 546.409 7.944 547.166 7.944C548.286 7.944 549.166 8.22133 549.806 8.776C550.457 9.33067 550.83 10.0667 550.926 10.984H548.398C548.356 10.6747 548.217 10.4293 547.982 10.248C547.758 10.0667 547.46 9.976 547.086 9.976C546.766 9.976 546.521 10.04 546.35 10.168C546.18 10.2853 546.094 10.4507 546.094 10.664C546.094 10.92 546.228 11.112 546.494 11.24C546.772 11.368 547.198 11.496 547.774 11.624C548.436 11.7947 548.974 11.9653 549.39 12.136C549.806 12.296 550.169 12.5627 550.478 12.936C550.798 13.2987 550.964 13.7893 550.974 14.408C550.974 14.9307 550.825 15.4 550.526 15.816C550.238 16.2213 549.817 16.5413 549.262 16.776C548.718 17.0107 548.084 17.128 547.358 17.128ZM563.079 5.768V13.416C563.079 14.6 562.743 15.512 562.071 16.152C561.41 16.792 560.514 17.112 559.383 17.112C558.199 17.112 557.25 16.776 556.535 16.104C555.82 15.432 555.463 14.4773 555.463 13.24H558.183C558.183 13.7093 558.279 14.0667 558.471 14.312C558.663 14.5467 558.94 14.664 559.303 14.664C559.634 14.664 559.89 14.5573 560.071 14.344C560.252 14.1307 560.343 13.8213 560.343 13.416V5.768H563.079ZM569.353 17.128C568.478 17.128 567.689 16.9413 566.985 16.568C566.292 16.1947 565.742 15.6613 565.337 14.968C564.942 14.2747 564.745 13.464 564.745 12.536C564.745 11.6187 564.948 10.8133 565.353 10.12C565.758 9.416 566.313 8.87733 567.017 8.504C567.721 8.13067 568.51 7.944 569.385 7.944C570.26 7.944 571.049 8.13067 571.753 8.504C572.457 8.87733 573.012 9.416 573.417 10.12C573.822 10.8133 574.025 11.6187 574.025 12.536C574.025 13.4533 573.817 14.264 573.401 14.968C572.996 15.6613 572.436 16.1947 571.721 16.568C571.017 16.9413 570.228 17.128 569.353 17.128ZM569.353 14.76C569.876 14.76 570.318 14.568 570.681 14.184C571.054 13.8 571.241 13.2507 571.241 12.536C571.241 11.8213 571.06 11.272 570.697 10.888C570.345 10.504 569.908 10.312 569.385 10.312C568.852 10.312 568.409 10.504 568.057 10.888C567.705 11.2613 567.529 11.8107 567.529 12.536C567.529 13.2507 567.7 13.8 568.041 14.184C568.393 14.568 568.83 14.76 569.353 14.76ZM584.292 8.072V17H581.556V15.784C581.279 16.1787 580.9 16.4987 580.42 16.744C579.951 16.9787 579.428 17.096 578.852 17.096C578.17 17.096 577.567 16.9467 577.044 16.648C576.522 16.3387 576.116 15.896 575.828 15.32C575.54 14.744 575.396 14.0667 575.396 13.288V8.072H578.116V12.92C578.116 13.5173 578.271 13.9813 578.58 14.312C578.89 14.6427 579.306 14.808 579.828 14.808C580.362 14.808 580.783 14.6427 581.092 14.312C581.402 13.9813 581.556 13.5173 581.556 12.92V8.072H584.292ZM588.994 9.56C589.314 9.06933 589.714 8.68533 590.194 8.408C590.674 8.12 591.207 7.976 591.794 7.976V10.872H591.042C590.359 10.872 589.847 11.0213 589.506 11.32C589.164 11.608 588.994 12.12 588.994 12.856V17H586.258V8.072H588.994V9.56ZM598.541 7.976C599.587 7.976 600.419 8.31733 601.037 9C601.667 9.672 601.981 10.6 601.981 11.784V17H599.261V12.152C599.261 11.5547 599.107 11.0907 598.797 10.76C598.488 10.4293 598.072 10.264 597.549 10.264C597.027 10.264 596.611 10.4293 596.301 10.76C595.992 11.0907 595.837 11.5547 595.837 12.152V17H593.101V8.072H595.837V9.256C596.115 8.86133 596.488 8.552 596.957 8.328C597.427 8.09333 597.955 7.976 598.541 7.976ZM612.299 12.392C612.299 12.648 612.283 12.9147 612.251 13.192H606.059C606.101 13.7467 606.277 14.1733 606.587 14.472C606.907 14.76 607.296 14.904 607.755 14.904C608.437 14.904 608.912 14.616 609.179 14.04H612.091C611.941 14.6267 611.669 15.1547 611.275 15.624C610.891 16.0933 610.405 16.4613 609.819 16.728C609.232 16.9947 608.576 17.128 607.851 17.128C606.976 17.128 606.197 16.9413 605.515 16.568C604.832 16.1947 604.299 15.6613 603.915 14.968C603.531 14.2747 603.339 13.464 603.339 12.536C603.339 11.608 603.525 10.7973 603.899 10.104C604.283 9.41067 604.816 8.87733 605.499 8.504C606.181 8.13067 606.965 7.944 607.851 7.944C608.715 7.944 609.483 8.12533 610.155 8.488C610.827 8.85067 611.349 9.368 611.723 10.04C612.107 10.712 612.299 11.496 612.299 12.392ZM609.499 11.672C609.499 11.2027 609.339 10.8293 609.019 10.552C608.699 10.2747 608.299 10.136 607.819 10.136C607.36 10.136 606.971 10.2693 606.651 10.536C606.341 10.8027 606.149 11.1813 606.075 11.672H609.499ZM622.862 8.072L617.262 21.24H614.318L616.366 16.696L612.734 8.072H615.79L617.854 13.656L619.902 8.072H622.862ZM627.483 17.128C626.705 17.128 626.011 16.9947 625.403 16.728C624.795 16.4613 624.315 16.0987 623.963 15.64C623.611 15.1707 623.414 14.648 623.371 14.072H626.075C626.107 14.3813 626.251 14.632 626.507 14.824C626.763 15.016 627.078 15.112 627.451 15.112C627.793 15.112 628.054 15.048 628.235 14.92C628.427 14.7813 628.523 14.6053 628.523 14.392C628.523 14.136 628.39 13.9493 628.123 13.832C627.857 13.704 627.425 13.5653 626.827 13.416C626.187 13.2667 625.654 13.112 625.227 12.952C624.801 12.7813 624.433 12.52 624.123 12.168C623.814 11.8053 623.659 11.32 623.659 10.712C623.659 10.2 623.798 9.736 624.075 9.32C624.363 8.89333 624.779 8.55733 625.323 8.312C625.878 8.06667 626.534 7.944 627.291 7.944C628.411 7.944 629.291 8.22133 629.931 8.776C630.582 9.33067 630.955 10.0667 631.051 10.984H628.523C628.481 10.6747 628.342 10.4293 628.107 10.248C627.883 10.0667 627.585 9.976 627.211 9.976C626.891 9.976 626.646 10.04 626.475 10.168C626.305 10.2853 626.219 10.4507 626.219 10.664C626.219 10.92 626.353 11.112 626.619 11.24C626.897 11.368 627.323 11.496 627.899 11.624C628.561 11.7947 629.099 11.9653 629.515 12.136C629.931 12.296 630.294 12.5627 630.603 12.936C630.923 13.2987 631.089 13.7893 631.099 14.408C631.099 14.9307 630.95 15.4 630.651 15.816C630.363 16.2213 629.942 16.5413 629.387 16.776C628.843 17.0107 628.209 17.128 627.483 17.128ZM635.717 14.472L633.941 19.064H632.197L633.125 14.472H635.717ZM643.446 5.768V12.488C643.446 13.16 643.611 13.6773 643.942 14.04C644.272 14.4027 644.758 14.584 645.398 14.584C646.038 14.584 646.528 14.4027 646.87 14.04C647.211 13.6773 647.382 13.16 647.382 12.488V5.768H650.118V12.472C650.118 13.4747 649.904 14.3227 649.478 15.016C649.051 15.7093 648.475 16.232 647.75 16.584C647.035 16.936 646.235 17.112 645.35 17.112C644.464 17.112 643.67 16.9413 642.966 16.6C642.272 16.248 641.723 15.7253 641.318 15.032C640.912 14.328 640.71 13.4747 640.71 12.472V5.768H643.446ZM657.479 7.976C658.524 7.976 659.356 8.31733 659.975 9C660.604 9.672 660.919 10.6 660.919 11.784V17H658.199V12.152C658.199 11.5547 658.044 11.0907 657.735 10.76C657.426 10.4293 657.01 10.264 656.487 10.264C655.964 10.264 655.548 10.4293 655.239 10.76C654.93 11.0907 654.775 11.5547 654.775 12.152V17H652.039V8.072H654.775V9.256C655.052 8.86133 655.426 8.552 655.895 8.328C656.364 8.09333 656.892 7.976 657.479 7.976ZM665.556 9.56C665.876 9.06933 666.276 8.68533 666.756 8.408C667.236 8.12 667.769 7.976 668.356 7.976V10.872H667.604C666.921 10.872 666.409 11.0213 666.068 11.32C665.727 11.608 665.556 12.12 665.556 12.856V17H662.82V8.072H665.556V9.56ZM671.04 7.144C670.56 7.144 670.165 7.00533 669.856 6.728C669.557 6.44 669.408 6.088 669.408 5.672C669.408 5.24533 669.557 4.89333 669.856 4.616C670.165 4.328 670.56 4.184 671.04 4.184C671.509 4.184 671.893 4.328 672.192 4.616C672.501 4.89333 672.656 5.24533 672.656 5.672C672.656 6.088 672.501 6.44 672.192 6.728C671.893 7.00533 671.509 7.144 671.04 7.144ZM672.4 8.072V17H669.664V8.072H672.4ZM678.399 14.44L680.335 8.072H683.247L680.079 17H676.703L673.535 8.072H676.463L678.399 14.44ZM683.854 12.52C683.854 11.6027 684.025 10.7973 684.366 10.104C684.718 9.41067 685.193 8.87733 685.79 8.504C686.388 8.13067 687.054 7.944 687.79 7.944C688.42 7.944 688.969 8.072 689.438 8.328C689.918 8.584 690.286 8.92 690.542 9.336V8.072H693.278V17H690.542V15.736C690.276 16.152 689.902 16.488 689.422 16.744C688.953 17 688.404 17.128 687.774 17.128C687.049 17.128 686.388 16.9413 685.79 16.568C685.193 16.184 684.718 15.6453 684.366 14.952C684.025 14.248 683.854 13.4373 683.854 12.52ZM690.542 12.536C690.542 11.8533 690.35 11.3147 689.966 10.92C689.593 10.5253 689.134 10.328 688.59 10.328C688.046 10.328 687.582 10.5253 687.198 10.92C686.825 11.304 686.638 11.8373 686.638 12.52C686.638 13.2027 686.825 13.7467 687.198 14.152C687.582 14.5467 688.046 14.744 688.59 14.744C689.134 14.744 689.593 14.5467 689.966 14.152C690.35 13.7573 690.542 13.2187 690.542 12.536ZM697.994 5.16V17H695.258V5.16H697.994ZM702.712 5.16V17H699.976V5.16H702.712ZM713.111 12.392C713.111 12.648 713.095 12.9147 713.063 13.192H706.871C706.914 13.7467 707.09 14.1733 707.399 14.472C707.719 14.76 708.108 14.904 708.567 14.904C709.25 14.904 709.724 14.616 709.991 14.04H712.903C712.754 14.6267 712.482 15.1547 712.087 15.624C711.703 16.0933 711.218 16.4613 710.631 16.728C710.044 16.9947 709.388 17.128 708.663 17.128C707.788 17.128 707.01 16.9413 706.327 16.568C705.644 16.1947 705.111 15.6613 704.727 14.968C704.343 14.2747 704.151 13.464 704.151 12.536C704.151 11.608 704.338 10.7973 704.711 10.104C705.095 9.41067 705.628 8.87733 706.311 8.504C706.994 8.13067 707.778 7.944 708.663 7.944C709.527 7.944 710.295 8.12533 710.967 8.488C711.639 8.85067 712.162 9.368 712.535 10.04C712.919 10.712 713.111 11.496 713.111 12.392ZM710.311 11.672C710.311 11.2027 710.151 10.8293 709.831 10.552C709.511 10.2747 709.111 10.136 708.631 10.136C708.172 10.136 707.783 10.2693 707.463 10.536C707.154 10.8027 706.962 11.1813 706.887 11.672H710.311ZM714.011 12.52C714.011 11.6027 714.181 10.7973 714.523 10.104C714.875 9.41067 715.349 8.87733 715.947 8.504C716.544 8.13067 717.211 7.944 717.947 7.944C718.533 7.944 719.067 8.06667 719.547 8.312C720.037 8.55733 720.421 8.888 720.699 9.304V5.16H723.435V17H720.699V15.72C720.443 16.1467 720.075 16.488 719.595 16.744C719.125 17 718.576 17.128 717.947 17.128C717.211 17.128 716.544 16.9413 715.947 16.568C715.349 16.184 714.875 15.6453 714.523 14.952C714.181 14.248 714.011 13.4373 714.011 12.52ZM720.699 12.536C720.699 11.8533 720.507 11.3147 720.123 10.92C719.749 10.5253 719.291 10.328 718.747 10.328C718.203 10.328 717.739 10.5253 717.355 10.92C716.981 11.304 716.795 11.8373 716.795 12.52C716.795 13.2027 716.981 13.7467 717.355 14.152C717.739 14.5467 718.203 14.744 718.747 14.744C719.291 14.744 719.749 14.5467 720.123 14.152C720.507 13.7573 720.699 13.2187 720.699 12.536ZM736.885 5.768V7.96H733.909V17H731.173V7.96H728.197V5.768H736.885ZM740.994 9.56C741.314 9.06933 741.714 8.68533 742.194 8.408C742.674 8.12 743.207 7.976 743.794 7.976V10.872H743.042C742.359 10.872 741.847 11.0213 741.506 11.32C741.164 11.608 740.994 12.12 740.994 12.856V17H738.258V8.072H740.994V9.56ZM744.557 12.52C744.557 11.6027 744.728 10.7973 745.069 10.104C745.421 9.41067 745.896 8.87733 746.493 8.504C747.091 8.13067 747.757 7.944 748.493 7.944C749.123 7.944 749.672 8.072 750.141 8.328C750.621 8.584 750.989 8.92 751.245 9.336V8.072H753.981V17H751.245V15.736C750.979 16.152 750.605 16.488 750.125 16.744C749.656 17 749.107 17.128 748.477 17.128C747.752 17.128 747.091 16.9413 746.493 16.568C745.896 16.184 745.421 15.6453 745.069 14.952C744.728 14.248 744.557 13.4373 744.557 12.52ZM751.245 12.536C751.245 11.8533 751.053 11.3147 750.669 10.92C750.296 10.5253 749.837 10.328 749.293 10.328C748.749 10.328 748.285 10.5253 747.901 10.92C747.528 11.304 747.341 11.8373 747.341 12.52C747.341 13.2027 747.528 13.7467 747.901 14.152C748.285 14.5467 748.749 14.744 749.293 14.744C749.837 14.744 750.296 14.5467 750.669 14.152C751.053 13.7573 751.245 13.2187 751.245 12.536ZM759.977 14.44L761.913 8.072H764.825L761.657 17H758.281L755.113 8.072H758.041L759.977 14.44ZM774.392 12.392C774.392 12.648 774.376 12.9147 774.344 13.192H768.152C768.195 13.7467 768.371 14.1733 768.68 14.472C769 14.76 769.39 14.904 769.848 14.904C770.531 14.904 771.006 14.616 771.272 14.04H774.184C774.035 14.6267 773.763 15.1547 773.368 15.624C772.984 16.0933 772.499 16.4613 771.912 16.728C771.326 16.9947 770.67 17.128 769.944 17.128C769.07 17.128 768.291 16.9413 767.608 16.568C766.926 16.1947 766.392 15.6613 766.008 14.968C765.624 14.2747 765.432 13.464 765.432 12.536C765.432 11.608 765.619 10.7973 765.992 10.104C766.376 9.41067 766.91 8.87733 767.592 8.504C768.275 8.13067 769.059 7.944 769.944 7.944C770.808 7.944 771.576 8.12533 772.248 8.488C772.92 8.85067 773.443 9.368 773.816 10.04C774.2 10.712 774.392 11.496 774.392 12.392ZM771.592 11.672C771.592 11.2027 771.432 10.8293 771.112 10.552C770.792 10.2747 770.392 10.136 769.912 10.136C769.454 10.136 769.064 10.2693 768.744 10.536C768.435 10.8027 768.243 11.1813 768.168 11.672H771.592ZM778.572 5.16V17H775.836V5.16H778.572ZM799.401 5.768L796.473 17H793.161L791.369 9.608L789.513 17H786.201L783.353 5.768H786.281L787.897 13.944L789.897 5.768H792.905L794.825 13.944L796.457 5.768H799.401ZM802.149 7.144C801.669 7.144 801.275 7.00533 800.965 6.728C800.667 6.44 800.517 6.088 800.517 5.672C800.517 5.24533 800.667 4.89333 800.965 4.616C801.275 4.328 801.669 4.184 802.149 4.184C802.619 4.184 803.003 4.328 803.301 4.616C803.611 4.89333 803.765 5.24533 803.765 5.672C803.765 6.088 803.611 6.44 803.301 6.728C803.003 7.00533 802.619 7.144 802.149 7.144ZM803.509 8.072V17H800.773V8.072H803.509ZM809.124 17.128C808.345 17.128 807.652 16.9947 807.044 16.728C806.436 16.4613 805.956 16.0987 805.604 15.64C805.252 15.1707 805.055 14.648 805.012 14.072H807.716C807.748 14.3813 807.892 14.632 808.148 14.824C808.404 15.016 808.719 15.112 809.092 15.112C809.433 15.112 809.695 15.048 809.876 14.92C810.068 14.7813 810.164 14.6053 810.164 14.392C810.164 14.136 810.031 13.9493 809.764 13.832C809.497 13.704 809.065 13.5653 808.468 13.416C807.828 13.2667 807.295 13.112 806.868 12.952C806.441 12.7813 806.073 12.52 805.764 12.168C805.455 11.8053 805.3 11.32 805.3 10.712C805.3 10.2 805.439 9.736 805.716 9.32C806.004 8.89333 806.42 8.55733 806.964 8.312C807.519 8.06667 808.175 7.944 808.932 7.944C810.052 7.944 810.932 8.22133 811.572 8.776C812.223 9.33067 812.596 10.0667 812.692 10.984H810.164C810.121 10.6747 809.983 10.4293 809.748 10.248C809.524 10.0667 809.225 9.976 808.852 9.976C808.532 9.976 808.287 10.04 808.116 10.168C807.945 10.2853 807.86 10.4507 807.86 10.664C807.86 10.92 807.993 11.112 808.26 11.24C808.537 11.368 808.964 11.496 809.54 11.624C810.201 11.7947 810.74 11.9653 811.156 12.136C811.572 12.296 811.935 12.5627 812.244 12.936C812.564 13.2987 812.729 13.7893 812.74 14.408C812.74 14.9307 812.591 15.4 812.292 15.816C812.004 16.2213 811.583 16.5413 811.028 16.776C810.484 17.0107 809.849 17.128 809.124 17.128ZM813.87 12.52C813.87 11.6027 814.041 10.7973 814.382 10.104C814.734 9.41067 815.209 8.87733 815.806 8.504C816.403 8.13067 817.07 7.944 817.806 7.944C818.393 7.944 818.926 8.06667 819.406 8.312C819.897 8.55733 820.281 8.888 820.558 9.304V5.16H823.294V17H820.558V15.72C820.302 16.1467 819.934 16.488 819.454 16.744C818.985 17 818.435 17.128 817.806 17.128C817.07 17.128 816.403 16.9413 815.806 16.568C815.209 16.184 814.734 15.6453 814.382 14.952C814.041 14.248 813.87 13.4373 813.87 12.52ZM820.558 12.536C820.558 11.8533 820.366 11.3147 819.982 10.92C819.609 10.5253 819.15 10.328 818.606 10.328C818.062 10.328 817.598 10.5253 817.214 10.92C816.841 11.304 816.654 11.8373 816.654 12.52C816.654 13.2027 816.841 13.7467 817.214 14.152C817.598 14.5467 818.062 14.744 818.606 14.744C819.15 14.744 819.609 14.5467 819.982 14.152C820.366 13.7573 820.558 13.2187 820.558 12.536ZM829.337 17.128C828.463 17.128 827.673 16.9413 826.969 16.568C826.276 16.1947 825.727 15.6613 825.321 14.968C824.927 14.2747 824.729 13.464 824.729 12.536C824.729 11.6187 824.932 10.8133 825.337 10.12C825.743 9.416 826.297 8.87733 827.001 8.504C827.705 8.13067 828.495 7.944 829.369 7.944C830.244 7.944 831.033 8.13067 831.737 8.504C832.441 8.87733 832.996 9.416 833.401 10.12C833.807 10.8133 834.009 11.6187 834.009 12.536C834.009 13.4533 833.801 14.264 833.385 14.968C832.98 15.6613 832.42 16.1947 831.705 16.568C831.001 16.9413 830.212 17.128 829.337 17.128ZM829.337 14.76C829.86 14.76 830.303 14.568 830.665 14.184C831.039 13.8 831.225 13.2507 831.225 12.536C831.225 11.8213 831.044 11.272 830.681 10.888C830.329 10.504 829.892 10.312 829.369 10.312C828.836 10.312 828.393 10.504 828.041 10.888C827.689 11.2613 827.513 11.8107 827.513 12.536C827.513 13.2507 827.684 13.8 828.025 14.184C828.377 14.568 828.815 14.76 829.337 14.76ZM846.853 7.976C847.962 7.976 848.842 8.312 849.493 8.984C850.154 9.656 850.485 10.5893 850.485 11.784V17H847.765V12.152C847.765 11.576 847.61 11.1333 847.301 10.824C847.002 10.504 846.586 10.344 846.053 10.344C845.519 10.344 845.098 10.504 844.789 10.824C844.49 11.1333 844.341 11.576 844.341 12.152V17H841.621V12.152C841.621 11.576 841.466 11.1333 841.157 10.824C840.858 10.504 840.442 10.344 839.909 10.344C839.375 10.344 838.954 10.504 838.645 10.824C838.346 11.1333 838.197 11.576 838.197 12.152V17H835.461V8.072H838.197V9.192C838.474 8.81867 838.837 8.52533 839.285 8.312C839.733 8.088 840.239 7.976 840.805 7.976C841.477 7.976 842.074 8.12 842.597 8.408C843.13 8.696 843.546 9.10667 843.845 9.64C844.154 9.14933 844.575 8.74933 845.109 8.44C845.642 8.13067 846.223 7.976 846.853 7.976ZM855.998 5.368L855.678 13.032H853.358L853.038 5.368H855.998ZM854.558 17.128C854.078 17.128 853.684 16.9893 853.374 16.712C853.076 16.424 852.926 16.072 852.926 15.656C852.926 15.2293 853.076 14.872 853.374 14.584C853.684 14.296 854.078 14.152 854.558 14.152C855.028 14.152 855.412 14.296 855.71 14.584C856.02 14.872 856.174 15.2293 856.174 15.656C856.174 16.072 856.02 16.424 855.71 16.712C855.412 16.9893 855.028 17.128 854.558 17.128ZM860.568 4.2L860.36 7.736H858.52L858.312 4.2H860.568ZM863.608 4.2L863.4 7.736H861.56L861.352 4.2H863.608Z" fill="#565656"/>
<path d="M901.25 19.3337C901.25 19.3337 907.5 14.3337 907.5 8.91699C907.5 5.4652 904.702 2.66699 901.25 2.66699C897.798 2.66699 895 5.4652 895 8.91699C895 14.3337 901.25 19.3337 901.25 19.3337Z" stroke="#07689F" stroke-linejoin="round"/>
<path d="M901.25 11.417C902.631 11.417 903.75 10.2977 903.75 8.91699C903.75 7.53628 902.631 6.41699 901.25 6.41699C899.869 6.41699 898.75 7.53628 898.75 8.91699C898.75 10.2977 899.869 11.417 901.25 11.417Z" stroke="#07689F" stroke-linejoin="round"/>
<path d="M919.29 6.5V5.252H921.786V14H920.406V6.5H919.29ZM924.421 12.14C925.189 11.476 925.793 10.932 926.233 10.508C926.681 10.076 927.053 9.628 927.349 9.164C927.645 8.7 927.793 8.236 927.793 7.772C927.793 7.292 927.677 6.916 927.445 6.644C927.221 6.372 926.865 6.236 926.377 6.236C925.905 6.236 925.537 6.388 925.273 6.692C925.017 6.988 924.881 7.388 924.865 7.892H923.545C923.569 6.98 923.841 6.284 924.361 5.804C924.889 5.316 925.557 5.072 926.365 5.072C927.237 5.072 927.917 5.312 928.405 5.792C928.901 6.272 929.149 6.912 929.149 7.712C929.149 8.288 929.001 8.844 928.705 9.38C928.417 9.908 928.069 10.384 927.661 10.808C927.261 11.224 926.749 11.708 926.125 12.26L925.585 12.74H929.389V13.88H923.557V12.884L924.421 12.14ZM930.567 7.412C930.615 6.668 930.899 6.088 931.419 5.672C931.947 5.256 932.619 5.048 933.435 5.048C933.995 5.048 934.479 5.148 934.887 5.348C935.295 5.548 935.603 5.82 935.811 6.164C936.019 6.508 936.123 6.896 936.123 7.328C936.123 7.824 935.991 8.248 935.727 8.6C935.463 8.952 935.147 9.188 934.779 9.308V9.356C935.251 9.5 935.619 9.764 935.883 10.148C936.147 10.524 936.279 11.008 936.279 11.6C936.279 12.072 936.171 12.492 935.955 12.86C935.739 13.228 935.419 13.52 934.995 13.736C934.571 13.944 934.063 14.048 933.471 14.048C932.607 14.048 931.895 13.828 931.335 13.388C930.783 12.94 930.487 12.3 930.447 11.468H931.767C931.799 11.892 931.963 12.24 932.259 12.512C932.555 12.776 932.955 12.908 933.459 12.908C933.947 12.908 934.323 12.776 934.587 12.512C934.851 12.24 934.983 11.892 934.983 11.468C934.983 10.908 934.803 10.512 934.443 10.28C934.091 10.04 933.547 9.92 932.811 9.92H932.499V8.792H932.823C933.471 8.784 933.963 8.676 934.299 8.468C934.643 8.26 934.815 7.932 934.815 7.484C934.815 7.1 934.691 6.796 934.443 6.572C934.195 6.34 933.843 6.224 933.387 6.224C932.939 6.224 932.591 6.34 932.343 6.572C932.095 6.796 931.947 7.076 931.899 7.412H930.567ZM944.817 14.084C944.041 14.084 943.325 13.904 942.669 13.544C942.021 13.176 941.505 12.668 941.121 12.02C940.745 11.364 940.557 10.628 940.557 9.812C940.557 8.996 940.745 8.264 941.121 7.616C941.505 6.968 942.021 6.464 942.669 6.104C943.325 5.736 944.041 5.552 944.817 5.552C945.601 5.552 946.317 5.736 946.965 6.104C947.621 6.464 948.137 6.968 948.513 7.616C948.889 8.264 949.077 8.996 949.077 9.812C949.077 10.628 948.889 11.364 948.513 12.02C948.137 12.668 947.621 13.176 946.965 13.544C946.317 13.904 945.601 14.084 944.817 14.084ZM944.817 12.896C945.369 12.896 945.861 12.772 946.293 12.524C946.725 12.268 947.061 11.908 947.301 11.444C947.549 10.972 947.673 10.428 947.673 9.812C947.673 9.196 947.549 8.656 947.301 8.192C947.061 7.728 946.725 7.372 946.293 7.124C945.861 6.876 945.369 6.752 944.817 6.752C944.265 6.752 943.773 6.876 943.341 7.124C942.909 7.372 942.569 7.728 942.321 8.192C942.081 8.656 941.961 9.196 941.961 9.812C941.961 10.428 942.081 10.972 942.321 11.444C942.569 11.908 942.909 12.268 943.341 12.524C943.773 12.772 944.265 12.896 944.817 12.896ZM953.255 10.652L955.391 14H953.843L952.415 11.756L951.071 14H949.643L951.779 10.748L949.643 7.388H951.191L952.619 9.632L953.963 7.388H955.391L953.255 10.652ZM959.184 8.504H957.96V14H956.58V8.504H955.8V7.388H956.58V6.92C956.58 6.16 956.78 5.608 957.18 5.264C957.588 4.912 958.224 4.736 959.088 4.736V5.876C958.672 5.876 958.38 5.956 958.212 6.116C958.044 6.268 957.96 6.536 957.96 6.92V7.388H959.184V8.504ZM963.264 14.108C962.64 14.108 962.076 13.968 961.572 13.688C961.068 13.4 960.672 13 960.384 12.488C960.096 11.968 959.952 11.368 959.952 10.688C959.952 10.016 960.1 9.42 960.396 8.9C960.692 8.38 961.096 7.98 961.608 7.7C962.12 7.42 962.692 7.28 963.324 7.28C963.956 7.28 964.528 7.42 965.04 7.7C965.552 7.98 965.956 8.38 966.252 8.9C966.548 9.42 966.696 10.016 966.696 10.688C966.696 11.36 966.544 11.956 966.24 12.476C965.936 12.996 965.52 13.4 964.992 13.688C964.472 13.968 963.896 14.108 963.264 14.108ZM963.264 12.92C963.616 12.92 963.944 12.836 964.248 12.668C964.56 12.5 964.812 12.248 965.004 11.912C965.196 11.576 965.292 11.168 965.292 10.688C965.292 10.208 965.2 9.804 965.016 9.476C964.832 9.14 964.588 8.888 964.284 8.72C963.98 8.552 963.652 8.468 963.3 8.468C962.948 8.468 962.62 8.552 962.316 8.72C962.02 8.888 961.784 9.14 961.608 9.476C961.432 9.804 961.344 10.208 961.344 10.688C961.344 11.4 961.524 11.952 961.884 12.344C962.252 12.728 962.712 12.92 963.264 12.92ZM969.416 8.348C969.616 8.012 969.88 7.752 970.208 7.568C970.544 7.376 970.94 7.28 971.396 7.28V8.696H971.048C970.512 8.696 970.104 8.832 969.824 9.104C969.552 9.376 969.416 9.848 969.416 10.52V14H968.048V7.388H969.416V8.348ZM972.198 10.664C972.198 10 972.334 9.412 972.606 8.9C972.886 8.388 973.262 7.992 973.734 7.712C974.214 7.424 974.746 7.28 975.33 7.28C975.762 7.28 976.186 7.376 976.602 7.568C977.026 7.752 977.362 8 977.61 8.312V5.12H978.99V14H977.61V13.004C977.386 13.324 977.074 13.588 976.674 13.796C976.282 14.004 975.83 14.108 975.318 14.108C974.742 14.108 974.214 13.964 973.734 13.676C973.262 13.38 972.886 12.972 972.606 12.452C972.334 11.924 972.198 11.328 972.198 10.664ZM977.61 10.688C977.61 10.232 977.514 9.836 977.322 9.5C977.138 9.164 976.894 8.908 976.59 8.732C976.286 8.556 975.958 8.468 975.606 8.468C975.254 8.468 974.926 8.556 974.622 8.732C974.318 8.9 974.07 9.152 973.878 9.488C973.694 9.816 973.602 10.208 973.602 10.664C973.602 11.12 973.694 11.52 973.878 11.864C974.07 12.208 974.318 12.472 974.622 12.656C974.934 12.832 975.262 12.92 975.606 12.92C975.958 12.92 976.286 12.832 976.59 12.656C976.894 12.48 977.138 12.224 977.322 11.888C977.514 11.544 977.61 11.144 977.61 10.688ZM986.652 14.084C986.092 14.084 985.588 13.988 985.14 13.796C984.692 13.596 984.34 13.316 984.084 12.956C983.828 12.596 983.7 12.176 983.7 11.696H985.164C985.196 12.056 985.336 12.352 985.584 12.584C985.84 12.816 986.196 12.932 986.652 12.932C987.124 12.932 987.492 12.82 987.756 12.596C988.02 12.364 988.152 12.068 988.152 11.708C988.152 11.428 988.068 11.2 987.9 11.024C987.74 10.848 987.536 10.712 987.288 10.616C987.048 10.52 986.712 10.416 986.28 10.304C985.736 10.16 985.292 10.016 984.948 9.872C984.612 9.72 984.324 9.488 984.084 9.176C983.844 8.864 983.724 8.448 983.724 7.928C983.724 7.448 983.844 7.028 984.084 6.668C984.324 6.308 984.66 6.032 985.092 5.84C985.524 5.648 986.024 5.552 986.592 5.552C987.4 5.552 988.06 5.756 988.572 6.164C989.092 6.564 989.38 7.116 989.436 7.82H987.924C987.9 7.516 987.756 7.256 987.492 7.04C987.228 6.824 986.88 6.716 986.448 6.716C986.056 6.716 985.736 6.816 985.488 7.016C985.24 7.216 985.116 7.504 985.116 7.88C985.116 8.136 985.192 8.348 985.344 8.516C985.504 8.676 985.704 8.804 985.944 8.9C986.184 8.996 986.512 9.1 986.928 9.212C987.48 9.364 987.928 9.516 988.272 9.668C988.624 9.82 988.92 10.056 989.16 10.376C989.408 10.688 989.532 11.108 989.532 11.636C989.532 12.06 989.416 12.46 989.184 12.836C988.96 13.212 988.628 13.516 988.188 13.748C987.756 13.972 987.244 14.084 986.652 14.084ZM992.742 8.504V12.164C992.742 12.412 992.798 12.592 992.91 12.704C993.03 12.808 993.23 12.86 993.51 12.86H994.35V14H993.27C992.654 14 992.182 13.856 991.854 13.568C991.526 13.28 991.362 12.812 991.362 12.164V8.504H990.582V7.388H991.362V5.744H992.742V7.388H994.35V8.504H992.742ZM996.979 8.348C997.179 8.012 997.443 7.752 997.771 7.568C998.107 7.376 998.503 7.28 998.959 7.28V8.696H998.611C998.075 8.696 997.667 8.832 997.387 9.104C997.115 9.376 996.979 9.848 996.979 10.52V14H995.611V7.388H996.979V8.348ZM1006.28 10.532C1006.28 10.78 1006.26 11.004 1006.23 11.204H1001.18C1001.22 11.732 1001.41 12.156 1001.76 12.476C1002.12 12.796 1002.55 12.956 1003.06 12.956C1003.8 12.956 1004.32 12.648 1004.62 12.032H1006.1C1005.9 12.64 1005.53 13.14 1005 13.532C1004.48 13.916 1003.84 14.108 1003.06 14.108C1002.43 14.108 1001.86 13.968 1001.36 13.688C1000.86 13.4 1000.47 13 1000.18 12.488C999.9 11.968 999.76 11.368 999.76 10.688C999.76 10.008 999.896 9.412 1000.17 8.9C1000.45 8.38 1000.84 7.98 1001.33 7.7C1001.84 7.42 1002.41 7.28 1003.06 7.28C1003.68 7.28 1004.24 7.416 1004.73 7.688C1005.22 7.96 1005.6 8.344 1005.87 8.84C1006.14 9.328 1006.28 9.892 1006.28 10.532ZM1004.85 10.1C1004.84 9.596 1004.66 9.192 1004.31 8.888C1003.96 8.584 1003.52 8.432 1003 8.432C1002.53 8.432 1002.12 8.584 1001.79 8.888C1001.45 9.184 1001.25 9.588 1001.19 10.1H1004.85ZM1013.68 10.532C1013.68 10.78 1013.67 11.004 1013.63 11.204H1008.58C1008.62 11.732 1008.82 12.156 1009.17 12.476C1009.52 12.796 1009.95 12.956 1010.47 12.956C1011.2 12.956 1011.72 12.648 1012.03 12.032H1013.5C1013.3 12.64 1012.94 13.14 1012.41 13.532C1011.89 13.916 1011.24 14.108 1010.47 14.108C1009.83 14.108 1009.27 13.968 1008.76 13.688C1008.27 13.4 1007.87 13 1007.59 12.488C1007.31 11.968 1007.17 11.368 1007.17 10.688C1007.17 10.008 1007.3 9.412 1007.57 8.9C1007.85 8.38 1008.24 7.98 1008.74 7.7C1009.24 7.42 1009.82 7.28 1010.47 7.28C1011.09 7.28 1011.65 7.416 1012.13 7.688C1012.62 7.96 1013 8.344 1013.27 8.84C1013.55 9.328 1013.68 9.892 1013.68 10.532ZM1012.25 10.1C1012.25 9.596 1012.07 9.192 1011.71 8.888C1011.36 8.584 1010.93 8.432 1010.41 8.432C1009.93 8.432 1009.53 8.584 1009.19 8.888C1008.86 9.184 1008.66 9.588 1008.59 10.1H1012.25ZM1016.62 8.504V12.164C1016.62 12.412 1016.68 12.592 1016.79 12.704C1016.91 12.808 1017.11 12.86 1017.39 12.86H1018.23V14H1017.15C1016.54 14 1016.06 13.856 1015.74 13.568C1015.41 13.28 1015.24 12.812 1015.24 12.164V8.504H1014.46V7.388H1015.24V5.744H1016.62V7.388H1018.23V8.504H1016.62ZM1020.99 12.356L1019.54 15.668H1018.65L1019.51 12.356H1020.99ZM1023.56 12.896H1026.38V14H1022.19V5.66H1023.56V12.896ZM1030.39 14.108C1029.77 14.108 1029.2 13.968 1028.7 13.688C1028.19 13.4 1027.8 13 1027.51 12.488C1027.22 11.968 1027.08 11.368 1027.08 10.688C1027.08 10.016 1027.23 9.42 1027.52 8.9C1027.82 8.38 1028.22 7.98 1028.73 7.7C1029.25 7.42 1029.82 7.28 1030.45 7.28C1031.08 7.28 1031.65 7.42 1032.17 7.7C1032.68 7.98 1033.08 8.38 1033.38 8.9C1033.67 9.42 1033.82 10.016 1033.82 10.688C1033.82 11.36 1033.67 11.956 1033.37 12.476C1033.06 12.996 1032.65 13.4 1032.12 13.688C1031.6 13.968 1031.02 14.108 1030.39 14.108ZM1030.39 12.92C1030.74 12.92 1031.07 12.836 1031.37 12.668C1031.69 12.5 1031.94 12.248 1032.13 11.912C1032.32 11.576 1032.42 11.168 1032.42 10.688C1032.42 10.208 1032.33 9.804 1032.14 9.476C1031.96 9.14 1031.71 8.888 1031.41 8.72C1031.11 8.552 1030.78 8.468 1030.43 8.468C1030.07 8.468 1029.75 8.552 1029.44 8.72C1029.15 8.888 1028.91 9.14 1028.73 9.476C1028.56 9.804 1028.47 10.208 1028.47 10.688C1028.47 11.4 1028.65 11.952 1029.01 12.344C1029.38 12.728 1029.84 12.92 1030.39 12.92ZM1038.51 7.28C1039.03 7.28 1039.49 7.388 1039.9 7.604C1040.32 7.82 1040.64 8.14 1040.87 8.564C1041.11 8.988 1041.22 9.5 1041.22 10.1V14H1039.87V10.304C1039.87 9.712 1039.72 9.26 1039.42 8.948C1039.13 8.628 1038.72 8.468 1038.21 8.468C1037.7 8.468 1037.29 8.628 1036.99 8.948C1036.69 9.26 1036.54 9.712 1036.54 10.304V14H1035.17V7.388H1036.54V8.144C1036.77 7.872 1037.05 7.66 1037.39 7.508C1037.75 7.356 1038.12 7.28 1038.51 7.28ZM1042.51 10.664C1042.51 10 1042.65 9.412 1042.92 8.9C1043.2 8.388 1043.57 7.992 1044.05 7.712C1044.53 7.424 1045.06 7.28 1045.64 7.28C1046.07 7.28 1046.5 7.376 1046.91 7.568C1047.34 7.752 1047.67 8 1047.92 8.312V5.12H1049.3V14H1047.92V13.004C1047.7 13.324 1047.39 13.588 1046.99 13.796C1046.59 14.004 1046.14 14.108 1045.63 14.108C1045.05 14.108 1044.53 13.964 1044.05 13.676C1043.57 13.38 1043.2 12.972 1042.92 12.452C1042.65 11.924 1042.51 11.328 1042.51 10.664ZM1047.92 10.688C1047.92 10.232 1047.83 9.836 1047.63 9.5C1047.45 9.164 1047.21 8.908 1046.9 8.732C1046.6 8.556 1046.27 8.468 1045.92 8.468C1045.57 8.468 1045.24 8.556 1044.93 8.732C1044.63 8.9 1044.38 9.152 1044.19 9.488C1044.01 9.816 1043.91 10.208 1043.91 10.664C1043.91 11.12 1044.01 11.52 1044.19 11.864C1044.38 12.208 1044.63 12.472 1044.93 12.656C1045.25 12.832 1045.57 12.92 1045.92 12.92C1046.27 12.92 1046.6 12.832 1046.9 12.656C1047.21 12.48 1047.45 12.224 1047.63 11.888C1047.83 11.544 1047.92 11.144 1047.92 10.688ZM1053.97 14.108C1053.34 14.108 1052.78 13.968 1052.28 13.688C1051.77 13.4 1051.38 13 1051.09 12.488C1050.8 11.968 1050.66 11.368 1050.66 10.688C1050.66 10.016 1050.8 9.42 1051.1 8.9C1051.4 8.38 1051.8 7.98 1052.31 7.7C1052.82 7.42 1053.4 7.28 1054.03 7.28C1054.66 7.28 1055.23 7.42 1055.74 7.7C1056.26 7.98 1056.66 8.38 1056.96 8.9C1057.25 9.42 1057.4 10.016 1057.4 10.688C1057.4 11.36 1057.25 11.956 1056.94 12.476C1056.64 12.996 1056.22 13.4 1055.7 13.688C1055.18 13.968 1054.6 14.108 1053.97 14.108ZM1053.97 12.92C1054.32 12.92 1054.65 12.836 1054.95 12.668C1055.26 12.5 1055.52 12.248 1055.71 11.912C1055.9 11.576 1056 11.168 1056 10.688C1056 10.208 1055.9 9.804 1055.72 9.476C1055.54 9.14 1055.29 8.888 1054.99 8.72C1054.68 8.552 1054.36 8.468 1054 8.468C1053.65 8.468 1053.32 8.552 1053.02 8.72C1052.72 8.888 1052.49 9.14 1052.31 9.476C1052.14 9.804 1052.05 10.208 1052.05 10.688C1052.05 11.4 1052.23 11.952 1052.59 12.344C1052.96 12.728 1053.42 12.92 1053.97 12.92ZM1062.09 7.28C1062.61 7.28 1063.07 7.388 1063.48 7.604C1063.9 7.82 1064.22 8.14 1064.45 8.564C1064.68 8.988 1064.8 9.5 1064.8 10.1V14H1063.44V10.304C1063.44 9.712 1063.3 9.26 1063 8.948C1062.7 8.628 1062.3 8.468 1061.79 8.468C1061.28 8.468 1060.87 8.628 1060.56 8.948C1060.27 9.26 1060.12 9.712 1060.12 10.304V14H1058.75V7.388H1060.12V8.144C1060.34 7.872 1060.63 7.66 1060.97 7.508C1061.32 7.356 1061.7 7.28 1062.09 7.28Z" fill="#565656"/>
<path d="M1110.41 9.58576C1110.51 8.87918 1110.48 8.1558 1110.3 7.46026C1110.07 6.54143 1109.6 5.67126 1108.88 4.95272C1108.16 4.23418 1107.29 3.75971 1106.37 3.52932C1105.68 3.35491 1104.95 3.32037 1104.25 3.4257" stroke="#07689F" stroke-linecap="round" stroke-linejoin="round"/>
<path d="M1107.25 9.25144C1107.36 8.49452 1107.12 7.69577 1106.54 7.11311C1105.96 6.53044 1105.16 6.29548 1104.4 6.40831" stroke="#07689F" stroke-linecap="round" stroke-linejoin="round"/>
<path d="M1098.99 4.66406C1099.29 4.66406 1099.57 4.82824 1099.72 5.09292L1100.74 6.92909C1100.87 7.16951 1100.88 7.4603 1100.75 7.70626L1099.77 9.67026C1099.77 9.67026 1100.06 11.1334 1101.25 12.3244C1102.44 13.5154 1103.9 13.795 1103.9 13.795L1105.86 12.8132C1106.11 12.6901 1106.4 12.6965 1106.64 12.8302L1108.48 13.854C1108.74 14.001 1108.91 14.2798 1108.91 14.5823V16.6963C1108.91 17.7728 1107.91 18.5503 1106.89 18.2061C1104.79 17.4993 1101.54 16.1533 1099.48 14.0921C1097.42 12.031 1096.07 8.77901 1095.37 6.68405C1095.02 5.66401 1095.8 4.66406 1096.88 4.66406H1098.99Z" stroke="#07689F" stroke-linejoin="round"/>
<path d="M1128.34 13.244H1125.92V15.728H1124.65V13.244H1122.22V12.092H1124.65V9.608H1125.92V12.092H1128.34V13.244ZM1130.12 15.176V14.144L1134.15 8.36H1135.81V13.988H1136.92V15.176H1135.81V17H1134.46V15.176H1130.12ZM1134.52 9.752L1131.69 13.988H1134.52V9.752ZM1137.89 15.176V14.144L1141.92 8.36H1143.58V13.988H1144.69V15.176H1143.58V17H1142.23V15.176H1137.89ZM1142.29 9.752L1139.46 13.988H1142.29V9.752ZM1149.7 15.14C1150.47 14.476 1151.07 13.932 1151.51 13.508C1151.96 13.076 1152.33 12.628 1152.63 12.164C1152.92 11.7 1153.07 11.236 1153.07 10.772C1153.07 10.292 1152.95 9.916 1152.72 9.644C1152.5 9.372 1152.14 9.236 1151.65 9.236C1151.18 9.236 1150.81 9.388 1150.55 9.692C1150.29 9.988 1150.16 10.388 1150.14 10.892H1148.82C1148.85 9.98 1149.12 9.284 1149.64 8.804C1150.17 8.316 1150.83 8.072 1151.64 8.072C1152.51 8.072 1153.19 8.312 1153.68 8.792C1154.18 9.272 1154.43 9.912 1154.43 10.712C1154.43 11.288 1154.28 11.844 1153.98 12.38C1153.69 12.908 1153.35 13.384 1152.94 13.808C1152.54 14.224 1152.03 14.708 1151.4 15.26L1150.86 15.74H1154.67V16.88H1148.83V15.884L1149.7 15.14ZM1155.87 12.512C1155.87 11.128 1156.1 10.048 1156.56 9.272C1157.04 8.488 1157.84 8.096 1158.99 8.096C1160.13 8.096 1160.94 8.488 1161.4 9.272C1161.87 10.048 1162.11 11.128 1162.11 12.512C1162.11 13.912 1161.87 15.008 1161.4 15.8C1160.94 16.584 1160.13 16.976 1158.99 16.976C1157.84 16.976 1157.04 16.584 1156.56 15.8C1156.1 15.008 1155.87 13.912 1155.87 12.512ZM1160.76 12.512C1160.76 11.864 1160.72 11.316 1160.63 10.868C1160.55 10.42 1160.38 10.056 1160.13 9.776C1159.87 9.488 1159.49 9.344 1158.99 9.344C1158.48 9.344 1158.1 9.488 1157.85 9.776C1157.59 10.056 1157.42 10.42 1157.33 10.868C1157.25 11.316 1157.21 11.864 1157.21 12.512C1157.21 13.184 1157.25 13.748 1157.33 14.204C1157.41 14.66 1157.58 15.028 1157.84 15.308C1158.1 15.588 1158.48 15.728 1158.99 15.728C1159.49 15.728 1159.87 15.588 1160.13 15.308C1160.39 15.028 1160.56 14.66 1160.64 14.204C1160.72 13.748 1160.76 13.184 1160.76 12.512ZM1172.22 9.308L1168.88 17H1167.5L1170.87 9.452H1166.43V8.288H1172.22V9.308ZM1173.21 9.5V8.252H1175.7V17H1174.32V9.5H1173.21ZM1178.34 15.14C1179.11 14.476 1179.71 13.932 1180.15 13.508C1180.6 13.076 1180.97 12.628 1181.27 12.164C1181.56 11.7 1181.71 11.236 1181.71 10.772C1181.71 10.292 1181.6 9.916 1181.36 9.644C1181.14 9.372 1180.78 9.236 1180.3 9.236C1179.82 9.236 1179.46 9.388 1179.19 9.692C1178.94 9.988 1178.8 10.388 1178.78 10.892H1177.46C1177.49 9.98 1177.76 9.284 1178.28 8.804C1178.81 8.316 1179.48 8.072 1180.28 8.072C1181.16 8.072 1181.84 8.312 1182.32 8.792C1182.82 9.272 1183.07 9.912 1183.07 10.712C1183.07 11.288 1182.92 11.844 1182.62 12.38C1182.34 12.908 1181.99 13.384 1181.58 13.808C1181.18 14.224 1180.67 14.708 1180.04 15.26L1179.5 15.74H1183.31V16.88H1177.48V15.884L1178.34 15.14ZM1184.49 10.412C1184.53 9.668 1184.82 9.088 1185.34 8.672C1185.87 8.256 1186.54 8.048 1187.35 8.048C1187.91 8.048 1188.4 8.148 1188.81 8.348C1189.21 8.548 1189.52 8.82 1189.73 9.164C1189.94 9.508 1190.04 9.896 1190.04 10.328C1190.04 10.824 1189.91 11.248 1189.65 11.6C1189.38 11.952 1189.07 12.188 1188.7 12.308V12.356C1189.17 12.5 1189.54 12.764 1189.8 13.148C1190.07 13.524 1190.2 14.008 1190.2 14.6C1190.2 15.072 1190.09 15.492 1189.87 15.86C1189.66 16.228 1189.34 16.52 1188.91 16.736C1188.49 16.944 1187.98 17.048 1187.39 17.048C1186.53 17.048 1185.81 16.828 1185.25 16.388C1184.7 15.94 1184.41 15.3 1184.37 14.468H1185.69C1185.72 14.892 1185.88 15.24 1186.18 15.512C1186.47 15.776 1186.87 15.908 1187.38 15.908C1187.87 15.908 1188.24 15.776 1188.51 15.512C1188.77 15.24 1188.9 14.892 1188.9 14.468C1188.9 13.908 1188.72 13.512 1188.36 13.28C1188.01 13.04 1187.47 12.92 1186.73 12.92H1186.42V11.792H1186.74C1187.39 11.784 1187.88 11.676 1188.22 11.468C1188.56 11.26 1188.73 10.932 1188.73 10.484C1188.73 10.1 1188.61 9.796 1188.36 9.572C1188.11 9.34 1187.76 9.224 1187.31 9.224C1186.86 9.224 1186.51 9.34 1186.26 9.572C1186.01 9.796 1185.87 10.076 1185.82 10.412H1184.49ZM1194.58 15.176V14.144L1198.62 8.36H1200.27V13.988H1201.39V15.176H1200.27V17H1198.93V15.176H1194.58ZM1198.99 9.752L1196.16 13.988H1198.99V9.752ZM1208.16 9.428H1204.14V11.816C1204.31 11.592 1204.56 11.404 1204.88 11.252C1205.22 11.1 1205.58 11.024 1205.95 11.024C1206.62 11.024 1207.17 11.168 1207.58 11.456C1208.01 11.744 1208.31 12.108 1208.48 12.548C1208.67 12.988 1208.76 13.452 1208.76 13.94C1208.76 14.532 1208.64 15.06 1208.41 15.524C1208.19 15.98 1207.85 16.34 1207.39 16.604C1206.94 16.868 1206.39 17 1205.74 17C1204.86 17 1204.16 16.784 1203.64 16.352C1203.11 15.92 1202.79 15.348 1202.69 14.636H1204.02C1204.11 15.012 1204.3 15.312 1204.61 15.536C1204.91 15.752 1205.29 15.86 1205.75 15.86C1206.32 15.86 1206.74 15.688 1207.02 15.344C1207.31 15 1207.45 14.544 1207.45 13.976C1207.45 13.4 1207.31 12.96 1207.02 12.656C1206.73 12.344 1206.31 12.188 1205.75 12.188C1205.36 12.188 1205.02 12.288 1204.75 12.488C1204.49 12.68 1204.3 12.944 1204.18 13.28H1202.88V8.228H1208.16V9.428ZM1214.89 10.28C1214.8 9.912 1214.64 9.636 1214.41 9.452C1214.18 9.268 1213.85 9.176 1213.44 9.176C1212.8 9.176 1212.33 9.42 1212.02 9.908C1211.71 10.388 1211.54 11.188 1211.53 12.308C1211.74 11.956 1212.04 11.684 1212.44 11.492C1212.84 11.3 1213.27 11.204 1213.74 11.204C1214.26 11.204 1214.73 11.32 1215.13 11.552C1215.54 11.776 1215.85 12.104 1216.08 12.536C1216.31 12.968 1216.42 13.484 1216.42 14.084C1216.42 14.644 1216.31 15.144 1216.09 15.584C1215.87 16.024 1215.55 16.372 1215.12 16.628C1214.68 16.876 1214.16 17 1213.56 17C1212.73 17 1212.08 16.82 1211.61 16.46C1211.15 16.092 1210.82 15.576 1210.63 14.912C1210.44 14.248 1210.35 13.42 1210.35 12.428C1210.35 9.5 1211.38 8.036 1213.45 8.036C1214.25 8.036 1214.88 8.252 1215.33 8.684C1215.8 9.116 1216.07 9.648 1216.15 10.28H1214.89ZM1213.44 12.356C1212.95 12.356 1212.53 12.504 1212.19 12.8C1211.85 13.088 1211.68 13.508 1211.68 14.06C1211.68 14.612 1211.84 15.052 1212.15 15.38C1212.47 15.7 1212.92 15.86 1213.48 15.86C1213.99 15.86 1214.38 15.704 1214.67 15.392C1214.97 15.08 1215.12 14.664 1215.12 14.144C1215.12 13.6 1214.97 13.168 1214.68 12.848C1214.4 12.52 1213.99 12.356 1213.44 12.356ZM1223.43 9.308L1220.09 17H1218.71L1222.08 9.452H1217.64V8.288H1223.43V9.308Z" fill="#565656"/>
</svg>
